{
.appVersion = "3147";
.formatVersion = 3;
DisplayStrings = (
"/.notdef ᕼᖴᖶᖵᖷᒣᒥᒧᒪ/me-canadian.square/mi-canadian.square/mo-canadian.square/ma-canadian.square ᒻᒽᣘᐨᙿ᐀ᐪᗮ
/uni11ABE/uni11ABF ᣴᑋ/uni11ABC/uni11ABD ᙆᙇ
ᕼᐯᐱᣔᘁᐁᐃᐞᐳᐸᑉᐅᐊᐈᐉ
ᗄᗅᗊᗋᗆᗉᗌᗏᗍᗎᗐᗑᗖᗗᗒᗕᗘᗛᗙᗚᗓᗔ
ᖼᖿᖽᖾᔾᖮᔿᓫᕑ
ᗀᗁᗂᗃᗱᗴᗲᗳᗷᗸᗹᗺᘊᘋᘌᘍᗽᗾᗿ
ᗯᗰᗵᗶᘈᘉᗻᗼᐜ
ᙎᙏᙔᙕᙡᙢᙧᙨᙛᙜ
ᓭᓯᓱᓴ/uni11AB0/uni11AB2 ᓭ/uni11AB4/se-canadian.square/si-canadian.square/so-canadian.square/sa-canadian.square/uni11AB6/uni11AB8/uni11ABA ᣚᔇᔅᔈᔋ
ᑌᑎᐡᗜᗝᕫᕬᗨᗩ/reRCree-canadian.square/ri-canadian.square/re-canadian.square/ne-canadian.square/ni-canadian.square/no-canadian.square/na-canadian.square/ki-canadian.square/ko-canadian.square/ke-canadian.square/ka-canadian.square/ro-canadian.square/loWestCree-canadian.square/loWestCree-canadian.square/ra-canadian.square/laWestCree-canadian.square ᕈᕊᕋᕍᕐ
ᕂᕄᕃᕆ
ᒋᒍᒉᒐᘃ/ci-canadian.square/co-canadian.square ᘂᒋᒍᒉᒐᖊᖋᖌᖍ/reWestCree-canadian.square/riWestCree-canadian.square/roWestCree-canadian.square/raWestCree-canadian.square ᒡᒢᣗᖸᖹᖺᖻ
ᑐᑕᗞᗡᗤᗧᗪᗭᕲᕳᕭᕮᘄᘇᓚᓓᓕᓗᖠᖢᖤᐣᑦᖦᓪ
ᑌᑎᗢᗣᕰᕱᐡᐢᕞᕡᕟᕠᕤᕦᕪ
ᑌᘎᘏᘐᘓᘑᘒᘕᘔᘖᘗᘚᘛᘘᘙᘜᘝᘞᘡᘟᘠ
ᙀᙁᙈᙉᙂᙅᙊᙍ
ᘢᘣᘩᘨᘤᘪᘧᘭ
ᘮᘯᘴᘵᘳᘰᘶᘹᘺᘻᘼᘿ
ᖗᖚᖘᖙᑫᑲᑭᑯᒃᣖᒄᖆᖉᖇᖈᕴᕵᕷᕹᕻᔉᔊᖯᖰᖱᖲᖳ
ᓀᓇᓂᓄᖛᖜᖝᓐᖟᓒᣙ/g739 ᖕ/ng-canadian.nunavik 
ᕝ
◌ᐧᣞᐝ˚ᐤᣟ/dot_top/doubledot_top/dot_middle/dot_middle_optic_halfsmall/doubledot_middle/raiseddoubledotFinal-canadian.cree 
/stroke_middle/stroke_middle_optic_small/stroke_middle_optic_halfsmall/stroke_middle_optic_threequart ıᑊᐟᐠᐥᐦᐩ/plusFinal-canadian.base ᙾ
ᒾᒿ/zero.canadian/one.canadian/seven.canadian/two.canadian/three.canadian/four.canadian/five.canadian/six.canadian/nine.canadian/eight.canadian 
",
"᙭᙮ᕯ
ᔦᔨᔪᔭ/ye-canadian.square/yi-canadian.square/yo-canadian.square/ya-canadian.square ᖧᖨᖪᖬ/theThCree-canadian.square/thiThCree-canadian.square/thoThCree-canadian.square/thaThCree-canadian.square 
ᓬᕒ
ᕓᕕᕗᕙ
ᔐᔑᣛᔓᔕᔥ/sho-canadian.square/sha-canadian.square/g727/g729 ᣵᙚᔆ
ᙐᙓᙑᙒᙖᙗᙘᙙᙝᙣᙦᙝᙞᙟᙝᙠᙤᙥᙩ
ᙬᙪᙫ"
);
axes = (
{
name = Weight;
tag = wght;
},
{
name = Width;
tag = wdth;
},
{
name = Slant;
tag = slnt;
}
);
classes = (
{

glyphs = (
{
glyphname = idotless;
lastChange = "2022-11-28 15:48:09 +0000";
layers = (
{
background = {
shapes = (
{
closed = 1;
nodes = (
(182,528,l),
(156,528,l),
(44,0,l),
(70,0,l)
);
}
);
};
color = 4;
layerId = m01;
shapes = (
{
closed = 1;
nodes = (
(70,0,l),
(182,528,l),
(156,528,l),
(44,0,l)
);
}
);
width = 216;
},
{
background = {
shapes = (
{
closed = 1;
nodes = (
(320,553,l),
(129,553,l),
(11,0,l),
(202,0,l)
);
}
);
};
color = 4;
layerId = "A1461942-0433-4891-A171-8512F51D8C86";
shapes = (
{
closed = 1;
nodes = (
(202,0,l),
(320,553,l),
(129,553,l),
(11,0,l)
);
}
);
width = 329;
},
{
background = {
shapes = (
{
closed = 1;
nodes = (
(151,528,l),
(126,528,l),
(14,0,l),
(39,0,l)
);
}
);
};
color = 4;
layerId = "341CD669-D84F-4333-8BC8-F9777E6D3814";
shapes = (
{
closed = 1;
nodes = (
(39,0,l),
(151,528,l),
(126,528,l),
(14,0,l)
);
}
);
width = 156;
},
{
background = {
shapes = (
{
closed = 1;
nodes = (
(284,552,l),
(103,552,l),
(-14,0,l),
(167,0,l)
);
}
);
};
color = 4;
layerId = "4DD67900-F9B0-4F36-BC45-F4B21129580C";
shapes = (
{
closed = 1;
nodes = (
(167,0,l),
(284,552,l),
(103,552,l),
(-14,0,l)
);
}
);
width = 267;
}
);
note = dotlessi;
unicode = 305;
},
{
color = 2;
glyphname = "acuteFinal-canadian";
lastChange = "2022-11-28 15:56:34 +0000";
layers = (
{
background = {
shapes = (
{
closed = 1;
nodes = (
(116,357,l),
(363,714,l),
(337,714,l),
(90,357,l)
);
}
);
};
color = 4;
layerId = m01;
shapes = (
{
closed = 1;
nodes = (
(118,357,l),
(363,714,l),
(336,714,l),
(90,357,l)
);
}
);
width = 327;
},
{
background = {
shapes = (
{
closed = 1;
nodes = (
(200,357,l),
(470,714,l),
(321,714,l),
(51,357,l)
);
}
);
};
color = 4;
layerId = "A1461942-0433-4891-A171-8512F51D8C86";
shapes = (
{
closed = 1;
nodes = (
(207,357,l),
(470,714,l),
(314,714,l),
(51,357,l)
);
}
);
width = 403;
},
{
background = {
shapes = (
{
closed = 1;
nodes = (
(88,357,l),
(285,714,l),
(262,714,l),
(65,357,l)
);
}
);
};
color = 4;
layerId = "341CD669-D84F-4333-8BC8-F9777E6D3814";
shapes = (
{
closed = 1;
nodes = (
(89,357,l),
(285,714,l),
(261,714,l),
(65,357,l)
);
}
);
width = 224;
},
{
background = {
shapes = (
{
closed = 1;
nodes = (
(161,357,l),
(383,714,l),
(248,714,l),
(26,357,l)
);
}
);
};
color = 3;
layerId = "4DD67900-F9B0-4F36-BC45-F4B21129580C";
shapes = (
{
closed = 1;
nodes = (
(171,357,l),
(383,714,l),
(238,714,l),
(26,357,l)
);
}
);
width = 291;
}
);
metricRight = "=|";
note = uni141F;
unicode = 5151;
},
{
color = 2;
glyphname = "graveFinal-canadian";
kernLeft = mwestleft;
kernRight = mwestright;
lastChange = "2022-11-28 15:56:34 +0000";
layers = (
{
background = {
shapes = (
{
closed = 1;
nodes = (
(286,357,l),
(191,714,l),
(166,714,l),
(261,357,l)
);
}
);
};
color = 4;
layerId = m01;
shapes = (
{
closed = 1;
nodes = (
(286,357,l),
(190,714,l),
(166,714,l),
(262,357,l)
);
}
);
width = 326;
},
{
background = {
shapes = (
{
closed = 1;
nodes = (
(394,357,l),
(276,714,l),
(127,714,l),
(245,357,l)
);
}
);
};
color = 4;
layerId = "A1461942-0433-4891-A171-8512F51D8C86";
shapes = (
{
closed = 1;
nodes = (
(394,357,l),
(268,714,l),
(127,714,l),
(253,357,l)
);
}
);
width = 403;
},
{
background = {
shapes = (
{
closed = 1;
nodes = (
(209,357,l),
(163,714,l),
(141,714,l),
(187,357,l)
);
}
);
};
color = 4;
layerId = "341CD669-D84F-4333-8BC8-F9777E6D3814";
shapes = (
{
closed = 1;
nodes = (
(209,357,l),
(163,714,l),
(141,714,l),
(187,357,l)
);
}
);
width = 224;
},
{
background = {
shapes = (
{
closed = 1;
nodes = (
(307,357,l),
(237,714,l),
(102,714,l),
(172,357,l)
);
}
);
};
color = 3;
layerId = "4DD67900-F9B0-4F36-BC45-F4B21129580C";
shapes = (
{
closed = 1;
nodes = (
(307,357,l),
(237,714,l),
(102,714,l),
(172,357,l)
);
}
);
width = 291;
}
);
metricLeft = "=|acuteFinal-canadian";
metricRight = "=|acuteFinal-canadian";
note = uni1420;
unicode = 5152;
},
{
color = 2;
glyphname = "ringBottomhalfFinal-canadian";
kernLeft = mwestleft;
kernRight = mwestright;
lastChange = "2022-11-23 19:11:37 +0000";
layers = (
{
background = {
shapes = (
{
closed = 1;
nodes = (
(351,351,o),
(422,412,o),
(445,519,cs),
(486,714,l),
(462,714,l),
(420,518,ls),
(399,419,o),
(342,373,o),
(264,373,cs),
(189,373,o),
(147,417,o),
(168,517,cs),
(210,714,l),
(186,714,l),
(144,516,ls),
(122,412,o),
(169,351,o),
(259,351,cs)
);
}
);
};
color = 4;
layerId = m01;
shapes = (
{
closed = 1;
nodes = (
(363,351,o),
(419,402,o),
(441,503,cs),
(486,714,l),
(462,714,l),
(418,505,ls),
(399,416,o),
(352,373,o),
(270,373,cs),
(181,373,o),
(148,420,o),
(168,516,cs),
(210,714,l),
(186,714,l),
(144,515,ls),
(122,411,o),
(169,351,o),
(271,351,cs)
);
}
);
width = 470;
},
{
background = {
shapes = (
{
closed = 1;
nodes = (
(387,351,o),
(468,423,o),
(493,541,cs),
(530,714,l),
(397,714,l),
(361,546,ls),
(351,499,o),
(328,474,o),
(293,474,cs),
(255,474,o),
(244,500,o),
(254,546,cs),
(290,714,l),
(157,714,l),
(120,541,ls),
(94,419,o),
(150,351,o),
(266,351,cs)
);
}
);
};
color = 4;
layerId = "A1461942-0433-4891-A171-8512F51D8C86";
shapes = (
{
closed = 1;
nodes = (
(395,351,o),
(465,411,o),
(490,527,cs),
(530,714,l),
(397,714,l),
(360,542,ls),
(350,494,o),
(331,474,o),
(297,474,cs),
(259,474,o),
(244,499,o),
(254,545,cs),
(290,714,l),
(157,714,l),
(122,549,ls),
(97,430,o),
(162,351,o),
(286,351,cs)
);
}
);
width = 493;
},
{
background = {
shapes = (
{
closed = 1;
nodes = (
(258,351,o),
(307,398,o),
(326,489,cs),
(373,714,l),
(351,714,l),
(303,488,ls),
(286,407,o),
(251,373,o),
(195,373,cs),
(139,373,o),
(118,408,o),
(135,487,cs),
(183,714,l),
(161,714,l),
(113,486,ls),
(95,399,o),
(122,351,o),
(190,351,cs)
);
}
);
};
color = 4;
layerId = "341CD669-D84F-4333-8BC8-F9777E6D3814";
shapes = (
{
closed = 1;
nodes = (
(266,351,o),
(305,391,o),
(323,478,cs),
(373,714,l),
(351,714,l),
(301,479,ls),
(285,402,o),
(258,373,o),
(202,373,cs),
(141,373,o),
(118,407,o),
(132,474,cs),
(183,714,l),
(161,714,l),
(110,473,ls),
(95,399,o),
(130,351,o),
(201,351,cs)
);
}
);
width = 333;
},
{
background = {
shapes = (
{
closed = 1;
nodes = (
(288,351,o),
(354,402,o),
(375,500,cs),
(420,714,l),
(302,714,l),
(255,492,ls),
(250,469,o),
(239,455,o),
(221,455,cs),
(204,455,o),
(198,468,o),
(203,492,cs),
(250,714,l),
(132,714,l),
(87,500,ls),
(66,402,o),
(114,351,o),
(199,351,cs)
);
}
);
};
color = 4;
layerId = "4DD67900-F9B0-4F36-BC45-F4B21129580C";
metricRight = "=|ai-canadian";
shapes = (
{
closed = 1;
nodes = (
(297,351,o),
(354,399,o),
(372,486,cs),
(420,714,l),
(302,714,l),
(253,483,ls),
(249,465,o),
(238,455,o),
(223,455,cs),
(206,455,o),
(198,467,o),
(202,487,cs),
(250,714,l),
(132,714,l),
(89,513,ls),
(68,415,o),
(117,351,o),
(214,351,cs)
);
}
);
width = 358;
}
);
metricLeft = "ai-canadian";
metricRight = "==|ai-canadian";
note = uni1421;
unicode = 5153;
},
{
color = 2;
glyphname = "ringTophalfFinal-canadian";
lastChange = "2022-11-23 19:11:37 +0000";
layers = (
{
background = {
shapes = (
{
closed = 1;
nodes = (
(135,357,l),
(177,554,ls),
(197,649,o),
(255,698,o),
(333,698,cs),
(412,698,o),
(450,652,o),
(429,553,cs),
(387,357,l),
(411,357,l),
(452,552,ls),
(475,659,o),
(429,720,o),
(338,720,cs),
(249,720,o),
(175,659,o),
(153,555,cs),
(111,357,l)
);
}
);
};
color = 4;
layerId = m01;
shapes = (
{
alignment = -1;
angle = 180;
pos = (596,1071);
ref = "ringBottomhalfFinal-canadian";
}
);
width = 471;
},
{
background = {
shapes = (
{
closed = 1;
nodes = (
(213,357,l),
(249,525,ls),
(260,575,o),
(283,597,o),
(318,597,cs),
(354,597,o),
(366,571,o),
(356,525,cs),
(320,357,l),
(453,357,l),
(490,530,ls),
(516,651,o),
(462,720,o),
(343,720,cs),
(228,720,o),
(143,652,o),
(117,530,cs),
(80,357,l)
);
}
);
};
color = 4;
layerId = "A1461942-0433-4891-A171-8512F51D8C86";
shapes = (
{
alignment = -1;
angle = 180;
pos = (611,1071);
ref = "ringBottomhalfFinal-canadian";
}
);
width = 493;
},
{
background = {
shapes = (
{
closed = 1;
nodes = (
(107,357,l),
(155,584,ls),
(172,663,o),
(206,698,o),
(263,698,cs),
(321,698,o),
(340,664,o),
(323,583,cs),
(275,357,l),
(297,357,l),
(345,582,ls),
(364,673,o),
(336,720,o),
(268,720,cs),
(197,720,o),
(150,667,o),
(133,585,cs),
(85,357,l)
);
}
);
};
color = 4;
layerId = "341CD669-D84F-4333-8BC8-F9777E6D3814";
shapes = (
{
alignment = -1;
angle = 180;
pos = (458,1071);
ref = "ringBottomhalfFinal-canadian";
}
);
width = 332;
},
{
background = {
shapes = (
{
closed = 1;
nodes = (
(175,357,l),
(222,580,ls),
(226,600,o),
(237,616,o),
(256,616,cs),
(273,616,o),
(279,603,o),
(274,580,cs),
(227,357,l),
(345,357,l),
(390,571,ls),
(411,669,o),
(366,720,o),
(278,720,cs),
(192,720,o),
(123,669,o),
(102,571,cs),
(57,357,l)
);
}
);
};
color = 4;
layerId = "4DD67900-F9B0-4F36-BC45-F4B21129580C";
metricRight = "=|ai-canadian";
shapes = (
{
alignment = -1;
angle = 180;
pos = (477,1071);
ref = "ringBottomhalfFinal-canadian";
}
);
width = 359;
}
);
metricLeft = "ai-canadian";
metricRight = "==|ai-canadian";
note = uni1422;
unicode = 5154;
},
{
color = 2;
glyphname = "ringRighthalfFinal-canadian";
kernLeft = mwestleft;
kernRight = mwestright;
lastChange = "2022-11-20 11:21:22 +0000";
layers = (
{
background = {
shapes = (
{
closed = 1;
nodes = (
(190,357,ls),
(311,357,o),
(405,457,o),
(405,586,cs),
(405,665,o),
(355,714,o),
(263,714,cs),
(182,714,l),
(177,692,l),
(258,692,ls),
(340,692,o),
(382,653,o),
(382,584,cs),
(382,464,o),
(302,379,o),
(192,379,cs),
(111,379,l),
(106,357,l)
);
}
);
};
color = 4;
layerId = m01;
shapes = (
{
alignment = -1;
angle = 180;
pos = (545,1071);
ref = "t-canadian";
}
);
width = 420;
},
{
background = {
shapes = (
{
closed = 1;
nodes = (
(193,357,ls),
(336,357,o),
(434,449,o),
(434,582,cs),
(434,665,o),
(378,714,o),
(269,714,cs),
(157,714,l),
(131,592,l),
(236,592,ls),
(275,592,o),
(296,577,o),
(296,550,cs),
(296,506,o),
(264,479,o),
(212,479,cs),
(107,479,l),
(81,357,l)
);
}
);
};
color = 4;
layerId = "A1461942-0433-4891-A171-8512F51D8C86";
shapes = (
{
alignment = -1;
angle = 180;
pos = (538,1071);
ref = "t-canadian";
}
);
width = 420;
},
{
background = {
shapes = (
{
closed = 1;
nodes = (
(102,357,ls),
(221,357,o),
(305,456,o),
(305,595,cs),
(305,671,o),
(264,714,o),
(180,714,cs),
(156,714,l),
(151,692,l),
(172,692,ls),
(247,692,o),
(282,657,o),
(282,591,cs),
(282,464,o),
(211,379,o),
(106,379,cs),
(85,379,l),
(80,357,l)
);
}
);
};
color = 4;
layerId = "341CD669-D84F-4333-8BC8-F9777E6D3814";
shapes = (
{
alignment = -1;
angle = 180;
pos = (420,1071);
ref = "t-canadian";
}
);
width = 295;
},
{
background = {
shapes = (
{
closed = 1;
nodes = (
(110,357,ls),
(233,357,o),
(327,457,o),
(327,583,cs),
(327,663,o),
(277,714,o),
(186,714,cs),
(132,714,l),
(108,602,l),
(150,602,ls),
(186,602,o),
(206,584,o),
(206,554,cs),
(206,505,o),
(171,469,o),
(122,469,cs),
(80,469,l),
(56,357,l)
);
}
);
};
color = 4;
layerId = "4DD67900-F9B0-4F36-BC45-F4B21129580C";
shapes = (
{
alignment = -1;
angle = 180;
pos = (411,1071);
ref = "t-canadian";
}
);
width = 293;
}
);
metricLeft = "=|t-canadian";
metricWidth = "t-canadian";
note = uni1423;
unicode = 5155;
},
{
color = 2;
glyphname = "ringFinal-canadian";
kernLeft = mwestleft;
kernRight = mwestright;
lastChange = "2022-11-20 11:21:22 +0000";
layers = (
{
background = {
shapes = (
{
closed = 1;
nodes = (
(422,351,o),
(532,457,o),
(532,576,cs),
(532,661,o),
(469,720,o),
(379,720,cs),
(257,720,o),
(149,613,o),
(149,494,cs),
(149,410,o),
(209,351,o),
(300,351,cs)
);
},
{
closed = 1;
nodes = (
(224,373,o),
(172,424,o),
(172,498,cs),
(172,605,o),
(266,698,o),
(374,698,cs),
(454,698,o),
(509,647,o),
(509,572,cs),
(509,466,o),
(413,373,o),
(305,373,cs)
);
}
);
};
color = 4;
layerId = m01;
shapes = (
{
closed = 1;
nodes = (
(444,351,o),
(526,430,o),
(526,536,cs),
(526,642,o),
(442,720,o),
(338,720,cs),
(234,720,o),
(152,642,o),
(152,536,cs),
(152,430,o),
(232,351,o),
(338,351,cs)
);
},
{
closed = 1;
nodes = (
(243,373,o),
(175,442,o),
(175,536,cs),
(175,630,o),
(245,698,o),
(338,698,cs),
(431,698,o),
(503,630,o),
(503,536,cs),
(503,442,o),
(433,373,o),
(338,373,cs)
);
}
);
width = 553;
},
{
background = {
shapes = (
{
closed = 1;
nodes = (
(390,351,o),
(498,456,o),
(498,577,cs),
(498,661,o),
(437,720,o),
(343,720,cs),
(218,720,o),
(109,615,o),
(109,494,cs),
(109,410,o),
(169,351,o),
(264,351,cs)
);
},
{
closed = 1;
nodes = (
(254,464,o),
(237,487,o),
(237,517,cs),
(237,566,o),
(275,607,o),
(319,607,cs),
(351,607,o),
(370,584,o),
(370,553,cs),
(370,506,o),
(331,464,o),
(288,464,cs)
);
}
);
};
color = 4;
layerId = "A1461942-0433-4891-A171-8512F51D8C86";
shapes = (
{
closed = 1;
nodes = (
(415,351,o),
(494,430,o),
(494,536,cs),
(494,642,o),
(413,720,o),
(304,720,cs),
(195,720,o),
(114,642,o),
(114,536,cs),
(114,430,o),
(193,351,o),
(304,351,cs)
);
},
{
closed = 1;
nodes = (
(263,464,o),
(239,497,o),
(239,536,cs),
(239,575,o),
(264,607,o),
(304,607,cs),
(343,607,o),
(369,575,o),
(369,536,cs),
(369,497,o),
(344,464,o),
(304,464,cs)
);
}
);
width = 489;
},
{
background = {
shapes = (
{
closed = 1;
nodes = (
(357,408,o),
(449,499,o),
(449,598,cs),
(449,670,o),
(397,720,o),
(322,720,cs),
(221,720,o),
(130,629,o),
(130,529,cs),
(130,458,o),
(181,408,o),
(256,408,cs)
);
},
{
closed = 1;
nodes = (
(193,429,o),
(152,468,o),
(152,530,cs),
(152,623,o),
(227,699,o),
(317,699,cs),
(384,699,o),
(427,659,o),
(427,597,cs),
(427,505,o),
(351,429,o),
(260,429,cs)
);
}
);
};
color = 4;
layerId = "341CD669-D84F-4333-8BC8-F9777E6D3814";
shapes = (
{
closed = 1;
nodes = (
(375,408,o),
(445,475,o),
(445,564,cs),
(445,653,o),
(375,720,o),
(288,720,cs),
(201,720,o),
(133,653,o),
(133,564,cs),
(133,475,o),
(201,408,o),
(288,408,cs)
);
},
{
closed = 1;
nodes = (
(209,429,o),
(155,483,o),
(155,564,cs),
(155,645,o),
(209,699,o),
(288,699,cs),
(366,699,o),
(423,645,o),
(423,564,cs),
(423,483,o),
(366,429,o),
(288,429,cs)
);
}
);
width = 440;
},
{
background = {
shapes = (
{
closed = 1;
nodes = (
(334,404,o),
(427,494,o),
(427,598,cs),
(427,669,o),
(376,720,o),
(295,720,cs),
(188,720,o),
(95,631,o),
(95,527,cs),
(95,455,o),
(145,404,o),
(228,404,cs)
);
},
{
closed = 1;
nodes = (
(219,504,o),
(205,521,o),
(205,546,cs),
(205,588,o),
(235,620,o),
(274,620,cs),
(302,620,o),
(316,600,o),
(316,577,cs),
(316,537,o),
(285,504,o),
(249,504,cs)
);
}
);
};
color = 4;
layerId = "4DD67900-F9B0-4F36-BC45-F4B21129580C";
shapes = (
{
closed = 1;
nodes = (
(357,404,o),
(423,472,o),
(423,563,cs),
(423,652,o),
(356,720,o),
(262,720,cs),
(167,720,o),
(99,653,o),
(99,563,cs),
(99,472,o),
(166,404,o),
(262,404,cs)
);
},
{
closed = 1;
nodes = (
(225,504,o),
(207,529,o),
(207,563,cs),
(207,595,o),
(225,620,o),
(262,620,cs),
(295,620,o),
(315,593,o),
(315,563,cs),
(315,529,o),
(295,504,o),
(262,504,cs)
);
}
);
width = 392;
}
);
metricLeft = "t-canadian";
metricRight = "=|t-canadian";
note = uni1424;
unicode = 5156;
},
{
color = 2;
glyphname = "doubleacuteFinal-canadian";
lastChange = "2022-11-28 15:56:34 +0000";
layers = (
{
background = {
shapes = (
{
closed = 1;
nodes = (
(363,714,l),
(337,714,l),
(90,357,l),
(116,357,l)
);
},
{
closed = 1;
nodes = (
(493,714,l),
(467,714,l),
(220,357,l),
(246,357,l)
);
}
);
};
color = 4;
layerId = m01;
shapes = (
{
closed = 1;
nodes = (
(116,357,l),
(363,714,l),
(337,714,l),
(90,357,l)
);
},
{
closed = 1;
nodes = (
(246,357,l),
(493,714,l),
(467,714,l),
(220,357,l)
);
}
);
width = 457;
},
{
background = {
shapes = (
{
closed = 1;
nodes = (
(470,714,l),
(321,714,l),
(51,357,l),
(200,357,l)
);
},
{
closed = 1;
nodes = (
(684,714,l),
(535,714,l),
(265,357,l),
(414,357,l)
);
}
);
};
color = 4;
layerId = "A1461942-0433-4891-A171-8512F51D8C86";
shapes = (
{
closed = 1;
nodes = (
(207,357,l),
(470,714,l),
(314,714,l),
(51,357,l)
);
},
{
closed = 1;
nodes = (
(421,357,l),
(684,714,l),
(528,714,l),
(265,357,l)
);
}
);
width = 617;
},
{
background = {
shapes = (
{
closed = 1;
nodes = (
(285,714,l),
(262,714,l),
(65,357,l),
(88,357,l)
);
},
{
closed = 1;
nodes = (
(379,714,l),
(355,714,l),
(159,357,l),
(182,357,l)
);
}
);
};
color = 4;
layerId = "341CD669-D84F-4333-8BC8-F9777E6D3814";
shapes = (
{
closed = 1;
nodes = (
(89,357,l),
(285,714,l),
(261,714,l),
(65,357,l)
);
},
{
closed = 1;
nodes = (
(184,357,l),
(380,714,l),
(356,714,l),
(160,357,l)
);
}
);
width = 319;
},
{
background = {
shapes = (
{
closed = 1;
nodes = (
(497,714,l),
(362,714,l),
(140,357,l),
(275,357,l)
);
},
{
closed = 1;
nodes = (
(668,714,l),
(533,714,l),
(312,357,l),
(447,357,l)
);
}
);
};
color = 3;
layerId = "4DD67900-F9B0-4F36-BC45-F4B21129580C";
shapes = (
{
closed = 1;
nodes = (
(171,357,l),
(382,714,l),
(237,714,l),
(26,357,l)
);
},
{
closed = 1;
nodes = (
(343,357,l),
(554,714,l),
(409,714,l),
(198,357,l)
);
}
);
width = 462;
}
);
metricLeft = "acuteFinal-canadian";
metricRight = "=|";
note = uni1425;
unicode = 5157;
},
{
color = 2;
glyphname = "doubleshortverticalstrokesFinal-canadian";
kernLeft = mwestleft;
kernRight = mwestright;
lastChange = "2022-11-28 15:58:10 +0000";
layers = (
{
background = {
shapes = (
{
closed = 1;
nodes = (
(210,714,l),
(186,714,l),
(110,357,l),
(134,357,l)
);
},
{
closed = 1;
nodes = (
(329,714,l),
(305,714,l),
(229,357,l),
(253,357,l)
);
}
);
};
color = 4;
layerId = m01;
shapes = (
{
closed = 1;
nodes = (
(134,357,l),
(210,714,l),
(186,714,l),
(110,357,l)
);
},
{
closed = 1;
nodes = (
(253,357,l),
(329,714,l),
(305,714,l),
(229,357,l)
);
}
);
width = 313;
},
{
background = {
shapes = (
{
closed = 1;
nodes = (
(290,714,l),
(157,714,l),
(81,357,l),
(214,357,l)
);
},
{
closed = 1;
nodes = (
(478,714,l),
(345,714,l),
(269,357,l),
(402,357,l)
);
}
);
};
color = 4;
layerId = "A1461942-0433-4891-A171-8512F51D8C86";
shapes = (
{
closed = 1;
nodes = (
(214,357,l),
(290,714,l),
(157,714,l),
(81,357,l)
);
},
{
closed = 1;
nodes = (
(402,357,l),
(478,714,l),
(345,714,l),
(269,357,l)
);
}
);
width = 441;
},
{
background = {
shapes = (
{
closed = 1;
nodes = (
(183,714,l),
(161,714,l),
(85,357,l),
(107,357,l)
);
},
{
closed = 1;
nodes = (
(268,714,l),
(246,714,l),
(170,357,l),
(192,357,l)
);
}
);
};
color = 4;
layerId = "341CD669-D84F-4333-8BC8-F9777E6D3814";
shapes = (
{
closed = 1;
nodes = (
(107,357,l),
(183,714,l),
(161,714,l),
(85,357,l)
);
},
{
closed = 1;
nodes = (
(192,357,l),
(268,714,l),
(246,714,l),
(170,357,l)
);
}
);
width = 227;
},
{
background = {
shapes = (
{
closed = 1;
nodes = (
(250,714,l),
(132,714,l),
(56,357,l),
(174,357,l)
);
},
{
closed = 1;
nodes = (
(399,714,l),
(281,714,l),
(205,357,l),
(323,357,l)
);
}
);
};
color = 3;
layerId = "4DD67900-F9B0-4F36-BC45-F4B21129580C";
shapes = (
{
closed = 1;
nodes = (
(176,357,l),
(252,714,l),
(132,714,l),
(56,357,l)
);
},
{
closed = 1;
nodes = (
(325,357,l),
(401,714,l),
(281,714,l),
(205,357,l)
);
}
);
width = 339;
}
);
metricLeft = "pWestCree-canadian";
metricRight = "pWestCree-canadian";
note = uni1426;
unicode = 5158;
},
{
color = 2;
glyphname = "middledotFinal-canadian";
lastChange = "2022-11-20 11:21:22 +0000";
layers = (
{
background = {
shapes = (
{
closed = 1;
nodes = (
(160,334,o),
(180,353,o),
(180,375,cs),
(180,389,o),
(169,400,o),
(153,400,cs),
(131,400,o),
(112,381,o),
(112,359,cs),
(112,344,o),
(123,334,o),
(139,334,cs)
);
}
);
};
color = 4;
layerId = m01;
shapes = (
{
closed = 1;
nodes = (
(165,334,o),
(179,348,o),
(179,367,cs),
(179,386,o),
(165,400,o),
(146,400,cs),
(127,400,o),
(113,386,o),
(113,367,cs),
(113,348,o),
(127,334,o),
(146,334,cs)
);
}
);
width = 238;
},
{
background = {
shapes = (
{
closed = 1;
nodes = (
(198,277,o),
(252,330,o),
(252,386,cs),
(252,427,o),
(222,457,o),
(179,457,cs),
(122,457,o),
(68,404,o),
(68,348,cs),
(68,307,o),
(98,277,o),
(141,277,cs)
);
}
);
};
color = 4;
layerId = "A1461942-0433-4891-A171-8512F51D8C86";
shapes = (
{
closed = 1;
nodes = (
(210,277,o),
(250,317,o),
(250,367,cs),
(250,417,o),
(210,457,o),
(160,457,cs),
(110,457,o),
(70,417,o),
(70,367,cs),
(70,317,o),
(110,277,o),
(160,277,cs)
);
}
);
width = 274;
},
{
background = {
shapes = (
{
closed = 1;
nodes = (
(126,337,o),
(143,355,o),
(143,374,cs),
(143,387,o),
(134,397,o),
(119,397,cs),
(100,397,o),
(82,380,o),
(82,360,cs),
(82,347,o),
(92,337,o),
(106,337,cs)
);
}
);
};
color = 4;
layerId = "341CD669-D84F-4333-8BC8-F9777E6D3814";
shapes = (
{
closed = 1;
nodes = (
(130,337,o),
(143,350,o),
(143,367,cs),
(143,384,o),
(130,397,o),
(113,397,cs),
(96,397,o),
(83,384,o),
(83,367,cs),
(83,350,o),
(96,337,o),
(113,337,cs)
);
}
);
width = 172;
},
{
background = {
shapes = (
{
closed = 1;
nodes = (
(163,287,o),
(212,334,o),
(212,384,cs),
(212,419,o),
(185,447,o),
(147,447,cs),
(97,447,o),
(48,400,o),
(48,350,cs),
(48,314,o),
(75,287,o),
(113,287,cs)
);
}
);
};
color = 4;
layerId = "4DD67900-F9B0-4F36-BC45-F4B21129580C";
shapes = (
{
closed = 1;
nodes = (
(174,287,o),
(210,323,o),
(210,367,cs),
(210,411,o),
(174,447,o),
(130,447,cs),
(86,447,o),
(50,411,o),
(50,367,cs),
(50,323,o),
(86,287,o),
(130,287,cs)
);
}
);
width = 213;
}
);
metricRight = "=|";
note = uni1427;
unicode = 5159;
},
{
color = 2;
glyphname = "shorthorizontalstrokeFinal-canadian";
kernLeft = mwestleft;
kernRight = mwestright;
lastChange = "2022-11-20 11:21:22 +0000";
layers = (
{
background = {
shapes = (
{
closed = 1;
nodes = (
(497,526,l),
(502,548,l),
(146,548,l),
(141,526,l)
);
}
);
};
color = 4;
layerId = m01;
shapes = (
{
closed = 1;
nodes = (
(496,526,l),
(501,548,l),
(146,548,l),
(141,526,l)
);
}
);
width = 516;
},
{
background = {
shapes = (
{
closed = 1;
nodes = (
(472,469,l),
(501,605,l),
(133,605,l),
(104,469,l)
);
}
);
};
color = 4;
layerId = "A1461942-0433-4891-A171-8512F51D8C86";
shapes = (
{
closed = 1;
nodes = (
(473,469,l),
(502,605,l),
(134,605,l),
(105,469,l)
);
}
);
width = 488;
},
{
background = {
shapes = (
{
closed = 1;
nodes = (
(371,526,l),
(376,548,l),
(126,548,l),
(121,526,l)
);
}
);
};
color = 4;
layerId = "341CD669-D84F-4333-8BC8-F9777E6D3814";
shapes = (
{
closed = 1;
nodes = (
(370,526,l),
(375,548,l),
(126,548,l),
(121,526,l)
);
}
);
width = 370;
},
{
background = {
shapes = (
{
closed = 1;
nodes = (
(369,507,l),
(395,627,l),
(115,627,l),
(89,507,l)
);
}
);
};
color = 4;
layerId = "4DD67900-F9B0-4F36-BC45-F4B21129580C";
shapes = (
{
closed = 1;
nodes = (
(368,507,l),
(393,627,l),
(114,627,l),
(89,507,l)
);
}
);
width = 350;
}
);
metricRight = "=|";
note = uni1428;
unicode = 5160;
},
{
color = 2;
glyphname = "plusFinal-canadian";
kernLeft = mwestleft;
kernRight = mwestright;
lastChange = "2022-11-28 15:58:10 +0000";
layers = (
{
background = {
shapes = (
{
closed = 1;
nodes = (
(296,357,l),
(332,526,l),
(497,526,l),
(502,548,l),
(337,548,l),
(372,714,l),
(348,714,l),
(313,548,l),
(146,548,l),
(141,526,l),
(308,526,l),
(272,357,l)
);
}
);
};
color = 4;
layerId = m01;
shapes = (
{
closed = 1;
nodes = (
(296,357,l),
(372,714,l),
(348,714,l),
(272,357,l)
);
},
{
closed = 1;
nodes = (
(497,526,l),
(502,548,l),
(146,548,l),
(141,526,l)
);
}
);
width = 517;
},
{
background = {
shapes = (
{
closed = 1;
nodes = (
(332,357,l),
(357,474,l),
(475,474,l),
(502,600,l),
(384,600,l),
(408,714,l),
(275,714,l),
(251,600,l),
(133,600,l),
(106,474,l),
(224,474,l),
(199,357,l)
);
}
);
};
color = 4;
layerId = "A1461942-0433-4891-A171-8512F51D8C86";
shapes = (
{
closed = 1;
nodes = (
(332,357,l),
(408,714,l),
(275,714,l),
(199,357,l)
);
},
{
closed = 1;
nodes = (
(475,474,l),
(502,600,l),
(133,600,l),
(106,474,l)
);
}
);
width = 489;
},
{
background = {
shapes = (
{
closed = 1;
nodes = (
(233,417,l),
(263,556,l),
(377,556,l),
(382,578,l),
(268,578,l),
(297,714,l),
(276,714,l),
(247,578,l),
(132,578,l),
(127,556,l),
(242,556,l),
(212,417,l)
);
}
);
};
color = 4;
layerId = "341CD669-D84F-4333-8BC8-F9777E6D3814";
shapes = (
{
closed = 1;
nodes = (
(377,556,l),
(382,578,l),
(132,578,l),
(127,556,l)
);
},
{
closed = 1;
nodes = (
(233,417,l),
(296,714,l),
(275,714,l),
(212,417,l)
);
}
);
width = 370;
},
{
background = {
shapes = (
{
closed = 1;
nodes = (
(265,417,l),
(285,511,l),
(369,511,l),
(393,623,l),
(309,623,l),
(328,714,l),
(218,714,l),
(199,623,l),
(113,623,l),
(89,511,l),
(175,511,l),
(155,417,l)
);
}
);
};
color = 3;
layerId = "4DD67900-F9B0-4F36-BC45-F4B21129580C";
shapes = (
{
closed = 1;
nodes = (
(266,418,l),
(329,715,l),
(217,715,l),
(154,418,l)
);
},
{
closed = 1;
nodes = (
(369,512,l),
(393,624,l),
(113,624,l),
(89,512,l)
);
}
);
width = 350;
}
);
metricLeft = "shorthorizontalstrokeFinal-canadian";
metricRight = "shorthorizontalstrokeFinal-canadian";
note = uni1429;
unicode = 5161;
},
{
color = 2;
glyphname = "downtackFinal-canadian";
kernLeft = mwestleft;
kernRight = mwestright;
lastChange = "2022-11-23 16:42:20 +0000";
layers = (
{
background = {
shapes = (
{
closed = 1;
nodes = (
(296,357,l),
(367,692,l),
(532,692,l),
(537,714,l),
(181,714,l),
(176,692,l),
(343,692,l),
(272,357,l)
);
}
);
};
color = 4;
layerId = m01;
shapes = (
{
closed = 1;
nodes = (
(296,357,l),
(370,704,l),
(346,704,l),
(272,357,l)
);
},
{
closed = 1;
nodes = (
(532,692,l),
(537,714,l),
(181,714,l),
(176,692,l)
);
}
);
width = 516;
},
{
background = {
shapes = (
{
closed = 1;
nodes = (
(332,357,l),
(381,588,l),
(499,588,l),
(526,714,l),
(157,714,l),
(130,588,l),
(248,588,l),
(199,357,l)
);
}
);
};
color = 4;
layerId = "A1461942-0433-4891-A171-8512F51D8C86";
shapes = (
{
closed = 1;
nodes = (
(332,357,l),
(408,714,l),
(275,714,l),
(199,357,l)
);
},
{
closed = 1;
nodes = (
(499,588,l),
(526,714,l),
(157,714,l),
(130,588,l)
);
}
);
width = 489;
},
{
background = {
shapes = (
{
closed = 1;
nodes = (
(222,357,l),
(293,692,l),
(406,692,l),
(411,714,l),
(161,714,l),
(156,692,l),
(271,692,l),
(200,357,l)
);
}
);
};
color = 4;
layerId = "341CD669-D84F-4333-8BC8-F9777E6D3814";
shapes = (
{
closed = 1;
nodes = (
(222,357,l),
(296,704,l),
(274,704,l),
(200,357,l)
);
},
{
closed = 1;
nodes = (
(406,692,l),
(411,714,l),
(161,714,l),
(156,692,l)
);
}
);
width = 370;
},
{
background = {
shapes = (
{
closed = 1;
nodes = (
(255,357,l),
(307,602,l),
(388,602,l),
(412,714,l),
(132,714,l),
(108,602,l),
(189,602,l),
(137,357,l)
);
}
);
};
color = 4;
layerId = "4DD67900-F9B0-4F36-BC45-F4B21129580C";
shapes = (
{
closed = 1;
nodes = (
(255,357,l),
(329,704,l),
(211,704,l),
(137,357,l)
);
},
{
closed = 1;
nodes = (
(388,602,l),
(412,714,l),
(132,714,l),
(108,602,l)
);
}
);
width = 350;
}
);
metricLeft = "shorthorizontalstrokeFinal-canadian";
metricRight = "shorthorizontalstrokeFinal-canadian";
note = uni142A;
unicode = 5162;
},
{
color = 2;
glyphname = "thFinalWoodScree-canadian";
lastChange = "2022-11-28 15:58:13 +0000";
layers = (
{
background = {
shapes = (
{
closed = 1;
nodes = (
(301,357,l),
(322,457,l),
(487,457,l),
(492,479,l),
(327,479,l),
(351,592,l),
(516,592,l),
(520,614,l),
(355,614,l),
(377,714,l),
(353,714,l),
(331,614,l),
(164,614,l),
(160,592,l),
(327,592,l),
(303,479,l),
(136,479,l),
(131,457,l),
(298,457,l),
(277,357,l)
);
}
);
};
color = 4;
layerId = m01;
shapes = (
{
closed = 1;
nodes = (
(301,357,l),
(377,714,l),
(353,714,l),
(277,357,l)
);
},
{
closed = 1;
nodes = (
(486,457,l),
(491,479,l),
(136,479,l),
(131,457,l)
);
},
{
closed = 1;
nodes = (
(515,592,l),
(520,614,l),
(165,614,l),
(160,592,l)
);
}
);
width = 526;
},
{
background = {
shapes = (
{
closed = 1;
nodes = (
(334,357,l),
(345,407,l),
(461,407,l),
(483,512,l),
(367,512,l),
(377,559,l),
(493,559,l),
(516,664,l),
(400,664,l),
(410,714,l),
(277,714,l),
(267,664,l),
(148,664,l),
(125,559,l),
(244,559,l),
(234,512,l),
(115,512,l),
(93,407,l),
(212,407,l),
(201,357,l)
);
}
);
};
color = 4;
layerId = "A1461942-0433-4891-A171-8512F51D8C86";
shapes = (
{
closed = 1;
nodes = (
(334,357,l),
(410,714,l),
(277,714,l),
(201,357,l)
);
},
{
closed = 1;
nodes = (
(461,407,l),
(483,512,l),
(115,512,l),
(93,407,l)
);
},
{
closed = 1;
nodes = (
(493,559,l),
(515,664,l),
(147,664,l),
(125,559,l)
);
}
);
width = 489;
},
{
background = {
shapes = (
{
closed = 1;
nodes = (
(221,357,l),
(242,457,l),
(356,457,l),
(361,479,l),
(247,479,l),
(271,592,l),
(385,592,l),
(389,614,l),
(275,614,l),
(297,714,l),
(275,714,l),
(253,614,l),
(139,614,l),
(135,592,l),
(249,592,l),
(225,479,l),
(111,479,l),
(106,457,l),
(220,457,l),
(199,357,l)
);
}
);
};
color = 4;
layerId = "341CD669-D84F-4333-8BC8-F9777E6D3814";
shapes = (
{
closed = 1;
nodes = (
(221,357,l),
(297,714,l),
(275,714,l),
(199,357,l)
);
},
{
closed = 1;
nodes = (
(356,457,l),
(361,479,l),
(111,479,l),
(106,457,l)
);
},
{
closed = 1;
nodes = (
(385,592,l),
(390,614,l),
(140,614,l),
(135,592,l)
);
}
);
width = 371;
},
{
background = {
shapes = (
{
closed = 1;
nodes = (
(255,357,l),
(266,407,l),
(347,407,l),
(368,507,l),
(287,507,l),
(299,564,l),
(380,564,l),
(402,664,l),
(321,664,l),
(331,714,l),
(213,714,l),
(203,664,l),
(122,664,l),
(100,564,l),
(181,564,l),
(169,507,l),
(88,507,l),
(67,407,l),
(148,407,l),
(137,357,l)
);
}
);
};
color = 3;
layerId = "4DD67900-F9B0-4F36-BC45-F4B21129580C";
shapes = (
{
closed = 1;
nodes = (
(258,357,l),
(334,714,l),
(213,714,l),
(137,357,l)
);
},
{
closed = 1;
nodes = (
(348,407,l),
(369,507,l),
(89,507,l),
(68,407,l)
);
},
{
closed = 1;
nodes = (
(381,564,l),
(402,664,l),
(122,664,l),
(101,564,l)
);
}
);
width = 351;
}
);
metricLeft = "hyphen-canadian";
metricRight = "hyphen-canadian";
note = uni167E;
unicode = 5758;
},
{
color = 2;
glyphname = "ringSmallFinal-canadian";
kernLeft = mwestleft;
kernRight = mwestright;
lastChange = "2022-11-20 11:21:22 +0000";
layers = (
{
background = {
shapes = (
{
closed = 1;
nodes = (
(314,526,o),
(372,583,o),
(372,649,cs),
(372,696,o),
(338,726,o),
(291,726,cs),
(226,726,o),
(167,669,o),
(167,603,cs),
(167,556,o),
(201,526,o),
(248,526,cs)
);
},
{
closed = 1;
nodes = (
(212,548,o),
(190,572,o),
(190,606,cs),
(190,660,o),
(234,704,o),
(286,704,cs),
(326,704,o),
(349,680,o),
(349,645,cs),
(349,592,o),
(306,548,o),
(253,548,cs)
);
}
);
};
color = 4;
layerId = m01;
shapes = (
{
closed = 1;
nodes = (
(324,526,o),
(369,566,o),
(369,626,cs),
(369,686,o),
(324,726,o),
(269,726,cs),
(214,726,o),
(169,686,o),
(169,626,cs),
(169,566,o),
(214,526,o),
(269,526,cs)
);
},
{
closed = 1;
nodes = (
(221,548,o),
(192,581,o),
(192,626,cs),
(192,671,o),
(222,704,o),
(269,704,cs),
(316,704,o),
(346,671,o),
(346,626,cs),
(346,581,o),
(317,548,o),
(269,548,cs)
);
}
);
width = 375;
},
{
background = {
shapes = (
{
closed = 1;
nodes = (
(326,483,o),
(404,554,o),
(404,631,cs),
(404,689,o),
(356,729,o),
(294,729,cs),
(211,729,o),
(136,658,o),
(136,580,cs),
(136,522,o),
(181,483,o),
(242,483,cs)
);
},
{
closed = 1;
nodes = (
(238,563,o),
(227,577,o),
(227,595,cs),
(227,623,o),
(252,649,o),
(279,649,cs),
(299,649,o),
(313,634,o),
(313,615,cs),
(313,588,o),
(287,563,o),
(261,563,cs)
);
}
);
};
color = 4;
layerId = "A1461942-0433-4891-A171-8512F51D8C86";
shapes = (
{
closed = 1;
nodes = (
(336,483,o),
(399,534,o),
(399,606,cs),
(399,678,o),
(336,729,o),
(266,729,cs),
(196,729,o),
(137,678,o),
(137,606,cs),
(137,534,o),
(196,483,o),
(266,483,cs)
);
},
{
closed = 1;
nodes = (
(240,563,o),
(226,583,o),
(226,606,cs),
(226,629,o),
(244,649,o),
(268,649,cs),
(292,649,o),
(310,629,o),
(310,606,cs),
(310,583,o),
(292,563,o),
(268,563,cs)
);
}
);
width = 387;
},
{
background = {
shapes = (
{
closed = 1;
nodes = (
(264,566,o),
(310,612,o),
(310,664,cs),
(310,701,o),
(284,726,o),
(245,726,cs),
(192,726,o),
(146,680,o),
(146,628,cs),
(146,591,o),
(172,566,o),
(211,566,cs)
);
},
{
closed = 1;
nodes = (
(186,586,o),
(167,603,o),
(167,631,cs),
(167,672,o),
(201,706,o),
(241,706,cs),
(270,706,o),
(289,688,o),
(289,661,cs),
(289,620,o),
(255,586,o),
(215,586,cs)
);
}
);
};
color = 4;
layerId = "341CD669-D84F-4333-8BC8-F9777E6D3814";
shapes = (
{
closed = 1;
nodes = (
(274,566,o),
(308,600,o),
(308,646,cs),
(308,692,o),
(274,726,o),
(228,726,cs),
(182,726,o),
(148,692,o),
(148,646,cs),
(148,600,o),
(182,566,o),
(228,566,cs)
);
},
{
closed = 1;
nodes = (
(193,586,o),
(169,610,o),
(169,646,cs),
(169,681,o),
(193,706,o),
(228,706,cs),
(263,706,o),
(287,681,o),
(287,646,cs),
(287,610,o),
(263,586,o),
(228,586,cs)
);
}
);
width = 284;
},
{
background = {
shapes = (
{
closed = 1;
nodes = (
(274,509,o),
(341,573,o),
(341,642,cs),
(341,694,o),
(301,729,o),
(250,729,cs),
(178,729,o),
(112,665,o),
(112,595,cs),
(112,544,o),
(151,509,o),
(203,509,cs)
);
},
{
closed = 1;
nodes = (
(199,579,o),
(187,593,o),
(187,610,cs),
(187,635,o),
(210,659,o),
(235,659,cs),
(254,659,o),
(266,645,o),
(266,628,cs),
(266,603,o),
(243,579,o),
(218,579,cs)
);
}
);
};
color = 4;
layerId = "4DD67900-F9B0-4F36-BC45-F4B21129580C";
shapes = (
{
closed = 1;
nodes = (
(286,509,o),
(339,555,o),
(339,619,cs),
(339,683,o),
(286,729,o),
(227,729,cs),
(168,729,o),
(115,684,o),
(115,619,cs),
(115,555,o),
(167,509,o),
(227,509,cs)
);
},
{
closed = 1;
nodes = (
(204,579,o),
(188,598,o),
(188,619,cs),
(188,640,o),
(204,659,o),
(227,659,cs),
(250,659,o),
(266,640,o),
(266,619,cs),
(266,598,o),
(250,579,o),
(227,579,cs)
);
}
);
width = 300;
}
);
metricRight = "=|";
note = g725;
unicode = 6366;
},
{
color = 2;
glyphname = "raiseddotFinal-canadian";
kernLeft = mwestleft;
kernRight = mwestright;
lastChange = "2022-11-20 11:21:22 +0000";
layers = (
{
background = {
shapes = (
{
closed = 1;
nodes = (
(229,660,o),
(249,679,o),
(249,701,cs),
(249,715,o),
(238,726,o),
(222,726,cs),
(200,726,o),
(181,707,o),
(181,685,cs),
(181,670,o),
(192,660,o),
(208,660,cs)
);
}
);
};
color = 4;
layerId = m01;
shapes = (
{
closed = 1;
nodes = (
(234,660,o),
(248,674,o),
(248,693,cs),
(248,712,o),
(234,726,o),
(215,726,cs),
(196,726,o),
(182,712,o),
(182,693,cs),
(182,674,o),
(196,660,o),
(215,660,cs)
);
}
);
width = 238;
},
{
background = {
shapes = (
{
closed = 1;
nodes = (
(256,549,o),
(310,602,o),
(310,658,cs),
(310,699,o),
(280,729,o),
(237,729,cs),
(180,729,o),
(126,676,o),
(126,620,cs),
(126,579,o),
(156,549,o),
(199,549,cs)
);
}
);
};
color = 4;
layerId = "A1461942-0433-4891-A171-8512F51D8C86";
shapes = (
{
closed = 1;
nodes = (
(268,549,o),
(308,589,o),
(308,639,cs),
(308,689,o),
(268,729,o),
(218,729,cs),
(168,729,o),
(128,689,o),
(128,639,cs),
(128,589,o),
(168,549,o),
(218,549,cs)
);
}
);
width = 274;
},
{
background = {
shapes = (
{
closed = 1;
nodes = (
(202,666,o),
(219,684,o),
(219,703,cs),
(219,716,o),
(210,726,o),
(195,726,cs),
(176,726,o),
(158,709,o),
(158,689,cs),
(158,676,o),
(168,666,o),
(182,666,cs)
);
}
);
};
color = 4;
layerId = "341CD669-D84F-4333-8BC8-F9777E6D3814";
shapes = (
{
closed = 1;
nodes = (
(205,666,o),
(218,679,o),
(218,696,cs),
(218,713,o),
(205,726,o),
(188,726,cs),
(171,726,o),
(158,713,o),
(158,696,cs),
(158,679,o),
(171,666,o),
(188,666,cs)
);
}
);
width = 182;
},
{
background = {
shapes = (
{
closed = 1;
nodes = (
(223,569,o),
(272,616,o),
(272,666,cs),
(272,701,o),
(245,729,o),
(207,729,cs),
(157,729,o),
(108,682,o),
(108,632,cs),
(108,596,o),
(135,569,o),
(173,569,cs)
);
}
);
};
color = 4;
layerId = "4DD67900-F9B0-4F36-BC45-F4B21129580C";
shapes = (
{
closed = 1;
nodes = (
(234,569,o),
(270,605,o),
(270,649,cs),
(270,693,o),
(234,729,o),
(190,729,cs),
(146,729,o),
(110,693,o),
(110,649,cs),
(110,605,o),
(146,569,o),
(190,569,cs)
);
}
);
width = 213;
}
);
metricRight = "=|";
note = g725;
unicode = 6367;
},
{
color = 2;
glyphname = "plusFinal-canadian.base";
lastChange = "2022-11-28 15:58:10 +0000";
layers = (
{
background = {
shapes = (
{
closed = 1;
nodes = (
(220,0,l),
(256,169,l),
(421,169,l),
(426,191,l),
(261,191,l),
(296,357,l),
(272,357,l),
(237,191,l),
(70,191,l),
(65,169,l),
(232,169,l),
(196,0,l)
);
}
);
};
color = 4;
layerId = m01;
shapes = (
{
closed = 1;
nodes = (
(220,0,l),
(296,357,l),
(272,357,l),
(196,0,l)
);
},
{
closed = 1;
nodes = (
(421,169,l),
(426,191,l),
(70,191,l),
(65,169,l)
);
}
);
width = 517;
},
{
background = {
shapes = (
{
closed = 1;
nodes = (
(256,0,l),
(281,117,l),
(399,117,l),
(426,243,l),
(308,243,l),
(332,357,l),
(199,357,l),
(175,243,l),
(57,243,l),
(30,117,l),
(148,117,l),
(123,0,l)
);
}
);
};
color = 4;
layerId = "A1461942-0433-4891-A171-8512F51D8C86";
shapes = (
{
closed = 1;
nodes = (
(256,0,l),
(332,357,l),
(199,357,l),
(123,0,l)
);
},
{
closed = 1;
nodes = (
(399,117,l),
(426,243,l),
(57,243,l),
(30,117,l)
);
}
);
width = 489;
},
{
background = {
shapes = (
{
closed = 1;
nodes = (
(143,0,l),
(173,139,l),
(287,139,l),
(292,161,l),
(178,161,l),
(207,297,l),
(186,297,l),
(157,161,l),
(42,161,l),
(37,139,l),
(152,139,l),
(122,0,l)
);
}
);
};
color = 4;
layerId = "341CD669-D84F-4333-8BC8-F9777E6D3814";
shapes = (
{
closed = 1;
nodes = (
(144,0,l),
(207,297,l),
(186,297,l),
(123,0,l)
);
},
{
closed = 1;
nodes = (
(288,139,l),
(293,161,l),
(43,161,l),
(38,139,l)
);
}
);
width = 370;
},
{
background = {
shapes = (
{
closed = 1;
nodes = (
(177,0,l),
(197,94,l),
(281,94,l),
(305,206,l),
(221,206,l),
(240,297,l),
(130,297,l),
(111,206,l),
(25,206,l),
(1,94,l),
(87,94,l),
(67,0,l)
);
}
);
};
color = 3;
layerId = "4DD67900-F9B0-4F36-BC45-F4B21129580C";
shapes = (
{
closed = 1;
nodes = (
(177,0,l),
(240,297,l),
(128,297,l),
(65,0,l)
);
},
{
closed = 1;
nodes = (
(280,94,l),
(304,206,l),
(24,206,l),
(0,94,l)
);
}
);
width = 350;
}
);
metricLeft = "shorthorizontalstrokeFinal-canadian";
metricRight = "shorthorizontalstrokeFinal-canadian";
note = uni1429;
},
{
color = 2;
glyphname = "e-canadian";
kernLeft = ecanleft;
kernRight = ecanright;
lastChange = "2022-11-21 12:01:49 +0000";
layers = (
{
anchors = (
{
name = middle_center_can;
pos = (436,470);
},
{
name = top_center_can;
pos = (488,714);
},
{
name = top_left_can;
pos = (231,714);
},
{
name = top_right_can;
pos = (746,714);
}
);
background = {
anchors = (
{
name = middle_center_can;
pos = (436,470);
},
{
name = top_center_can;
pos = (488,714);
},
{
name = top_left_can;
pos = (231,714);
},
{
name = top_right_can;
pos = (746,714);
}
);
shapes = (
{
closed = 1;
nodes = (
(354,0,l),
(838,701,l),
(841,714,l),
(146,714,l),
(143,701,l),
(329,0,l)
);
},
{
closed = 1;
nodes = (
(350,19,l),
(173,700,l),
(170,689,l),
(806,689,l),
(809,700,l),
(342,19,l)
);
}
);
};
color = 4;
layerId = m01;
shapes = (
{
closed = 1;
nodes = (
(354,0,l),
(838,701,l),
(841,714,l),
(146,714,l),
(143,701,l),
(329,0,l)
);
},
{
closed = 1;
nodes = (
(349,19,l),
(171,700,l),
(161,689,l),
(817,689,l),
(805,700,l),
(338,19,l)
);
}
);
width = 785;
},
{
anchors = (
{
name = middle_center_can;
pos = (466,470);
},
{
name = top_center_can;
pos = (518,714);
},
{
name = top_left_can;
pos = (261,714);
},
{
name = top_right_can;
pos = (776,714);
}
);
background = {
anchors = (
{
name = middle_center_can;
pos = (466,470);
},
{
name = top_center_can;
pos = (518,714);
},
{
name = top_left_can;
pos = (261,714);
},
{
name = top_right_can;
pos = (776,714);
}
);
shapes = (
{
closed = 1;
nodes = (
(394,0,l),
(900,669,l),
(910,714,l),
(126,714,l),
(116,669,l),
(338,0,l)
);
},
{
closed = 1;
nodes = (
(446,252,l),
(333,598,l),
(301,559,l),
(669,559,l),
(661,598,l),
(400,252,l)
);
}
);
};
color = 4;
layerId = "A1461942-0433-4891-A171-8512F51D8C86";
shapes = (
{
closed = 1;
nodes = (
(394,0,l),
(900,669,l),
(910,714,l),
(126,714,l),
(116,669,l),
(338,0,l)
);
},
{
closed = 1;
nodes = (
(429,252,l),
(320,597,l),
(301,559,l),
(668,559,l),
(639,598,l),
(382,252,l)
);
}
);
width = 841;
},
{
anchors = (
{
name = middle_center_can;
pos = (325,470);
},
{
name = top_center_can;
pos = (377,714);
},
{
name = top_left_can;
pos = (198,714);
},
{
name = top_right_can;
pos = (558,714);
}
);
background = {
anchors = (
{
name = middle_center_can;
pos = (325,470);
},
{
name = top_center_can;
pos = (377,714);
},
{
name = top_left_can;
pos = (198,714);
},
{
name = top_right_can;
pos = (558,714);
}
);
shapes = (
{
closed = 1;
nodes = (
(238,0,l),
(623,701,l),
(626,714,l),
(136,714,l),
(133,701,l),
(220,0,l)
);
},
{
closed = 1;
nodes = (
(240,27,l),
(158,701,l),
(155,690,l),
(597,690,l),
(598,701,l),
(230,27,l)
);
}
);
};
color = 4;
layerId = "341CD669-D84F-4333-8BC8-F9777E6D3814";
shapes = (
{
closed = 1;
nodes = (
(238,0,l),
(623,701,l),
(626,714,l),
(136,714,l),
(133,701,l),
(220,0,l)
);
},
{
closed = 1;
nodes = (
(240,27,l),
(158,701,l),
(151,690,l),
(597,690,l),
(593,701,l),
(227,27,l)
);
}
);
width = 560;
},
{
anchors = (
{
name = middle_center_can;
pos = (352,470);
},
{
name = top_center_can;
pos = (404,714);
},
{
name = top_left_can;
pos = (219,714);
},
{
name = top_right_can;
pos = (589,714);
}
);
background = {
anchors = (
{
name = middle_center_can;
pos = (352,470);
},
{
name = top_center_can;
pos = (404,714);
},
{
name = top_left_can;
pos = (219,714);
},
{
name = top_right_can;
pos = (589,714);
}
);
shapes = (
{
closed = 1;
nodes = (
(274,0,l),
(687,671,l),
(696,714,l),
(108,714,l),
(99,671,l),
(226,0,l)
);
},
{
closed = 1;
nodes = (
(343,218,l),
(274,604,l),
(232,571,l),
(506,571,l),
(486,604,l),
(253,218,l)
);
}
);
};
color = 4;
layerId = "4DD67900-F9B0-4F36-BC45-F4B21129580C";
shapes = (
{
closed = 1;
nodes = (
(274,0,l),
(687,671,l),
(696,714,l),
(108,714,l),
(99,671,l),
(226,0,l)
);
},
{
closed = 1;
nodes = (
(335,196,l),
(273,604,l),
(231,571,l),
(505,571,l),
(468,604,l),
(236,196,l)
);
}
);
width = 610;
}
);
metricRight = "=|";
note = uni1401;
unicode = 5121;
},
{
color = 2;
glyphname = "i-canadian";
kernLeft = icanleft;
kernRight = icanright;
lastChange = "2022-11-21 12:02:06 +0000";
layers = (
{
anchors = (
{
name = middle_center_can;
pos = (441,470);
},
{
name = top_center_can;
pos = (493,714);
},
{
name = top_left_can;
pos = (236,714);
},
{
name = top_right_can;
pos = (751,714);
}
);
background = {
anchors = (
{
name = middle_center_can;
pos = (436,470);
},
{
name = top_center_can;
pos = (488,714);
},
{
name = top_left_can;
pos = (231,714);
},
{
name = top_right_can;
pos = (746,714);
}
);
shapes = (
{
closed = 1;
nodes = (
(689,0,l),
(692,13,l),
(506,714,l),
(481,714,l),
(-3,13,l),
(-6,0,l)
);
},
{
closed = 1;
nodes = (
(494,695,l),
(486,695,l),
(663,14,l),
(665,25,l),
(29,25,l),
(27,14,l)
);
}
);
};
color = 4;
layerId = m01;
shapes = (
{
alignment = -1;
angle = 180;
pos = (835,714);
ref = "e-canadian";
}
);
width = 785;
},
{
anchors = (
{
name = middle_center_can;
pos = (415,237);
},
{
name = top_center_can;
pos = (517,714);
},
{
name = top_left_can;
pos = (260,714);
},
{
name = top_right_can;
pos = (775,714);
}
);
background = {
anchors = (
{
name = middle_center_can;
pos = (415,237);
},
{
name = top_center_can;
pos = (517,714);
},
{
name = top_left_can;
pos = (260,714);
},
{
name = top_right_can;
pos = (775,714);
}
);
shapes = (
{
closed = 1;
nodes = (
(757,0,l),
(767,45,l),
(545,714,l),
(489,714,l),
(-17,45,l),
(-27,0,l)
);
},
{
closed = 1;
nodes = (
(482,462,l),
(436,462,l),
(550,116,l),
(582,155,l),
(214,155,l),
(222,116,l)
);
}
);
};
color = 4;
guides = (
{
angle = 118.5504;
pos = (521,116);
}
);
layerId = "A1461942-0433-4891-A171-8512F51D8C86";
shapes = (
{
alignment = -1;
angle = 180;
pos = (883,714);
ref = "e-canadian";
}
);
width = 840;
},
{
anchors = (
{
name = middle_center_can;
pos = (325,471);
},
{
name = top_center_can;
pos = (377,714);
},
{
name = top_left_can;
pos = (198,714);
},
{
name = top_right_can;
pos = (558,714);
}
);
background = {
anchors = (
{
name = middle_center_can;
pos = (325,471);
},
{
name = top_center_can;
pos = (377,714);
},
{
name = top_left_can;
pos = (198,714);
},
{
name = top_right_can;
pos = (558,714);
}
);
shapes = (
{
closed = 1;
nodes = (
(474,0,l),
(477,13,l),
(390,714,l),
(372,714,l),
(-13,13,l),
(-16,0,l)
);
},
{
closed = 1;
nodes = (
(380,687,l),
(370,687,l),
(452,13,l),
(455,24,l),
(13,24,l),
(12,13,l)
);
}
);
};
color = 4;
layerId = "341CD669-D84F-4333-8BC8-F9777E6D3814";
shapes = (
{
alignment = -1;
angle = 180;
pos = (610,714);
ref = "e-canadian";
}
);
width = 560;
},
{
anchors = (
{
name = middle_center_can;
pos = (301,251);
},
{
name = top_center_can;
pos = (400,714);
},
{
name = top_left_can;
pos = (215,714);
},
{
name = top_right_can;
pos = (585,714);
}
);
background = {
anchors = (
{
name = middle_center_can;
pos = (306,251);
},
{
name = top_center_can;
pos = (405,714);
},
{
name = top_left_can;
pos = (220,714);
},
{
name = top_right_can;
pos = (590,714);
}
);
shapes = (
{
closed = 1;
nodes = (
(545,0,l),
(554,43,l),
(427,714,l),
(379,714,l),
(-34,43,l),
(-43,0,l)
);
},
{
closed = 1;
nodes = (
(400,496,l),
(310,496,l),
(379,110,l),
(413,143,l),
(139,143,l),
(167,110,l)
);
}
);
};
color = 4;
layerId = "4DD67900-F9B0-4F36-BC45-F4B21129580C";
shapes = (
{
alignment = -1;
angle = 180;
pos = (653,714);
ref = "e-canadian";
}
);
width = 611;
}
);
metricLeft = "e-canadian";
metricRight = "e-canadian";
note = uni1403;
unicode = 5123;
},
{
color = 2;
glyphname = "o-canadian";
kernLeft = ocanleft;
kernRight = ocanright;
lastChange = "2022-11-22 14:36:25 +0000";
layers = (
{
anchors = (
{
name = middle_center_can;
pos = (336,357);
},
{
name = top_center_can;
pos = (514,714);
},
{
name = top_double;
pos = (597,714);
},
{
name = top_left_can;
pos = (214,714);
},
{
name = top_right_can;
pos = (797,714);
}
);
background = {
anchors = (
{
name = middle_center_can;
pos = (336,357);
},
{
name = top_center_can;
pos = (514,714);
},
{
name = top_double;
pos = (597,714);
},
{
name = top_left_can;
pos = (214,714);
},
{
name = top_right_can;
pos = (797,714);
}
);
shapes = (
{
closed = 1;
nodes = (
(60,0,l),
(747,347,l),
(751,367,l),
(212,714,l),
(199,714,l),
(47,0,l)
);
},
{
closed = 1;
nodes = (
(218,684,l),
(207,685,l),
(729,351,l),
(731,363,l),
(67,29,l),
(78,29,l)
);
}
);
};
color = 4;
layerId = m01;
shapes = (
{
closed = 1;
nodes = (
(62,0,l),
(748,345,l),
(753,368,l),
(214,714,l),
(201,714,l),
(49,0,l)
);
},
{
closed = 1;
nodes = (
(222,696,l),
(211,686,l),
(729,355,l),
(732,365,l),
(70,33,l),
(79,26,l)
);
}
);
width = 771;
},
{
anchors = (
{
name = middle_center_can;
pos = (335,380);
},
{
name = top_center_can;
pos = (495,714);
},
{
name = top_double;
pos = (623,714);
},
{
name = top_left_can;
pos = (250,714);
},
{
name = top_right_can;
pos = (753,714);
}
);
background = {
anchors = (
{
name = middle_center_can;
pos = (317,357);
},
{
name = top_center_can;
pos = (495,714);
},
{
name = top_double;
pos = (623,714);
},
{
name = top_left_can;
pos = (250,714);
},
{
name = top_right_can;
pos = (753,714);
}
);
shapes = (
{
closed = 1;
nodes = (
(60,0,l),
(740,329,l),
(752,385,l),
(212,714,l),
(167,714,l),
(15,0,l)
);
},
{
closed = 1;
nodes = (
(288,505,l),
(238,501,l),
(506,341,l),
(514,377,l),
(178,218,l),
(226,214,l)
);
}
);
};
color = 4;
guides = (
{
angle = 151.6601;
pos = (670,385);
},
{
angle = 28.3399;
pos = (426,373);
}
);
layerId = "A1461942-0433-4891-A171-8512F51D8C86";
shapes = (
{
closed = 1;
nodes = (
(60,0,l),
(740,329,l),
(752,385,l),
(212,714,l),
(167,714,l),
(15,0,l)
);
},
{
closed = 1;
nodes = (
(292,505,l),
(239,516,l),
(507,356,l),
(514,388,l),
(178,226,l),
(231,214,l)
);
}
);
width = 753;
},
{
anchors = (
{
name = middle_center_can;
pos = (275,357);
},
{
name = top_center_can;
pos = (396,714);
},
{
name = top_double;
pos = (467,714);
},
{
name = top_left_can;
pos = (188,714);
},
{
name = top_right_can;
pos = (593,714);
}
);
background = {
anchors = (
{
name = middle_center_can;
pos = (249,357);
},
{
name = top_center_can;
pos = (396,714);
},
{
name = top_double;
pos = (467,714);
},
{
name = top_left_can;
pos = (188,714);
},
{
name = top_right_can;
pos = (593,714);
}
);
shapes = (
{
closed = 1;
nodes = (
(35,0,l),
(538,348,l),
(542,366,l),
(187,714,l),
(176,714,l),
(24,0,l)
);
},
{
closed = 1;
nodes = (
(192,683,l),
(183,682,l),
(524,349,l),
(528,365,l),
(45,32,l),
(54,31,l)
);
}
);
};
color = 4;
layerId = "341CD669-D84F-4333-8BC8-F9777E6D3814";
shapes = (
{
closed = 1;
nodes = (
(35,0,l),
(538,348,l),
(542,366,l),
(187,714,l),
(176,714,l),
(24,0,l)
);
},
{
closed = 1;
nodes = (
(193,683,l),
(183,686,l),
(524,353,l),
(528,368,l),
(46,35,l),
(54,31,l)
);
}
);
width = 550;
},
{
anchors = (
{
name = middle_center_can;
pos = (272,369);
},
{
name = top_center_can;
pos = (377,714);
},
{
name = top_double;
pos = (482,714);
},
{
name = top_left_can;
pos = (206,714);
},
{
name = top_right_can;
pos = (566,714);
}
);
background = {
anchors = (
{
name = middle_center_can;
pos = (258,357);
},
{
name = top_center_can;
pos = (377,714);
},
{
name = top_double;
pos = (482,714);
},
{
name = top_left_can;
pos = (206,714);
},
{
name = top_right_can;
pos = (566,714);
}
);
shapes = (
{
closed = 1;
nodes = (
(26,0,l),
(554,330,l),
(566,384,l),
(178,714,l),
(137,714,l),
(-15,0,l)
);
},
{
closed = 1;
nodes = (
(241,511,l),
(201,488,l),
(398,320,l),
(414,397,l),
(145,228,l),
(175,203,l)
);
}
);
};
color = 4;
layerId = "4DD67900-F9B0-4F36-BC45-F4B21129580C";
shapes = (
{
closed = 1;
nodes = (
(26,0,l),
(554,330,l),
(566,384,l),
(178,714,l),
(137,714,l),
(-15,0,l)
);
},
{
closed = 1;
nodes = (
(241,511,l),
(172,535,l),
(395,347,l),
(384,380,l),
(113,209,l),
(175,203,l)
);
}
);
width = 562;
}
);
metricLeft = "nunavuth-canadian";
note = uni1405;
unicode = 5125;
},
{
color = 2;
glyphname = "eeCarrier-canadian";
lastChange = "2022-11-21 12:59:15 +0000";
layers = (
{
background = {
shapes = (
{
closed = 1;
nodes = (
(63,0,l),
(750,347,l),
(754,367,l),
(215,714,l),
(202,714,l),
(50,0,l)
);
},
{
closed = 1;
nodes = (
(220,684,l),
(210,685,l),
(732,351,l),
(734,363,l),
(70,29,l),
(81,29,l)
);
},
{
closed = 1;
nodes = (
(372,466,l),
(348,466,l),
(302,248,l),
(326,248,l)
);
}
);
};
color = 4;
layerId = m01;
shapes = (
{
closed = 1;
nodes = (
(326,248,l),
(372,466,l),
(348,466,l),
(302,248,l)
);
},
{
closed = 1;
nodes = (
(62,0,l),
(748,345,l),
(753,368,l),
(214,714,l),
(201,714,l),
(49,0,l)
);
},
{
closed = 1;
nodes = (
(222,696,l),
(211,686,l),
(729,355,l),
(732,365,l),
(70,33,l),
(79,26,l)
);
}
);
width = 771;
},
{
background = {
shapes = (
{
closed = 1;
nodes = (
(61,0,l),
(741,329,l),
(753,385,l),
(213,714,l),
(168,714,l),
(16,0,l)
);
},
{
closed = 1;
nodes = (
(289,505,l),
(239,501,l),
(507,341,l),
(515,377,l),
(179,218,l),
(227,214,l)
);
},
{
closed = 1;
nodes = (
(360,413,l),
(300,413,l),
(276,301,l),
(336,301,l)
);
}
);
};
color = 4;
layerId = "A1461942-0433-4891-A171-8512F51D8C86";
shapes = (
{
closed = 1;
nodes = (
(349,314,l),
(373,426,l),
(312,426,l),
(288,314,l)
);
},
{
closed = 1;
nodes = (
(60,0,l),
(740,329,l),
(752,385,l),
(212,714,l),
(167,714,l),
(15,0,l)
);
},
{
closed = 1;
nodes = (
(287,519,l),
(228,531,l),
(523,355,l),
(531,387,l),
(161,212,l),
(220,199,l)
);
}
);
width = 753;
},
{
background = {
shapes = (
{
closed = 1;
nodes = (
(35,0,l),
(538,348,l),
(542,366,l),
(187,714,l),
(176,714,l),
(24,0,l)
);
},
{
closed = 1;
nodes = (
(192,683,l),
(183,682,l),
(524,349,l),
(528,365,l),
(45,32,l),
(54,31,l)
);
},
{
closed = 1;
nodes = (
(283,466,l),
(261,466,l),
(215,248,l),
(237,248,l)
);
}
);
};
color = 4;
layerId = "341CD669-D84F-4333-8BC8-F9777E6D3814";
shapes = (
{
closed = 1;
nodes = (
(237,248,l),
(283,466,l),
(261,466,l),
(215,248,l)
);
},
{
closed = 1;
nodes = (
(35,0,l),
(538,348,l),
(542,366,l),
(187,714,l),
(176,714,l),
(24,0,l)
);
},
{
closed = 1;
nodes = (
(193,683,l),
(183,686,l),
(524,353,l),
(528,368,l),
(46,35,l),
(54,31,l)
);
}
);
width = 550;
},
{
background = {
shapes = (
{
closed = 1;
nodes = (
(26,0,l),
(554,330,l),
(566,384,l),
(178,714,l),
(137,714,l),
(-15,0,l)
);
},
{
closed = 1;
nodes = (
(226,511,l),
(204,503,l),
(401,335,l),
(411,382,l),
(142,213,l),
(160,203,l)
);
},
{
closed = 1;
nodes = (
(287,412,l),
(234,412,l),
(210,302,l),
(263,302,l)
);
}
);
};
color = 4;
layerId = "4DD67900-F9B0-4F36-BC45-F4B21129580C";
shapes = (
{
closed = 1;
nodes = (
(278,314,l),
(302,424,l),
(248,424,l),
(224,314,l)
);
},
{
closed = 1;
nodes = (
(26,0,l),
(554,330,l),
(566,384,l),
(178,714,l),
(137,714,l),
(-15,0,l)
);
},
{
closed = 1;
nodes = (
(238,541,l),
(157,568,l),
(424,340,l),
(410,381,l),
(85,177,l),
(158,168,l)
);
}
);
width = 562;
}
);
metricLeft = "nunavuth-canadian";
metricRight = "o-canadian";
note = uni1408;
unicode = 5128;
},
{
color = 2;
glyphname = "iCarrier-canadian";
lastChange = "2022-11-21 13:00:05 +0000";
layers = (
{
background = {
shapes = (
{
ref = "o-canadian";
},
{
anchor = middle_center_can;
pos = (309,0);
ref = dot_middle_optic_small;
}
);
};
color = 4;
layerId = m01;
shapes = (
{
closed = 1;
nodes = (
(62,0,l),
(748,345,l),
(753,368,l),
(214,714,l),
(201,714,l),
(49,0,l)
);
},
{
closed = 1;
nodes = (
(222,696,l),
(211,686,l),
(729,355,l),
(732,365,l),
(70,33,l),
(79,26,l)
);
},
{
closed = 1;
nodes = (
(365,327,o),
(379,341,o),
(379,360,cs),
(379,379,o),
(365,393,o),
(346,393,cs),
(327,393,o),
(313,379,o),
(313,360,cs),
(313,341,o),
(327,327,o),
(346,327,cs)
);
}
);
width = 771;
},
{
background = {
shapes = (
{
ref = "o-canadian";
},
{
anchor = middle_center_can;
pos = (281,0);
ref = dot_middle_optic_small;
}
);
};
color = 4;
layerId = "A1461942-0433-4891-A171-8512F51D8C86";
shapes = (
{
closed = 1;
nodes = (
(60,0,l),
(740,329,l),
(752,385,l),
(212,714,l),
(167,714,l),
(15,0,l)
);
},
{
closed = 1;
nodes = (
(287,519,l),
(228,531,l),
(523,355,l),
(531,387,l),
(161,212,l),
(220,199,l)
);
},
{
closed = 1;
nodes = (
(363,323,o),
(385,345,o),
(385,373,cs),
(385,401,o),
(363,423,o),
(335,423,cs),
(307,423,o),
(285,401,o),
(285,373,cs),
(285,345,o),
(307,323,o),
(335,323,cs)
);
}
);
width = 753;
},
{
background = {
shapes = (
{
ref = "o-canadian";
},
{
anchor = middle_center_can;
pos = (225,0);
ref = dot_middle_optic_small;
}
);
};
color = 4;
layerId = "341CD669-D84F-4333-8BC8-F9777E6D3814";
shapes = (
{
closed = 1;
nodes = (
(35,0,l),
(538,348,l),
(542,366,l),
(187,714,l),
(176,714,l),
(24,0,l)
);
},
{
closed = 1;
nodes = (
(193,683,l),
(183,686,l),
(524,353,l),
(528,368,l),
(46,35,l),
(54,31,l)
);
},
{
closed = 1;
nodes = (
(292,327,o),
(305,340,o),
(305,357,cs),
(305,374,o),
(292,387,o),
(275,387,cs),
(258,387,o),
(245,374,o),
(245,357,cs),
(245,340,o),
(258,327,o),
(275,327,cs)
);
}
);
width = 550;
},
{
background = {
shapes = (
{
ref = "o-canadian";
},
{
anchor = middle_center_can;
pos = (238,0);
ref = dot_middle_optic_small;
}
);
};
color = 4;
layerId = "4DD67900-F9B0-4F36-BC45-F4B21129580C";
shapes = (
{
closed = 1;
nodes = (
(26,0,l),
(554,330,l),
(566,384,l),
(178,714,l),
(137,714,l),
(-15,0,l)
);
},
{
closed = 1;
nodes = (
(238,541,l),
(157,568,l),
(424,340,l),
(410,381,l),
(85,177,l),
(158,168,l)
);
},
{
closed = 1;
nodes = (
(291,329,o),
(309,347,o),
(309,369,cs),
(309,391,o),
(291,409,o),
(268,409,cs),
(246,409,o),
(229,391,o),
(229,369,cs),
(229,347,o),
(246,329,o),
(268,329,cs)
);
}
);
width = 562;
}
);
note = uni1409;
unicode = 5129;
},
{
color = 2;
glyphname = "a-canadian";
kernLeft = acanleft;
kernRight = acanright;
lastChange = "2022-11-21 12:57:42 +0000";
layers = (
{
anchors = (
{
name = middle_center_can;
pos = (475,357);
},
{
name = top_center_can;
pos = (459,714);
},
{
name = top_left_can;
pos = (159,714);
},
{
name = top_right_can;
pos = (760,714);
}
);
background = {
anchors = (
{
name = middle_center_can;
pos = (475,357);
},
{
name = top_center_can;
pos = (459,714);
},
{
name = top_left_can;
pos = (159,714);
},
{
name = top_right_can;
pos = (760,714);
}
);
shapes = (
{
closed = 1;
nodes = (
(620,0,l),
(772,714,l),
(759,714,l),
(72,367,l),
(68,347,l),
(607,0,l)
);
},
{
closed = 1;
nodes = (
(611,28,l),
(90,363,l),
(88,351,l),
(750,685,l),
(741,685,l),
(601,28,l)
);
}
);
};
color = 4;
layerId = m01;
shapes = (
{
alignment = -1;
angle = 180;
pos = (821,714);
ref = "o-canadian";
}
);
width = 771;
},
{
anchors = (
{
name = middle_center_can;
pos = (448,345);
},
{
name = top_center_can;
pos = (453,714);
},
{
name = top_left_can;
pos = (208,714);
},
{
name = top_right_can;
pos = (697,714);
}
);
background = {
anchors = (
{
name = middle_center_can;
pos = (478,357);
},
{
name = top_center_can;
pos = (453,714);
},
{
name = top_left_can;
pos = (208,714);
},
{
name = top_right_can;
pos = (697,714);
}
);
shapes = (
{
closed = 1;
nodes = (
(628,0,l),
(780,714,l),
(735,714,l),
(55,385,l),
(43,329,l),
(583,0,l)
);
},
{
closed = 1;
nodes = (
(557,218,l),
(289,377,l),
(282,341,l),
(617,500,l),
(569,504,l),
(508,214,l)
);
}
);
};
color = 4;
layerId = "A1461942-0433-4891-A171-8512F51D8C86";
shapes = (
{
alignment = -1;
angle = 180;
pos = (795,714);
ref = "o-canadian";
}
);
width = 753;
},
{
anchors = (
{
name = middle_center_can;
pos = (344,357);
},
{
name = top_center_can;
pos = (355,714);
},
{
name = top_left_can;
pos = (147,714);
},
{
name = top_right_can;
pos = (563,714);
}
);
background = {
anchors = (
{
name = middle_center_can;
pos = (344,357);
},
{
name = top_center_can;
pos = (355,714);
},
{
name = top_left_can;
pos = (147,714);
},
{
name = top_right_can;
pos = (563,714);
}
);
shapes = (
{
closed = 1;
nodes = (
(423,0,l),
(575,714,l),
(564,714,l),
(61,366,l),
(57,348,l),
(412,0,l)
);
},
{
closed = 1;
nodes = (
(416,32,l),
(75,365,l),
(71,349,l),
(554,682,l),
(545,683,l),
(407,31,l)
);
}
);
};
color = 4;
guides = (
{
angle = 209.5128;
pos = (15,350);
},
{
angle = -29.5128;
pos = (15,363);
}
);
layerId = "341CD669-D84F-4333-8BC8-F9777E6D3814";
shapes = (
{
alignment = -1;
angle = 180;
pos = (599,714);
ref = "o-canadian";
}
);
width = 549;
},
{
anchors = (
{
name = middle_center_can;
pos = (329,345);
},
{
name = top_center_can;
pos = (330,714);
},
{
name = top_left_can;
pos = (208,714);
},
{
name = top_right_can;
pos = (541,714);
}
);
background = {
anchors = (
{
name = middle_center_can;
pos = (346,357);
},
{
name = top_center_can;
pos = (330,714);
},
{
name = top_left_can;
pos = (208,714);
},
{
name = top_right_can;
pos = (541,714);
}
);
shapes = (
{
closed = 1;
nodes = (
(467,0,l),
(619,714,l),
(578,714,l),
(49,384,l),
(38,330,l),
(426,0,l)
);
},
{
closed = 1;
nodes = (
(403,226,l),
(206,394,l),
(189,317,l),
(458,486,l),
(428,511,l),
(363,203,l)
);
}
);
};
color = 4;
guides = (
{
angle = 208.3399;
pos = (239,345);
},
{
angle = -28.3399;
pos = (239,373);
}
);
layerId = "4DD67900-F9B0-4F36-BC45-F4B21129580C";
shapes = (
{
alignment = -1;
angle = 180;
pos = (604,714);
ref = "o-canadian";
}
);
width = 562;
}
);
metricRight = "nunavuth-canadian";
note = uni140A;
unicode = 5130;
},
{
color = 2;
glyphname = "ai-canadian";
lastChange = "2022-11-20 11:21:22 +0000";
layers = (
{
background = {
shapes = (
{
closed = 1;
nodes = (
(329,351,o),
(388,394,o),
(418,476,c),
(406,476,l),
(404,395,o),
(445,351,o),
(520,351,cs),
(608,351,o),
(676,409,o),
(699,516,cs),
(741,714,l),
(717,714,l),
(674,515,ls),
(653,416,o),
(599,373,o),
(524,373,cs),
(451,373,o),
(412,418,o),
(433,514,cs),
(476,714,l),
(452,714,l),
(409,515,ls),
(388,416,o),
(333,373,o),
(258,373,cs),
(185,373,o),
(147,418,o),
(168,514,cs),
(211,714,l),
(187,714,l),
(144,513,ls),
(122,409,o),
(168,351,o),
(254,351,cs)
);
}
);
};
color = 4;
layerId = m01;
shapes = (
{
closed = 1;
nodes = (
(345,351,o),
(389,392,o),
(418,476,c),
(408,477,l),
(404,394,o),
(445,351,o),
(529,351,cs),
(621,351,o),
(674,402,o),
(698,513,cs),
(741,714,l),
(716,714,l),
(674,515,ls),
(653,414,o),
(610,373,o),
(527,373,cs),
(443,373,o),
(413,418,o),
(433,513,cs),
(476,714,l),
(451,714,l),
(409,516,ls),
(388,419,o),
(345,373,o),
(263,373,cs),
(189,373,o),
(147,413,o),
(168,513,cs),
(211,714,l),
(186,714,l),
(144,515,ls),
(121,406,o),
(176,351,o),
(266,351,cs)
);
}
);
width = 725;
},
{
background = {
shapes = (
{
closed = 1;
nodes = (
(311,351,o),
(360,371,o),
(401,416,c),
(362,416,l),
(381,371,o),
(423,351,o),
(482,351,cs),
(590,351,o),
(668,419,o),
(692,531,cs),
(731,714,l),
(606,714,l),
(567,531,ls),
(557,485,o),
(537,464,o),
(503,464,cs),
(468,464,o),
(458,488,o),
(467,531,cs),
(506,714,l),
(382,714,l),
(343,531,ls),
(333,485,o),
(312,464,o),
(278,464,cs),
(243,464,o),
(234,488,o),
(243,531,cs),
(282,714,l),
(157,714,l),
(118,531,ls),
(94,417,o),
(145,351,o),
(253,351,cs)
);
}
);
};
color = 4;
layerId = "A1461942-0433-4891-A171-8512F51D8C86";
shapes = (
{
closed = 1;
nodes = (
(320,351,o),
(360,370,o),
(398,416,c),
(367,416,l),
(384,373,o),
(427,351,o),
(494,351,cs),
(607,351,o),
(665,404,o),
(692,531,cs),
(731,714,l),
(603,714,l),
(562,521,ls),
(553,481,o),
(536,464,o),
(504,464,cs),
(470,464,o),
(457,483,o),
(465,519,cs),
(507,714,l),
(380,714,l),
(339,521,ls),
(330,480,o),
(314,464,o),
(282,464,cs),
(248,464,o),
(235,483,o),
(243,519,cs),
(285,714,l),
(157,714,l),
(119,536,ls),
(95,424,o),
(151,351,o),
(263,351,cs)
);
}
);
width = 694;
},
{
background = {
shapes = (
{
closed = 1;
nodes = (
(238,351,o),
(281,388,o),
(302,447,c),
(295,447,l),
(293,385,o),
(323,351,o),
(373,351,cs),
(430,351,o),
(483,389,o),
(506,496,cs),
(552,714,l),
(530,714,l),
(483,495,ls),
(462,396,o),
(419,373,o),
(375,373,cs),
(323,373,o),
(302,409,o),
(320,494,cs),
(367,714,l),
(345,714,l),
(298,495,ls),
(277,396,o),
(234,373,o),
(190,373,cs),
(138,373,o),
(118,409,o),
(136,494,cs),
(183,714,l),
(161,714,l),
(114,493,ls),
(92,389,o),
(129,351,o),
(185,351,cs)
);
}
);
};
color = 4;
layerId = "341CD669-D84F-4333-8BC8-F9777E6D3814";
shapes = (
{
closed = 1;
nodes = (
(243,351,o),
(288,386,o),
(302,447,c),
(295,447,l),
(290,386,o),
(321,351,o),
(380,351,cs),
(444,351,o),
(483,393,o),
(502,483,cs),
(551,714,l),
(529,714,l),
(479,482,ls),
(462,403,o),
(436,373,o),
(382,373,cs),
(320,373,o),
(301,412,o),
(316,481,cs),
(367,714,l),
(345,714,l),
(297,487,ls),
(281,411,o),
(248,373,o),
(194,373,cs),
(142,373,o),
(118,408,o),
(132,474,cs),
(184,714,l),
(161,714,l),
(110,473,ls),
(95,401,o),
(129,351,o),
(191,351,cs)
);
}
);
width = 510;
},
{
background = {
shapes = (
{
closed = 1;
nodes = (
(228,351,o),
(258,368,o),
(299,416,c),
(264,416,l),
(281,367,o),
(306,351,o),
(352,351,cs),
(431,351,o),
(490,400,o),
(511,500,cs),
(556,714,l),
(446,714,l),
(402,504,ls),
(394,466,o),
(384,455,o),
(367,455,cs),
(349,455,o),
(346,471,o),
(353,504,cs),
(397,714,l),
(289,714,l),
(245,504,ls),
(237,468,o),
(227,455,o),
(209,455,cs),
(192,455,o),
(190,471,o),
(197,504,cs),
(241,714,l),
(131,714,l),
(86,500,ls),
(64,395,o),
(108,351,o),
(182,351,cs)
);
}
);
};
color = 4;
layerId = "4DD67900-F9B0-4F36-BC45-F4B21129580C";
shapes = (
{
closed = 1;
nodes = (
(227,351,o),
(266,367,o),
(297,415,c),
(264,415,l),
(280,367,o),
(319,351,o),
(367,351,cs),
(449,351,o),
(490,399,o),
(509,488,cs),
(557,714,l),
(445,714,l),
(395,481,ls),
(391,463,o),
(383,455,o),
(369,455,cs),
(355,455,o),
(347,463,o),
(351,483,cs),
(400,714,l),
(290,714,l),
(240,481,ls),
(236,463,o),
(228,455,o),
(214,455,cs),
(200,455,o),
(192,463,o),
(196,483,cs),
(245,714,l),
(132,714,l),
(85,486,ls),
(66,397,o),
(119,351,o),
(187,351,cs)
);
}
);
width = 495;
}
);
metricRight = "=|";
note = uni141C;
unicode = 5148;
},
{
color = 11;
glyphname = "ycreew-canadian";
lastChange = "2022-11-29 22:03:29 +0000";
layers = (
{
background = {
shapes = (
{
closed = 1;
nodes = (
(455,528,o),
(512,584,o),
(512,645,cs),
(512,688,o),
(482,720,o),
(435,720,cs),
(373,720,o),
(316,664,o),
(316,603,cs),
(316,560,o),
(347,528,o),
(393,528,cs)
);
},
{
closed = 1;
nodes = (
(249,351,o),
(307,407,o),
(307,468,cs),
(307,512,o),
(276,543,o),
(230,543,cs),
(168,543,o),
(110,487,o),
(110,426,cs),
(110,383,o),
(142,351,o),
(188,351,cs)
);
},
{
closed = 1;
nodes = (
(155,372,o),
(132,398,o),
(132,430,cs),
(132,478,o),
(176,522,o),
(224,522,cs),
(261,522,o),
(284,497,o),
(284,464,cs),
(284,416,o),
(240,372,o),
(192,372,cs)
);
},
{
closed = 1;
nodes = (
(361,549,o),
(338,574,o),
(338,607,cs),
(338,655,o),
(382,699,o),
(430,699,cs),
(467,699,o),
(490,673,o),
(490,641,cs),
(490,593,o),
(446,549,o),
(398,549,cs)
);
}
);
};
color = 4;
layerId = m01;
shapes = (
{
closed = 1;
nodes = (
(467,528,o),
(510,570,o),
(510,624,cs),
(510,678,o),
(469,720,o),
(415,720,cs),
(361,720,o),
(318,678,o),
(318,624,cs),
(318,570,o),
(361,528,o),
(414,528,cs)
);
},
{
closed = 1;
nodes = (
(262,351,o),
(305,393,o),
(305,447,cs),
(305,501,o),
(264,543,o),
(210,543,cs),
(156,543,o),
(113,501,o),
(113,447,cs),
(113,393,o),
(156,351,o),
(209,351,cs)
);
},
{
closed = 1;
nodes = (
(166,372,o),
(135,406,o),
(135,447,cs),
(135,488,o),
(166,522,o),
(209,522,cs),
(252,522,o),
(283,488,o),
(283,447,cs),
(283,406,o),
(252,372,o),
(209,372,cs)
);
},
{
closed = 1;
nodes = (
(371,549,o),
(340,583,o),
(340,624,cs),
(340,665,o),
(371,699,o),
(414,699,cs),
(457,699,o),
(488,665,o),
(488,624,cs),
(488,583,o),
(457,549,o),
(414,549,cs)
);
}
);
width = 498;
},
{
background = {
shapes = (
{
closed = 1;
nodes = (
(433,528,o),
(489,583,o),
(489,646,cs),
(489,690,o),
(457,720,o),
(408,720,cs),
(343,720,o),
(287,666,o),
(287,603,cs),
(287,558,o),
(318,528,o),
(367,528,cs)
);
},
{
closed = 1;
nodes = (
(217,351,o),
(274,406,o),
(274,469,cs),
(274,513,o),
(242,543,o),
(193,543,cs),
(127,543,o),
(71,489,o),
(71,426,cs),
(71,382,o),
(102,351,o),
(152,351,cs)
);
},
{
closed = 1;
nodes = (
(147,410,o),
(137,422,o),
(137,438,cs),
(137,463,o),
(157,484,o),
(180,484,cs),
(197,484,o),
(207,472,o),
(207,457,cs),
(207,433,o),
(187,410,o),
(164,410,cs)
);
},
{
closed = 1;
nodes = (
(362,587,o),
(353,599,o),
(353,615,cs),
(353,640,o),
(373,661,o),
(396,661,cs),
(413,661,o),
(423,649,o),
(423,634,cs),
(423,610,o),
(402,587,o),
(380,587,cs)
);
}
);
};
color = 4;
layerId = "A1461942-0433-4891-A171-8512F51D8C86";
shapes = (
{
closed = 1;
nodes = (
(445,528,o),
(486,569,o),
(486,625,cs),
(486,680,o),
(444,720,o),
(387,720,cs),
(330,720,o),
(288,680,o),
(288,625,cs),
(288,569,o),
(329,528,o),
(387,528,cs)
);
},
{
closed = 1;
nodes = (
(230,351,o),
(271,392,o),
(271,448,cs),
(271,503,o),
(229,543,o),
(172,543,cs),
(115,543,o),
(73,503,o),
(73,448,cs),
(73,392,o),
(114,351,o),
(172,351,cs)
);
},
{
closed = 1;
nodes = (
(151,410,o),
(138,427,o),
(138,448,cs),
(138,468,o),
(151,484,o),
(172,484,cs),
(192,484,o),
(206,468,o),
(206,448,cs),
(206,427,o),
(192,410,o),
(172,410,cs)
);
},
{
closed = 1;
nodes = (
(365,587,o),
(353,604,o),
(353,625,cs),
(353,645,o),
(366,661,o),
(387,661,cs),
(407,661,o),
(421,645,o),
(421,625,cs),
(421,604,o),
(407,587,o),
(387,587,cs)
);
}
);
width = 440;
},
{
background = {
shapes = (
{
closed = 1;
nodes = (
(341,528,o),
(383,589,o),
(383,658,cs),
(383,697,o),
(364,720,o),
(332,720,cs),
(282,720,o),
(240,659,o),
(240,590,cs),
(240,551,o),
(259,528,o),
(291,528,cs)
);
},
{
closed = 1;
nodes = (
(186,351,o),
(229,411,o),
(229,481,cs),
(229,520,o),
(210,543,o),
(177,543,cs),
(128,543,o),
(85,483,o),
(85,413,cs),
(85,374,o),
(104,351,o),
(136,351,cs)
);
},
{
closed = 1;
nodes = (
(118,371,o),
(106,386,o),
(106,415,cs),
(106,473,o),
(137,523,o),
(173,523,cs),
(196,523,o),
(208,507,o),
(208,479,cs),
(208,421,o),
(177,371,o),
(141,371,cs)
);
},
{
closed = 1;
nodes = (
(273,548,o),
(261,563,o),
(261,592,cs),
(261,649,o),
(291,700,o),
(328,700,cs),
(350,700,o),
(362,685,o),
(362,656,cs),
(362,599,o),
(332,548,o),
(295,548,cs)
);
}
);
};
color = 4;
layerId = "341CD669-D84F-4333-8BC8-F9777E6D3814";
shapes = (
{
closed = 1;
nodes = (
(352,528,o),
(379,564,o),
(379,624,cs),
(379,684,o),
(352,720,o),
(311,720,cs),
(270,720,o),
(243,684,o),
(243,624,cs),
(243,564,o),
(270,528,o),
(311,528,cs)
);
},
{
closed = 1;
nodes = (
(197,351,o),
(224,387,o),
(224,447,cs),
(224,507,o),
(197,543,o),
(156,543,cs),
(115,543,o),
(88,507,o),
(88,447,cs),
(88,387,o),
(115,351,o),
(156,351,cs)
);
},
{
closed = 1;
nodes = (
(126,371,o),
(109,397,o),
(109,447,cs),
(109,497,o),
(126,523,o),
(156,523,cs),
(186,523,o),
(203,497,o),
(203,447,cs),
(203,397,o),
(186,371,o),
(156,371,cs)
);
},
{
closed = 1;
nodes = (
(281,548,o),
(264,574,o),
(264,624,cs),
(264,674,o),
(281,700,o),
(311,700,cs),
(341,700,o),
(358,674,o),
(358,624,cs),
(358,574,o),
(341,548,o),
(311,548,cs)
);
}
);
width = 341;
},
{
background = {
shapes = (
{
closed = 1;
nodes = (
(332,528,o),
(377,587,o),
(377,656,cs),
(377,697,o),
(355,720,o),
(322,720,cs),
(270,720,o),
(226,662,o),
(226,592,cs),
(226,552,o),
(246,528,o),
(281,528,cs)
);
},
{
closed = 1;
nodes = (
(164,351,o),
(208,411,o),
(208,479,cs),
(208,520,o),
(186,543,o),
(153,543,cs),
(101,543,o),
(57,485,o),
(57,415,cs),
(57,374,o),
(78,351,o),
(112,351,cs)
);
},
{
closed = 1;
nodes = (
(117,406,o),
(113,411,o),
(113,424,cs),
(113,455,o),
(127,488,o),
(141,488,cs),
(148,488,o),
(153,484,o),
(153,471,cs),
(153,441,o),
(138,406,o),
(124,406,cs)
);
},
{
closed = 1;
nodes = (
(286,583,o),
(281,588,o),
(281,601,cs),
(281,633,o),
(296,665,o),
(310,665,cs),
(317,665,o),
(321,661,o),
(321,648,cs),
(321,617,o),
(306,583,o),
(292,583,cs)
);
}
);
};
color = 4;
layerId = "4DD67900-F9B0-4F36-BC45-F4B21129580C";
shapes = (
{
closed = 1;
nodes = (
(344,528,o),
(373,564,o),
(373,625,cs),
(373,686,o),
(342,720,o),
(301,720,cs),
(259,720,o),
(229,686,o),
(229,625,cs),
(229,564,o),
(258,528,o),
(301,528,cs)
);
},
{
closed = 1;
nodes = (
(176,351,o),
(205,387,o),
(205,448,cs),
(205,509,o),
(174,543,o),
(133,543,cs),
(91,543,o),
(61,509,o),
(61,448,cs),
(61,387,o),
(90,351,o),
(133,351,cs)
);
},
{
closed = 1;
nodes = (
(123,406,o),
(116,416,o),
(116,448,cs),
(116,480,o),
(123,488,o),
(133,488,cs),
(143,488,o),
(150,480,o),
(150,448,cs),
(150,416,o),
(143,406,o),
(133,406,cs)
);
},
{
closed = 1;
nodes = (
(291,583,o),
(284,593,o),
(284,625,cs),
(284,657,o),
(291,665,o),
(301,665,cs),
(311,665,o),
(318,657,o),
(318,625,cs),
(318,593,o),
(311,583,o),
(301,583,cs)
);
}
);
width = 316;
}
);
metricRight = "=|";
note = uni141D;
unicode = 5149;
},
{
color = 2;
glyphname = "glottalstop-canadian";
lastChange = "2022-12-01 22:19:42 +0000";
layers = (
{
background = {
shapes = (
{
closed = 1;
nodes = (
(453,357,l),
(455,366,l),
(362,714,l),
(348,714,l),
(107,366,l),
(105,357,l)
);
},
{
closed = 1;
nodes = (
(362,700,l),
(342,700,l),
(431,364,l),
(442,378,l),
(124,378,l),
(129,364,l)
);
}
);
};
color = 4;
layerId = m01;
shapes = (
{
closed = 1;
nodes = (
(453,357,l),
(455,366,l),
(362,714,l),
(348,714,l),
(107,366,l),
(105,357,l)
);
},
{
closed = 1;
nodes = (
(364,700,l),
(344,700,l),
(433,364,l),
(443,378,l),
(125,378,l),
(132,364,l)
);
}
);
width = 508;
},
{
background = {
shapes = (
{
closed = 1;
nodes = (
(453,357,l),
(458,380,l),
(347,714,l),
(319,714,l),
(66,380,l),
(61,357,l)
);
},
{
closed = 1;
nodes = (
(332,588,l),
(277,588,l),
(333,415,l),
(369,452,l),
(185,452,l),
(201,415,l)
);
}
);
};
color = 4;
layerId = "A1461942-0433-4891-A171-8512F51D8C86";
shapes = (
{
closed = 1;
nodes = (
(453,357,l),
(458,380,l),
(347,714,l),
(319,714,l),
(66,380,l),
(61,357,l)
);
},
{
closed = 1;
nodes = (
(341,588,l),
(285,588,l),
(340,415,l),
(368,452,l),
(184,452,l),
(212,415,l)
);
}
);
width = 472;
},
{
background = {
shapes = (
{
closed = 1;
nodes = (
(327,357,l),
(329,366,l),
(286,714,l),
(276,714,l),
(84,366,l),
(82,357,l)
);
},
{
closed = 1;
nodes = (
(283,691,l),
(269,691,l),
(307,364,l),
(318,379,l),
(101,379,l),
(104,364,l)
);
}
);
};
color = 4;
layerId = "341CD669-D84F-4333-8BC8-F9777E6D3814";
shapes = (
{
closed = 1;
nodes = (
(327,357,l),
(329,366,l),
(286,714,l),
(276,714,l),
(84,366,l),
(82,357,l)
);
},
{
closed = 1;
nodes = (
(284,691,l),
(269,691,l),
(308,364,l),
(318,378,l),
(101,378,l),
(106,364,l)
);
}
);
width = 359;
},
{
background = {
shapes = (
{
closed = 1;
nodes = (
(343,357,l),
(348,379,l),
(284,714,l),
(260,714,l),
(54,379,l),
(49,357,l)
);
},
{
closed = 1;
nodes = (
(273,595,l),
(222,595,l),
(251,412,l),
(271,442,l),
(160,442,l),
(165,412,l)
);
}
);
};
color = 4;
layerId = "4DD67900-F9B0-4F36-BC45-F4B21129580C";
shapes = (
{
closed = 1;
nodes = (
(343,357,l),
(348,379,l),
(284,714,l),
(260,714,l),
(54,379,l),
(49,357,l)
);
},
{
closed = 1;
nodes = (
(275,595,l),
(224,595,l),
(253,412,l),
(273,442,l),
(162,442,l),
(167,412,l)
);
}
);
width = 350;
}
);
metricRight = "=|";
note = uni141E;
unicode = 5150;
},
{
color = 2;
glyphname = "pe-canadian";
kernLeft = ecanleft;
kernRight = ecanright;
lastChange = "2022-11-21 12:01:41 +0000";
layers = (
{
anchors = (
{
name = middle_center_can;
pos = (436,470);
},
{
name = top_center_can;
pos = (488,714);
},
{
name = top_left_can;
pos = (231,714);
},
{
name = top_right_can;
pos = (746,714);
}
);
background = {
anchors = (
{
name = middle_center_can;
pos = (436,470);
},
{
name = top_center_can;
pos = (488,714);
},
{
name = top_left_can;
pos = (231,714);
},
{
name = top_right_can;
pos = (746,714);
}
);
shapes = (
{
closed = 1;
nodes = (
(354,0,l),
(838,701,l),
(841,714,l),
(818,714,l),
(342,19,l),
(349,19,l),
(169,714,l),
(146,714,l),
(143,701,l),
(329,0,l)
);
}
);
};
color = 4;
layerId = m01;
shapes = (
{
closed = 1;
nodes = (
(354,0,l),
(838,701,l),
(841,714,l),
(814,714,l),
(338,19,l),
(349,19,l),
(167,714,l),
(146,714,l),
(143,701,l),
(329,0,l)
);
}
);
width = 785;
},
{
anchors = (
{
name = middle_center_can;
pos = (466,470);
},
{
name = top_center_can;
pos = (518,714);
},
{
name = top_left_can;
pos = (261,714);
},
{
name = top_right_can;
pos = (776,714);
}
);
background = {
anchors = (
{
name = middle_center_can;
pos = (466,470);
},
{
name = top_center_can;
pos = (518,714);
},
{
name = top_left_can;
pos = (261,714);
},
{
name = top_right_can;
pos = (776,714);
}
);
shapes = (
{
closed = 1;
nodes = (
(394,0,l),
(900,669,l),
(910,714,l),
(727,714,l),
(374,242,l),
(469,242,l),
(322,714,l),
(126,714,l),
(116,669,l),
(338,0,l)
);
}
);
};
color = 4;
layerId = "A1461942-0433-4891-A171-8512F51D8C86";
shapes = (
{
closed = 1;
nodes = (
(394,0,l),
(900,669,l),
(910,714,l),
(704,714,l),
(352,242,l),
(453,242,l),
(306,714,l),
(126,714,l),
(116,669,l),
(338,0,l)
);
}
);
width = 841;
},
{
anchors = (
{
name = middle_center_can;
pos = (325,470);
},
{
name = top_center_can;
pos = (377,714);
},
{
name = top_left_can;
pos = (198,714);
},
{
name = top_right_can;
pos = (558,714);
}
);
background = {
anchors = (
{
name = middle_center_can;
pos = (325,470);
},
{
name = top_center_can;
pos = (377,714);
},
{
name = top_left_can;
pos = (198,714);
},
{
name = top_right_can;
pos = (558,714);
}
);
shapes = (
{
closed = 1;
nodes = (
(238,0,l),
(623,701,l),
(626,714,l),
(604,714,l),
(230,27,l),
(240,27,l),
(158,714,l),
(136,714,l),
(133,701,l),
(220,0,l)
);
}
);
};
color = 4;
layerId = "341CD669-D84F-4333-8BC8-F9777E6D3814";
shapes = (
{
closed = 1;
nodes = (
(238,0,l),
(623,701,l),
(626,714,l),
(600,714,l),
(226,27,l),
(240,27,l),
(157,714,l),
(136,714,l),
(133,701,l),
(220,0,l)
);
}
);
width = 560;
},
{
anchors = (
{
name = middle_center_can;
pos = (342,470);
},
{
name = top_center_can;
pos = (404,714);
},
{
name = top_left_can;
pos = (219,714);
},
{
name = top_right_can;
pos = (589,714);
}
);
background = {
anchors = (
{
name = middle_center_can;
pos = (352,470);
},
{
name = top_center_can;
pos = (404,714);
},
{
name = top_left_can;
pos = (219,714);
},
{
name = top_right_can;
pos = (589,714);
}
);
shapes = (
{
closed = 1;
nodes = (
(274,0,l),
(687,671,l),
(696,714,l),
(536,714,l),
(235,212,l),
(361,212,l),
(272,714,l),
(108,714,l),
(99,671,l),
(226,0,l)
);
}
);
};
color = 4;
layerId = "4DD67900-F9B0-4F36-BC45-F4B21129580C";
shapes = (
{
closed = 1;
nodes = (
(274,0,l),
(687,671,l),
(696,714,l),
(522,714,l),
(221,212,l),
(352,212,l),
(263,714,l),
(108,714,l),
(99,671,l),
(226,0,l)
);
}
);
width = 610;
}
);
metricLeft = "e-canadian";
metricRight = "e-canadian";
note = uni142F;
unicode = 5167;
},
{
color = 2;
glyphname = "pi-canadian";
kernLeft = icanleft;
kernRight = icanright;
lastChange = "2022-11-21 11:57:50 +0000";
layers = (
{
anchors = (
{
name = middle_center_can;
pos = (436,470);
},
{
name = top_center_can;
pos = (488,714);
},
{
name = top_left_can;
pos = (231,714);
},
{
name = top_right_can;
pos = (746,714);
}
);
background = {
anchors = (
{
name = middle_center_can;
pos = (436,470);
},
{
name = top_center_can;
pos = (488,714);
},
{
name = top_left_can;
pos = (231,714);
},
{
name = top_right_can;
pos = (746,714);
}
);
shapes = (
{
closed = 1;
nodes = (
(17,0,l),
(493,695,l),
(486,695,l),
(666,0,l),
(689,0,l),
(692,13,l),
(506,714,l),
(481,714,l),
(-3,13,l),
(-6,0,l)
);
}
);
};
color = 4;
layerId = m01;
shapes = (
{
alignment = -1;
angle = 180;
pos = (835,714);
ref = "pe-canadian";
}
);
width = 785;
},
{
anchors = (
{
name = middle_center_can;
pos = (415,237);
},
{
name = top_center_can;
pos = (517,714);
},
{
name = top_left_can;
pos = (260,714);
},
{
name = top_right_can;
pos = (775,714);
}
);
background = {
anchors = (
{
name = middle_center_can;
pos = (415,237);
},
{
name = top_center_can;
pos = (517,714);
},
{
name = top_left_can;
pos = (260,714);
},
{
name = top_right_can;
pos = (775,714);
}
);
shapes = (
{
closed = 1;
nodes = (
(159,0,l),
(514,472,l),
(417,472,l),
(564,0,l),
(757,0,l),
(767,45,l),
(545,714,l),
(489,714,l),
(-17,45,l),
(-27,0,l)
);
}
);
};
color = 4;
layerId = "A1461942-0433-4891-A171-8512F51D8C86";
shapes = (
{
alignment = -1;
angle = 180;
pos = (883,714);
ref = "pe-canadian";
}
);
width = 839;
},
{
anchors = (
{
name = middle_center_can;
pos = (325,471);
},
{
name = top_center_can;
pos = (377,714);
},
{
name = top_left_can;
pos = (198,714);
},
{
name = top_right_can;
pos = (558,714);
}
);
background = {
anchors = (
{
name = middle_center_can;
pos = (325,471);
},
{
name = top_center_can;
pos = (377,714);
},
{
name = top_left_can;
pos = (198,714);
},
{
name = top_right_can;
pos = (558,714);
}
);
shapes = (
{
closed = 1;
nodes = (
(6,0,l),
(380,687,l),
(370,687,l),
(452,0,l),
(474,0,l),
(477,13,l),
(390,714,l),
(372,714,l),
(-13,13,l),
(-16,0,l)
);
}
);
};
color = 4;
layerId = "341CD669-D84F-4333-8BC8-F9777E6D3814";
shapes = (
{
alignment = -1;
angle = 180;
pos = (610,714);
ref = "pe-canadian";
}
);
width = 560;
},
{
anchors = (
{
name = middle_center_can;
pos = (316,251);
},
{
name = top_center_can;
pos = (405,714);
},
{
name = top_left_can;
pos = (220,714);
},
{
name = top_right_can;
pos = (590,714);
}
);
background = {
anchors = (
{
name = middle_center_can;
pos = (306,251);
},
{
name = top_center_can;
pos = (405,714);
},
{
name = top_left_can;
pos = (220,714);
},
{
name = top_right_can;
pos = (590,714);
}
);
shapes = (
{
closed = 1;
nodes = (
(119,0,l),
(420,502,l),
(294,502,l),
(383,0,l),
(545,0,l),
(554,43,l),
(427,714,l),
(379,714,l),
(-34,43,l),
(-43,0,l)
);
}
);
};
color = 4;
layerId = "4DD67900-F9B0-4F36-BC45-F4B21129580C";
shapes = (
{
alignment = -1;
angle = 180;
pos = (653,714);
ref = "pe-canadian";
}
);
width = 611;
}
);
metricLeft = "e-canadian";
metricRight = "e-canadian";
note = uni1431;
unicode = 5169;
},
{
color = 4;
glyphname = "po-canadian";
kernLeft = ocanleft;
kernRight = ocanright;
lastChange = "2022-11-21 12:29:04 +0000";
layers = (
{
anchors = (
{
name = middle_center_can;
pos = (203,357);
},
{
name = top_center_can;
pos = (471,714);
},
{
name = top_double;
pos = (600,714);
},
{
name = top_left_can;
pos = (226,714);
},
{
name = top_right_can;
pos = (729,714);
}
);
background = {
anchors = (
{
name = middle_center_can;
pos = (203,357);
},
{
name = top_center_can;
pos = (471,714);
},
{
name = top_double;
pos = (600,714);
},
{
name = top_left_can;
pos = (226,714);
},
{
name = top_right_can;
pos = (729,714);
}
);
shapes = (
{
closed = 1;
nodes = (
(36,0,l),
(716,329,l),
(728,385,l),
(188,714,l),
(143,714,l),
(104,531,l),
(469,315,l),
(487,401,l),
(30,185,l),
(-9,0,l)
);
}
);
};
color = 4;
guides = (
{
angle = 258.0239;
pos = (143,714);
}
);
layerId = "A1461942-0433-4891-A171-8512F51D8C86";
shapes = (
{
closed = 1;
nodes = (
(37,0,l),
(715,329,l),
(727,385,l),
(188,714,l),
(143,714,l),
(108,549,l),
(473,332,l),
(488,418,l),
(35,204,l),
(-8,0,l)
);
}
);
width = 728;
},
{
anchors = (
{
name = middle_center_can;
pos = (217,357);
},
{
name = top_center_can;
pos = (368,714);
},
{
name = top_double;
pos = (443,714);
},
{
name = top_left_can;
pos = (163,714);
},
{
name = top_right_can;
pos = (561,714);
}
);
background = {
anchors = (
{
name = middle_center_can;
pos = (217,357);
},
{
name = top_center_can;
pos = (368,714);
},
{
name = top_double;
pos = (443,714);
},
{
name = top_left_can;
pos = (163,714);
},
{
name = top_right_can;
pos = (561,714);
}
);
shapes = (
{
closed = 1;
nodes = (
(10,0,l),
(506,348,l),
(510,366,l),
(162,714,l),
(151,714,l),
(146,693,l),
(492,349,l),
(496,365,l),
(3,21,l),
(-1,0,l)
);
}
);
};
color = 4;
guides = (
{
angle = 257.9935;
pos = (149,705);
}
);
layerId = "341CD669-D84F-4333-8BC8-F9777E6D3814";
shapes = (
{
closed = 1;
nodes = (
(10,0,l),
(506,348,l),
(510,366,l),
(162,714,l),
(151,714,l),
(147,696,l),
(492,353,l),
(496,368,l),
(4,24,l),
(-1,0,l)
);
}
);
width = 518;
},
{
anchors = (
{
name = middle_center_can;
pos = (149,357);
},
{
name = top_center_can;
pos = (365,714);
},
{
name = top_double;
pos = (488,714);
},
{
name = top_left_can;
pos = (203,714);
},
{
name = top_right_can;
pos = (554,714);
}
);
background = {
anchors = (
{
name = middle_center_can;
pos = (149,357);
},
{
name = top_center_can;
pos = (365,714);
},
{
name = top_double;
pos = (488,714);
},
{
name = top_left_can;
pos = (203,714);
},
{
name = top_right_can;
pos = (554,714);
}
);
shapes = (
{
closed = 1;
nodes = (
(14,0,l),
(542,330,l),
(554,384,l),
(166,714,l),
(125,714,l),
(88,542,l),
(356,318,l),
(373,398,l),
(10,174,l),
(-27,0,l)
);
}
);
};
color = 4;
guides = (
{
angle = 258.1113;
pos = (124,714);
}
);
layerId = "4DD67900-F9B0-4F36-BC45-F4B21129580C";
shapes = (
{
closed = 1;
nodes = (
(14,0,l),
(541,330,l),
(553,384,l),
(166,714,l),
(124,714,l),
(91,557,l),
(356,334,l),
(371,412,l),
(14,191,l),
(-26,0,l)
);
}
);
width = 549;
},
{
anchors = (
{
name = middle_center_can;
pos = (306,357);
},
{
name = top_center_can;
pos = (484,714);
},
{
name = top_double;
pos = (573,714);
},
{
name = top_left_can;
pos = (189,714);
},
{
name = top_right_can;
pos = (762,714);
}
);
associatedMasterId = m01;
background = {
anchors = (
{
name = middle_center_can;
pos = (306,357);
},
{
name = top_center_can;
pos = (484,714);
},
{
name = top_double;
pos = (573,714);
},
{
name = top_left_can;
pos = (189,714);
},
{
name = top_right_can;
pos = (762,714);
}
);
};
color = 4;
layerId = "ADFC240F-86AF-490B-8D07-5A37A9187D7A";
name = "21 Oct 22, 16:57";
shapes = (
{
closed = 1;
nodes = (
(42,0,l),
(718,345,l),
(723,368,l),
(194,714,l),
(181,714,l),
(29,0,l)
);
},
{
closed = 1;
nodes = (
(203,696,l),
(190,687,l),
(699,356,l),
(701,362,l),
(49,30,l),
(60,26,l)
);
}
);
width = 736;
},
{
anchors = (
{
name = middle_center_can;
pos = (306,357);
},
{
name = top_center_can;
pos = (484,714);
},
{
name = top_double;
pos = (573,714);
},
{
name = top_left_can;
pos = (189,714);
},
{
name = top_right_can;
pos = (762,714);
}
);
background = {
anchors = (
{
name = middle_center_can;
pos = (306,357);
},
{
name = top_center_can;
pos = (484,714);
},
{
name = top_double;
pos = (573,714);
},
{
name = top_left_can;
pos = (189,714);
},
{
name = top_right_can;
pos = (762,714);
}
);
shapes = (
{
closed = 1;
nodes = (
(37,0,l),
(714,347,l),
(718,367,l),
(189,714,l),
(176,714,l),
(172,694,l),
(696,351,l),
(698,363,l),
(28,20,l),
(24,0,l)
);
}
);
};
color = 4;
layerId = m01;
name = "Thin Slanted";
shapes = (
{
closed = 1;
nodes = (
(37,0,l),
(714,347,l),
(718,367,l),
(189,714,l),
(176,714,l),
(172,695,l),
(694,354,l),
(698,366,l),
(29,24,l),
(24,0,l)
);
}
);
width = 736;
}
);
metricRight = "o-canadian";
note = uni1433;
unicode = 5171;
},
{
color = 2;
glyphname = "pa-canadian";
kernLeft = acanleft;
kernRight = acanright;
lastChange = "2022-11-21 12:12:36 +0000";
layers = (
{
anchors = (
{
name = middle_center_can;
pos = (295,357);
},
{
name = top_center_can;
pos = (453,714);
},
{
name = top_left_can;
pos = (158,714);
},
{
name = top_right_can;
pos = (748,714);
}
);
background = {
anchors = (
{
name = middle_center_can;
pos = (295,357);
},
{
name = top_center_can;
pos = (453,714);
},
{
name = top_left_can;
pos = (158,714);
},
{
name = top_right_can;
pos = (748,714);
}
);
shapes = (
{
closed = 1;
nodes = (
(609,0,l),
(613,20,l),
(89,363,l),
(87,351,l),
(757,694,l),
(761,714,l),
(748,714,l),
(71,367,l),
(67,347,l),
(596,0,l)
);
}
);
};
color = 4;
layerId = m01;
shapes = (
{
alignment = -1;
angle = 180;
pos = (785,714);
ref = "po-canadian";
}
);
width = 735;
},
{
anchors = (
{
name = middle_center_can;
pos = (477,357);
},
{
name = top_center_can;
pos = (452,714);
},
{
name = top_left_can;
pos = (207,714);
},
{
name = top_right_can;
pos = (696,714);
}
);
background = {
anchors = (
{
name = middle_center_can;
pos = (477,357);
},
{
name = top_center_can;
pos = (452,714);
},
{
name = top_left_can;
pos = (207,714);
},
{
name = top_right_can;
pos = (696,714);
}
);
shapes = (
{
closed = 1;
nodes = (
(627,0,l),
(666,183,l),
(301,399,l),
(283,313,l),
(740,529,l),
(779,714,l),
(734,714,l),
(54,385,l),
(42,329,l),
(582,0,l)
);
}
);
};
color = 4;
layerId = "A1461942-0433-4891-A171-8512F51D8C86";
shapes = (
{
alignment = -1;
angle = 180;
pos = (769,714);
ref = "po-canadian";
}
);
width = 727;
},
{
anchors = (
{
name = middle_center_can;
pos = (227,357);
},
{
name = top_center_can;
pos = (353,714);
},
{
name = top_left_can;
pos = (148,714);
},
{
name = top_right_can;
pos = (557,714);
}
);
background = {
anchors = (
{
name = middle_center_can;
pos = (227,357);
},
{
name = top_center_can;
pos = (353,714);
},
{
name = top_left_can;
pos = (148,714);
},
{
name = top_right_can;
pos = (557,714);
}
);
shapes = (
{
closed = 1;
nodes = (
(417,0,l),
(421,21,l),
(76,365,l),
(72,349,l),
(564,693,l),
(569,714,l),
(558,714,l),
(62,366,l),
(58,348,l),
(406,0,l)
);
}
);
};
color = 4;
layerId = "341CD669-D84F-4333-8BC8-F9777E6D3814";
shapes = (
{
alignment = -1;
angle = 180;
pos = (568,714);
ref = "po-canadian";
}
);
width = 518;
},
{
anchors = (
{
name = middle_center_can;
pos = (430,357);
},
{
name = top_center_can;
pos = (383,714);
},
{
name = top_left_can;
pos = (211,714);
},
{
name = top_right_can;
pos = (544,714);
}
);
background = {
anchors = (
{
name = middle_center_can;
pos = (430,357);
},
{
name = top_center_can;
pos = (383,714);
},
{
name = top_left_can;
pos = (211,714);
},
{
name = top_right_can;
pos = (544,714);
}
);
shapes = (
{
closed = 1;
nodes = (
(469,0,l),
(505,172,l),
(238,396,l),
(221,316,l),
(584,540,l),
(621,714,l),
(580,714,l),
(51,384,l),
(40,330,l),
(428,0,l)
);
}
);
};
color = 4;
guides = (
{
angle = 78.1113;
pos = (468,0);
}
);
layerId = "4DD67900-F9B0-4F36-BC45-F4B21129580C";
shapes = (
{
alignment = -1;
angle = 180;
pos = (592,714);
ref = "po-canadian";
}
);
width = 550;
}
);
metricRight = "=|po-canadian";
note = uni1438;
unicode = 5176;
},
{
color = 2;
glyphname = "p-canadian";
kernLeft = mwestleft;
kernRight = mwestright;
lastChange = "2022-11-29 22:11:05 +0000";
layers = (
{
background = {
shapes = (
{
closed = 1;
nodes = (
(417,357,l),
(421,376,l),
(169,542,l),
(166,530,l),
(489,695,l),
(493,714,l),
(481,714,l),
(149,543,l),
(146,529,l),
(405,357,l)
);
}
);
};
color = 4;
layerId = m01;
shapes = (
{
closed = 1;
nodes = (
(417,357,l),
(420,373,l),
(168,539,l),
(166,528,l),
(489,693,l),
(493,714,l),
(481,714,l),
(149,543,l),
(146,529,l),
(405,357,l)
);
}
);
width = 478;
},
{
background = {
shapes = (
{
closed = 1;
nodes = (
(409,357,l),
(435,479,l),
(252,587,l),
(230,483,l),
(459,591,l),
(485,714,l),
(462,714,l),
(122,550,l),
(116,522,l),
(386,357,l)
);
}
);
};
color = 4;
layerId = "A1461942-0433-4891-A171-8512F51D8C86";
shapes = (
{
closed = 1;
nodes = (
(409,357,l),
(432,468,l),
(252,575,l),
(227,472,l),
(456,580,l),
(485,714,l),
(462,714,l),
(122,550,l),
(116,522,l),
(386,357,l)
);
}
);
width = 448;
},
{
background = {
shapes = (
{
closed = 1;
nodes = (
(300,357,l),
(305,377,l),
(141,542,l),
(138,530,l),
(372,694,l),
(376,714,l),
(368,714,l),
(124,543,l),
(121,529,l),
(292,357,l)
);
}
);
};
color = 4;
layerId = "341CD669-D84F-4333-8BC8-F9777E6D3814";
shapes = (
{
closed = 1;
nodes = (
(301,357,l),
(305,375,l),
(140,540,l),
(138,527,l),
(372,690,l),
(377,714,l),
(369,714,l),
(124,543,l),
(121,529,l),
(293,357,l)
);
}
);
width = 336;
},
{
background = {
shapes = (
{
closed = 1;
nodes = (
(297,357,l),
(321,468,l),
(193,580,l),
(174,490,l),
(349,601,l),
(373,714,l),
(354,714,l),
(97,550,l),
(91,522,l),
(278,357,l)
);
}
);
};
color = 4;
layerId = "4DD67900-F9B0-4F36-BC45-F4B21129580C";
shapes = (
{
closed = 1;
nodes = (
(297,357,l),
(318,454,l),
(190,566,l),
(171,476,l),
(346,587,l),
(373,714,l),
(354,714,l),
(97,550,l),
(91,522,l),
(278,357,l)
);
}
);
width = 311;
}
);
note = uni1449;
unicode = 5193;
},
{
color = 2;
glyphname = "pWestCree-canadian";
kernLeft = mwestleft;
kernRight = mwestright;
lastChange = "2022-11-28 15:56:34 +0000";
layers = (
{
background = {
shapes = (
{
closed = 1;
nodes = (
(134,357,l),
(210,714,l),
(186,714,l),
(110,357,l)
);
}
);
};
color = 4;
layerId = m01;
shapes = (
{
closed = 1;
nodes = (
(134,357,l),
(210,714,l),
(186,714,l),
(110,357,l)
);
}
);
width = 194;
},
{
background = {
shapes = (
{
closed = 1;
nodes = (
(214,357,l),
(290,714,l),
(157,714,l),
(81,357,l)
);
}
);
};
color = 4;
layerId = "A1461942-0433-4891-A171-8512F51D8C86";
shapes = (
{
closed = 1;
nodes = (
(214,357,l),
(290,714,l),
(157,714,l),
(81,357,l)
);
}
);
width = 253;
},
{
background = {
shapes = (
{
closed = 1;
nodes = (
(107,357,l),
(183,714,l),
(161,714,l),
(85,357,l)
);
}
);
};
color = 4;
layerId = "341CD669-D84F-4333-8BC8-F9777E6D3814";
shapes = (
{
closed = 1;
nodes = (
(107,357,l),
(183,714,l),
(161,714,l),
(85,357,l)
);
}
);
width = 142;
},
{
background = {
shapes = (
{
closed = 1;
nodes = (
(174,357,l),
(250,714,l),
(132,714,l),
(56,357,l)
);
}
);
};
color = 4;
layerId = "4DD67900-F9B0-4F36-BC45-F4B21129580C";
shapes = (
{
closed = 1;
nodes = (
(174,357,l),
(250,714,l),
(132,714,l),
(56,357,l)
);
}
);
width = 188;
}
);
metricRight = "=|";
note = uni144A;
unicode = 5194;
},
{
color = 6;
glyphname = "hCarrier-canadian";
lastChange = "2022-11-28 17:16:14 +0000";
layers = (
{
background = {
shapes = (
{
closed = 1;
nodes = (
(98,189,l),
(129,335,ls),
(141,392,o),
(188,426,o),
(244,426,cs),
(297,426,o),
(321,395,o),
(307,330,cs),
(277,189,l),
(301,189,l),
(332,335,ls),
(347,406,o),
(315,448,o),
(248,448,cs),
(192,448,o),
(139,413,o),
(123,359,c),
(134,359,l),
(174,546,l),
(150,546,l),
(74,189,l)
);
}
);
};
color = 4;
layerId = m01;
shapes = (
{
closed = 1;
nodes = (
(98,189,l),
(129,335,ls),
(141,392,o),
(183,426,o),
(239,426,cs),
(295,426,o),
(320,392,o),
(307,330,cs),
(277,189,l),
(301,189,l),
(332,334,ls),
(347,401,o),
(308,448,o),
(243,448,cs),
(188,448,o),
(139,414,o),
(126,368,c),
(136,368,l),
(174,546,l),
(150,546,l),
(74,189,l)
);
}
);
width = 372;
},
{
background = {
shapes = (
{
closed = 1;
nodes = (
(179,189,l),
(198,279,ls),
(205,313,o),
(225,332,o),
(251,332,cs),
(276,332,o),
(285,314,o),
(277,277,cs),
(258,189,l),
(391,189,l),
(415,303,ls),
(437,407,o),
(377,453,o),
(304,453,cs),
(257,453,o),
(210,430,o),
(195,404,c),
(219,378,l),
(255,546,l),
(122,546,l),
(46,189,l)
);
}
);
};
color = 4;
layerId = "A1461942-0433-4891-A171-8512F51D8C86";
shapes = (
{
closed = 1;
nodes = (
(179,189,l),
(199,282,ls),
(206,315,o),
(222,332,o),
(247,332,cs),
(274,332,o),
(285,312,o),
(277,277,cs),
(258,189,l),
(391,189,l),
(415,303,ls),
(433,389,o),
(386,453,o),
(304,453,cs),
(257,453,o),
(210,432,o),
(195,404,c),
(219,378,l),
(255,546,l),
(122,546,l),
(46,189,l)
);
}
);
width = 440;
},
{
background = {
shapes = (
{
closed = 1;
nodes = (
(71,189,l),
(106,355,ls),
(115,398,o),
(144,427,o),
(187,427,cs),
(224,427,o),
(237,402,o),
(226,350,cs),
(192,189,l),
(214,189,l),
(249,355,ls),
(262,418,o),
(237,448,o),
(191,448,cs),
(150,448,o),
(112,419,o),
(101,372,c),
(110,372,l),
(147,546,l),
(125,546,l),
(49,189,l)
);
}
);
};
color = 4;
layerId = "341CD669-D84F-4333-8BC8-F9777E6D3814";
shapes = (
{
closed = 1;
nodes = (
(71,189,l),
(106,355,ls),
(116,401,o),
(144,427,o),
(182,427,cs),
(221,427,o),
(236,399,o),
(226,350,cs),
(192,189,l),
(214,189,l),
(249,355,ls),
(260,407,o),
(233,448,o),
(185,448,cs),
(146,448,o),
(112,421,o),
(103,379,c),
(111,379,l),
(147,546,l),
(125,546,l),
(49,189,l)
);
}
);
width = 266;
},
{
background = {
shapes = (
{
closed = 1;
nodes = (
(139,189,l),
(165,309,ls),
(170,332,o),
(179,349,o),
(198,349,cs),
(214,349,o),
(218,336,o),
(214,317,cs),
(187,189,l),
(305,189,l),
(336,335,ls),
(355,423,o),
(303,453,o),
(258,453,cs),
(215,453,o),
(178,429,o),
(163,401,c),
(179,377,l),
(215,546,l),
(97,546,l),
(21,189,l)
);
}
);
};
color = 4;
layerId = "4DD67900-F9B0-4F36-BC45-F4B21129580C";
shapes = (
{
closed = 1;
nodes = (
(139,189,l),
(165,312,ls),
(170,338,o),
(179,349,o),
(195,349,cs),
(212,349,o),
(219,336,o),
(214,314,cs),
(187,189,l),
(305,189,l),
(336,335,ls),
(350,400,o),
(313,453,o),
(255,453,cs),
(218,453,o),
(182,432,o),
(162,400,c),
(180,380,l),
(215,546,l),
(97,546,l),
(21,189,l)
);
}
);
width = 344;
}
);
metricLeft = "pWestCree-canadian";
note = uni144B;
unicode = 5195;
},
{
color = 2;
glyphname = "te-canadian";
lastChange = "2022-11-27 23:01:52 +0000";
layers = (
{
anchors = (
{
name = middle_center_can;
pos = (415,357);
},
{
name = top_center_can;
pos = (491,714);
},
{
name = top_left_can;
pos = (204,714);
},
{
name = top_right_can;
pos = (778,714);
}
);
background = {
anchors = (
{
name = middle_center_can;
pos = (415,357);
},
{
name = top_center_can;
pos = (491,714);
},
{
name = top_left_can;
pos = (204,714);
},
{
name = top_right_can;
pos = (778,714);
}
);
shapes = (
{
closed = 1;
nodes = (
(522,-12,o),
(663,115,o),
(709,329,cs),
(791,714,l),
(765,714,l),
(682,325,ls),
(640,127,o),
(513,14,o),
(342,14,cs),
(175,14,o),
(92,127,o),
(134,324,cs),
(217,714,l),
(191,714,l),
(108,323,ls),
(64,115,o),
(155,-12,o),
(337,-12,cs)
);
}
);
};
color = 4;
layerId = m01;
shapes = (
{
closed = 1;
nodes = (
(548,-12,o),
(657,87,o),
(703,303,cs),
(791,714,l),
(765,714,l),
(677,301,ls),
(635,103,o),
(536,14,o),
(359,14,cs),
(170,14,o),
(89,113,o),
(134,323,cs),
(217,714,l),
(191,714,l),
(108,323,ls),
(61,103,o),
(157,-12,o),
(361,-12,cs)
);
}
);
width = 780;
},
{
anchors = (
{
name = middle_center_can;
pos = (433,357);
},
{
name = top_center_can;
pos = (509,714);
},
{
name = top_left_can;
pos = (252,714);
},
{
name = top_right_can;
pos = (767,714);
}
);
background = {
anchors = (
{
name = middle_center_can;
pos = (435,357);
},
{
name = top_center_can;
pos = (511,714);
},
{
name = top_left_can;
pos = (254,714);
},
{
name = top_right_can;
pos = (769,714);
}
);
shapes = (
{
closed = 1;
nodes = (
(577,-15,o),
(739,121,o),
(787,347,cs),
(865,714,l),
(672,714,l),
(594,346,ls),
(567,220,o),
(500,157,o),
(393,157,cs),
(289,157,o),
(246,224,o),
(272,346,cs),
(350,714,l),
(157,714,l),
(79,347,ls),
(30,117,o),
(133,-15,o),
(357,-15,cs)
);
}
);
};
color = 4;
layerId = "A1461942-0433-4891-A171-8512F51D8C86";
shapes = (
{
closed = 1;
nodes = (
(615,-15,o),
(733,92,o),
(785,338,cs),
(865,714,l),
(672,714,l),
(596,355,ls),
(567,219,o),
(506,157,o),
(403,157,cs),
(292,157,o),
(246,223,o),
(272,346,cs),
(350,714,l),
(157,714,l),
(81,357,ls),
(32,127,o),
(157,-15,o),
(398,-15,cs)
);
}
);
width = 828;
},
{
anchors = (
{
name = middle_center_can;
pos = (307,357);
},
{
name = top_center_can;
pos = (383,714);
},
{
name = top_left_can;
pos = (184,714);
},
{
name = top_right_can;
pos = (583,714);
}
);
background = {
anchors = (
{
name = middle_center_can;
pos = (307,357);
},
{
name = top_center_can;
pos = (383,714);
},
{
name = top_left_can;
pos = (184,714);
},
{
name = top_right_can;
pos = (583,714);
}
);
shapes = (
{
closed = 1;
nodes = (
(361,-12,o),
(460,73,o),
(496,242,cs),
(596,714,l),
(571,714,l),
(470,240,ls),
(437,84,o),
(352,13,o),
(234,13,cs),
(120,13,o),
(62,84,o),
(95,239,cs),
(196,714,l),
(171,714,l),
(70,238,ls),
(35,74,o),
(102,-12,o),
(229,-12,cs)
);
}
);
};
color = 4;
layerId = "341CD669-D84F-4333-8BC8-F9777E6D3814";
shapes = (
{
closed = 1;
nodes = (
(377,-12,o),
(457,61,o),
(489,210,cs),
(596,714,l),
(571,714,l),
(465,214,ls),
(436,76,o),
(366,13,o),
(248,13,cs),
(113,13,o),
(63,89,o),
(95,240,cs),
(196,714,l),
(171,714,l),
(70,237,ls),
(36,77,o),
(101,-12,o),
(248,-12,cs)
);
}
);
width = 565;
},
{
anchors = (
{
name = middle_center_can;
pos = (330,357);
},
{
name = top_center_can;
pos = (406,714);
},
{
name = top_left_can;
pos = (229,714);
},
{
name = top_right_can;
pos = (584,714);
}
);
background = {
anchors = (
{
name = middle_center_can;
pos = (331,357);
},
{
name = top_center_can;
pos = (407,714);
},
{
name = top_left_can;
pos = (230,714);
},
{
name = top_right_can;
pos = (585,714);
}
);
shapes = (
{
closed = 1;
nodes = (
(428,-15,o),
(542,85,o),
(583,276,cs),
(676,714,l),
(493,714,l),
(401,280,ls),
(382,191,o),
(349,153,o),
(288,153,cs),
(232,153,o),
(210,191,o),
(229,280,cs),
(321,714,l),
(138,714,l),
(45,276,ls),
(4,85,o),
(81,-15,o),
(253,-15,cs)
);
}
);
};
color = 4;
layerId = "4DD67900-F9B0-4F36-BC45-F4B21129580C";
shapes = (
{
closed = 1;
nodes = (
(445,-15,o),
(537,67,o),
(574,240,cs),
(675,714,l),
(492,714,l),
(395,258,ls),
(379,184,o),
(350,153,o),
(297,153,cs),
(235,153,o),
(210,195,o),
(226,270,cs),
(320,714,l),
(137,714,l),
(47,291,ls),
(7,102,o),
(98,-15,o),
(283,-15,cs)
);
}
);
width = 618;
}
);
metricRight = "=|";
note = uni144C;
unicode = 5196;
},
{
color = 2;
glyphname = "ti-canadian";
lastChange = "2022-11-23 19:10:15 +0000";
layers = (
{
anchors = (
{
name = middle_center_can;
pos = (415,357);
},
{
name = middle_right_can;
pos = (928,357);
},
{
name = top_center_can;
pos = (491,714);
},
{
name = top_left_can;
pos = (204,714);
},
{
name = top_right_can;
pos = (778,714);
}
);
background = {
anchors = (
{
name = middle_center_can;
pos = (415,357);
},
{
name = middle_right_can;
pos = (928,357);
},
{
name = top_center_can;
pos = (491,714);
},
{
name = top_left_can;
pos = (204,714);
},
{
name = top_right_can;
pos = (778,714);
}
);
shapes = (
{
closed = 1;
nodes = (
(65,0,l),
(148,389,ls),
(190,587,o),
(318,700,o),
(488,700,cs),
(655,700,o),
(738,587,o),
(696,390,cs),
(613,0,l),
(639,0,l),
(722,391,ls),
(766,599,o),
(674,726,o),
(493,726,cs),
(309,726,o),
(167,599,o),
(121,385,cs),
(39,0,l)
);
}
);
};
color = 4;
layerId = m01;
shapes = (
{
closed = 1;
nodes = (
(65,0,l),
(153,412,ls),
(195,607,o),
(292,700,o),
(471,700,cs),
(658,700,o),
(740,600,o),
(696,391,cs),
(613,0,l),
(639,0,l),
(722,391,ls),
(769,614,o),
(673,726,o),
(469,726,cs),
(279,726,o),
(173,624,o),
(127,411,cs),
(39,0,l)
);
}
);
width = 780;
},
{
anchors = (
{
name = middle_center_can;
pos = (435,357);
},
{
name = middle_right_can;
pos = (949,357);
},
{
name = top_center_can;
pos = (511,714);
},
{
name = top_left_can;
pos = (254,714);
},
{
name = top_right_can;
pos = (769,714);
}
);
background = {
anchors = (
{
name = middle_center_can;
pos = (435,357);
},
{
name = middle_right_can;
pos = (949,357);
},
{
name = top_center_can;
pos = (511,714);
},
{
name = top_left_can;
pos = (254,714);
},
{
name = top_right_can;
pos = (769,714);
}
);
shapes = (
{
closed = 1;
nodes = (
(198,0,l),
(276,368,ls),
(302,490,o),
(380,557,o),
(482,557,cs),
(583,557,o),
(624,490,o),
(598,368,cs),
(520,0,l),
(713,0,l),
(791,367,ls),
(839,593,o),
(741,729,o),
(524,729,cs),
(299,729,o),
(131,595,o),
(83,368,cs),
(5,0,l)
);
}
);
};
color = 4;
layerId = "A1461942-0433-4891-A171-8512F51D8C86";
shapes = (
{
closed = 1;
nodes = (
(198,0,l),
(275,359,ls),
(304,495,o),
(364,557,o),
(467,557,cs),
(578,557,o),
(624,491,o),
(598,368,cs),
(520,0,l),
(713,0,l),
(789,357,ls),
(838,587,o),
(713,729,o),
(472,729,cs),
(255,729,o),
(137,622,o),
(85,376,cs),
(6,0,l)
);
}
);
width = 828;
},
{
anchors = (
{
name = middle_center_can;
pos = (307,357);
},
{
name = middle_right_can;
pos = (612,357);
},
{
name = top_center_can;
pos = (383,714);
},
{
name = top_left_can;
pos = (184,714);
},
{
name = top_right_can;
pos = (583,714);
}
);
background = {
anchors = (
{
name = middle_center_can;
pos = (307,357);
},
{
name = middle_right_can;
pos = (612,357);
},
{
name = top_center_can;
pos = (383,714);
},
{
name = top_left_can;
pos = (184,714);
},
{
name = top_right_can;
pos = (583,714);
}
);
shapes = (
{
closed = 1;
nodes = (
(44,0,l),
(145,474,ls),
(178,630,o),
(263,701,o),
(381,701,cs),
(495,701,o),
(553,630,o),
(520,475,cs),
(419,0,l),
(444,0,l),
(545,476,ls),
(580,640,o),
(514,726,o),
(386,726,cs),
(254,726,o),
(155,641,o),
(119,472,cs),
(19,0,l)
);
}
);
};
color = 4;
layerId = "341CD669-D84F-4333-8BC8-F9777E6D3814";
shapes = (
{
closed = 1;
nodes = (
(44,0,l),
(150,500,ls),
(179,638,o),
(249,701,o),
(367,701,cs),
(502,701,o),
(552,625,o),
(520,474,cs),
(419,0,l),
(444,0,l),
(545,477,ls),
(579,637,o),
(514,726,o),
(367,726,cs),
(238,726,o),
(158,653,o),
(126,504,cs),
(19,0,l)
);
}
);
width = 565;
},
{
anchors = (
{
name = middle_center_can;
pos = (330,357);
},
{
name = middle_right_can;
pos = (722,357);
},
{
name = top_center_can;
pos = (406,714);
},
{
name = top_left_can;
pos = (229,714);
},
{
name = top_right_can;
pos = (584,714);
}
);
background = {
anchors = (
{
name = middle_center_can;
pos = (330,357);
},
{
name = middle_right_can;
pos = (722,357);
},
{
name = top_center_can;
pos = (406,714);
},
{
name = top_left_can;
pos = (229,714);
},
{
name = top_right_can;
pos = (584,714);
}
);
shapes = (
{
closed = 1;
nodes = (
(168,0,l),
(260,434,ls),
(279,523,o),
(312,561,o),
(373,561,cs),
(429,561,o),
(451,523,o),
(432,434,cs),
(340,0,l),
(523,0,l),
(616,438,ls),
(657,629,o),
(582,729,o),
(408,729,cs),
(243,729,o),
(119,629,o),
(78,438,cs),
(-15,0,l)
);
}
);
};
color = 4;
layerId = "4DD67900-F9B0-4F36-BC45-F4B21129580C";
shapes = (
{
closed = 1;
nodes = (
(168,0,l),
(265,456,ls),
(281,530,o),
(310,561,o),
(363,561,cs),
(425,561,o),
(450,519,o),
(434,444,cs),
(340,0,l),
(523,0,l),
(613,423,ls),
(654,615,o),
(559,729,o),
(377,729,cs),
(220,729,o),
(122,642,o),
(86,474,cs),
(-15,0,l)
);
}
);
width = 618;
}
);
metricLeft = "te-canadian";
metricRight = "te-canadian";
note = uni144E;
unicode = 5198;
},
{
color = 2;
glyphname = "to-canadian";
kernLeft = toleft;
lastChange = "2022-11-28 19:22:44 +0000";
layers = (
{
anchors = (
{
name = middle_center_can;
pos = (342,357);
},
{
name = middle_right_can;
pos = (822,357);
},
{
name = top_center_can;
pos = (401,714);
},
{
name = top_double;
pos = (447,714);
},
{
name = top_left_can;
pos = (189,714);
},
{
name = top_right_can;
pos = (672,714);
}
);
background = {
anchors = (
{
name = middle_center_can;
pos = (342,357);
},
{
name = middle_right_can;
pos = (822,357);
},
{
name = top_center_can;
pos = (401,714);
},
{
name = top_double;
pos = (447,714);
},
{
name = top_left_can;
pos = (189,714);
},
{
name = top_right_can;
pos = (672,714);
}
);
shapes = (
{
closed = 1;
nodes = (
(195,0,ls),
(434,0,o),
(620,201,o),
(620,458,cs),
(620,617,o),
(522,714,o),
(341,714,cs),
(176,714,l),
(170,689,l),
(339,689,ls),
(506,689,o),
(594,602,o),
(594,455,cs),
(594,210,o),
(425,25,o),
(199,25,cs),
(29,25,l),
(24,0,l)
);
}
);
};
color = 4;
layerId = m01;
shapes = (
{
closed = 1;
nodes = (
(191,0,ls),
(411,0,o),
(553,113,o),
(598,322,cs),
(650,561,o),
(549,714,o),
(337,714,cs),
(176,714,l),
(171,689,l),
(336,689,ls),
(535,689,o),
(622,555,o),
(572,325,cs),
(530,128,o),
(400,25,o),
(196,25,cs),
(29,25,l),
(24,0,l)
);
}
);
width = 666;
},
{
anchors = (
{
name = middle_center_can;
pos = (281,357);
},
{
name = middle_right_can;
pos = (836,357);
},
{
name = top_center_can;
pos = (423,714);
},
{
name = top_double;
pos = (539,714);
},
{
name = top_left_can;
pos = (236,714);
},
{
name = top_right_can;
pos = (669,714);
}
);
background = {
anchors = (
{
name = middle_center_can;
pos = (281,357);
},
{
name = middle_right_can;
pos = (836,357);
},
{
name = top_center_can;
pos = (423,714);
},
{
name = top_double;
pos = (539,714);
},
{
name = top_left_can;
pos = (236,714);
},
{
name = top_right_can;
pos = (669,714);
}
);
shapes = (
{
closed = 1;
nodes = (
(225,0,ls),
(493,0,o),
(687,191,o),
(687,454,cs),
(687,619,o),
(578,714,o),
(377,714,cs),
(153,714,l),
(116,543,l),
(325,543,ls),
(430,543,o),
(489,499,o),
(489,411,cs),
(489,269,o),
(391,171,o),
(246,171,cs),
(37,171,l),
(1,0,l)
);
}
);
};
color = 4;
layerId = "A1461942-0433-4891-A171-8512F51D8C86";
shapes = (
{
closed = 1;
nodes = (
(225,0,ls),
(471,0,o),
(624,112,o),
(668,324,cs),
(717,563,o),
(591,714,o),
(344,714,cs),
(153,714,l),
(117,543,l),
(318,543,ls),
(444,543,o),
(505,469,o),
(480,348,cs),
(455,231,o),
(376,171,o),
(246,171,cs),
(37,171,l),
(1,0,l)
);
}
);
width = 709;
},
{
anchors = (
{
name = middle_center_can;
pos = (243,357);
},
{
name = middle_right_can;
pos = (527,357);
},
{
name = top_center_can;
pos = (311,714);
},
{
name = top_double;
pos = (347,714);
},
{
name = top_left_can;
pos = (163,714);
},
{
name = top_right_can;
pos = (499,714);
}
);
background = {
anchors = (
{
name = middle_center_can;
pos = (243,357);
},
{
name = middle_right_can;
pos = (527,357);
},
{
name = top_center_can;
pos = (311,714);
},
{
name = top_double;
pos = (347,714);
},
{
name = top_left_can;
pos = (163,714);
},
{
name = top_right_can;
pos = (499,714);
}
);
shapes = (
{
closed = 1;
nodes = (
(87,0,ls),
(298,0,o),
(452,209,o),
(452,498,cs),
(452,638,o),
(385,714,o),
(233,714,cs),
(151,714,l),
(146,690,l),
(228,690,ls),
(368,690,o),
(427,623,o),
(427,496,cs),
(427,222,o),
(287,24,o),
(92,24,cs),
(4,24,l),
(-1,0,l)
);
}
);
};
color = 4;
layerId = "341CD669-D84F-4333-8BC8-F9777E6D3814";
shapes = (
{
closed = 1;
nodes = (
(83,0,ls),
(267,0,o),
(386,120,o),
(435,356,cs),
(484,594,o),
(415,714,o),
(229,714,cs),
(151,714,l),
(146,690,l),
(224,690,ls),
(400,690,o),
(459,585,o),
(411,361,cs),
(363,136,o),
(255,24,o),
(88,24,cs),
(4,24,l),
(-1,0,l)
);
}
);
width = 470;
},
{
anchors = (
{
name = middle_center_can;
pos = (188,357);
},
{
name = middle_right_can;
pos = (629,357);
},
{
name = top_center_can;
pos = (333,714);
},
{
name = top_double;
pos = (414,714);
},
{
name = top_left_can;
pos = (205,714);
},
{
name = top_right_can;
pos = (504,714);
}
);
background = {
anchors = (
{
name = middle_center_can;
pos = (188,357);
},
{
name = middle_right_can;
pos = (629,357);
},
{
name = top_center_can;
pos = (333,714);
},
{
name = top_double;
pos = (414,714);
},
{
name = top_left_can;
pos = (205,714);
},
{
name = top_right_can;
pos = (504,714);
}
);
shapes = (
{
closed = 1;
nodes = (
(72,0,ls),
(337,0,o),
(519,189,o),
(519,467,cs),
(519,636,o),
(409,714,o),
(224,714,cs),
(127,714,l),
(91,547,l),
(191,547,ls),
(274,547,o),
(331,516,o),
(331,424,cs),
(331,271,o),
(242,167,o),
(110,167,cs),
(10,167,l),
(-25,0,l)
);
}
);
};
color = 4;
layerId = "4DD67900-F9B0-4F36-BC45-F4B21129580C";
shapes = (
{
closed = 1;
nodes = (
(94,0,ls),
(309,0,o),
(452,111,o),
(495,310,cs),
(547,554,o),
(432,714,o),
(203,714,cs),
(126,714,l),
(91,547,l),
(173,547,ls),
(293,547,o),
(347,473,o),
(320,343,cs),
(295,227,o),
(224,167,o),
(110,167,cs),
(10,167,l),
(-25,0,l)
);
}
);
width = 519;
}
);
note = uni1450;
unicode = 5200;
},
{
color = 2;
glyphname = "ta-canadian";
kernRight = taright;
lastChange = "2022-11-28 19:37:39 +0000";
layers = (
{
anchors = (
{
name = middle_center_can;
pos = (374,357);
},
{
name = top_center_can;
pos = (466,714);
},
{
name = top_left_can;
pos = (195,714);
},
{
name = top_right_can;
pos = (676,714);
}
);
background = {
anchors = (
{
name = middle_center_can;
pos = (374,357);
},
{
name = top_center_can;
pos = (466,714);
},
{
name = top_left_can;
pos = (195,714);
},
{
name = top_right_can;
pos = (676,714);
}
);
shapes = (
{
closed = 1;
nodes = (
(539,0,l),
(544,25,l),
(405,25,ls),
(172,25,o),
(92,183,o),
(138,392,cs),
(180,583,o),
(305,689,o),
(527,689,cs),
(686,689,l),
(691,714,l),
(532,714,ls),
(290,714,o),
(158,596,o),
(113,397,cs),
(64,178,o),
(151,0,o),
(402,0,cs)
);
}
);
};
color = 4;
layerId = m01;
metricLeft = "=|theCarrier-canadian";
metricRight = "=|to-canadian";
shapes = (
{
alignment = -1;
angle = 180;
pos = (715,714);
ref = "to-canadian";
}
);
width = 666;
},
{
anchors = (
{
name = middle_center_can;
pos = (470,357);
},
{
name = top_center_can;
pos = (481,714);
},
{
name = top_left_can;
pos = (234,714);
},
{
name = top_right_can;
pos = (667,714);
}
);
background = {
anchors = (
{
name = middle_center_can;
pos = (470,357);
},
{
name = top_center_can;
pos = (481,714);
},
{
name = top_left_can;
pos = (234,714);
},
{
name = top_right_can;
pos = (667,714);
}
);
shapes = (
{
closed = 1;
nodes = (
(598,0,l),
(634,171,l),
(425,171,ls),
(320,171,o),
(262,217,o),
(262,304,cs),
(262,447,o),
(359,543,o),
(504,543,cs),
(713,543,l),
(750,714,l),
(526,714,ls),
(257,714,o),
(64,525,o),
(64,261,cs),
(64,97,o),
(172,0,o),
(374,0,cs)
);
}
);
};
color = 4;
layerId = "A1461942-0433-4891-A171-8512F51D8C86";
shapes = (
{
alignment = -1;
angle = 180;
pos = (751,714);
ref = "to-canadian";
}
);
width = 708;
},
{
anchors = (
{
name = middle_center_can;
pos = (278,357);
},
{
name = top_center_can;
pos = (362,714);
},
{
name = top_left_can;
pos = (173,714);
},
{
name = top_right_can;
pos = (509,714);
}
);
background = {
anchors = (
{
name = middle_center_can;
pos = (278,357);
},
{
name = top_center_can;
pos = (362,714);
},
{
name = top_left_can;
pos = (173,714);
},
{
name = top_right_can;
pos = (509,714);
}
);
shapes = (
{
closed = 1;
nodes = (
(369,0,l),
(374,24,l),
(292,24,ls),
(152,24,o),
(93,91,o),
(93,218,cs),
(93,492,o),
(233,690,o),
(428,690,cs),
(516,690,l),
(521,714,l),
(433,714,ls),
(222,714,o),
(68,505,o),
(68,216,cs),
(68,76,o),
(135,0,o),
(287,0,cs)
);
}
);
};
color = 4;
layerId = "341CD669-D84F-4333-8BC8-F9777E6D3814";
shapes = (
{
alignment = -1;
angle = 180;
pos = (520,714);
ref = "to-canadian";
}
);
width = 470;
},
{
anchors = (
{
name = middle_center_can;
pos = (374,357);
},
{
name = top_center_can;
pos = (382,714);
},
{
name = top_left_can;
pos = (210,714);
},
{
name = top_right_can;
pos = (509,714);
}
);
background = {
anchors = (
{
name = middle_center_can;
pos = (374,357);
},
{
name = top_center_can;
pos = (382,714);
},
{
name = top_left_can;
pos = (210,714);
},
{
name = top_right_can;
pos = (509,714);
}
);
shapes = (
{
closed = 1;
nodes = (
(435,0,l),
(470,167,l),
(399,167,ls),
(271,167,o),
(219,237,o),
(247,373,cs),
(271,487,o),
(336,547,o),
(457,547,cs),
(550,547,l),
(585,714,l),
(479,714,ls),
(249,714,o),
(109,605,o),
(64,394,cs),
(13,153,o),
(126,0,o),
(356,0,cs)
);
}
);
};
color = 4;
layerId = "4DD67900-F9B0-4F36-BC45-F4B21129580C";
metricRight = "=|to-canadian";
shapes = (
{
alignment = -1;
angle = 180;
pos = (561,714);
ref = "to-canadian";
}
);
width = 519;
}
);
metricLeft = "==|theCarrier-canadian";
metricRight = "==|to-canadian";
note = uni1455;
unicode = 5205;
},
{
color = 2;
glyphname = "t-canadian";
kernLeft = mwestleft;
kernRight = mwestright;
lastChange = "2022-11-20 11:21:22 +0000";
layers = (
{
background = {
shapes = (
{
closed = 1;
nodes = (
(363,357,l),
(367,379,l),
(286,379,ls),
(205,379,o),
(163,418,o),
(163,487,cs),
(163,607,o),
(242,692,o),
(353,692,cs),
(434,692,l),
(439,714,l),
(355,714,ls),
(233,714,o),
(140,614,o),
(140,485,cs),
(140,405,o),
(190,357,o),
(282,357,cs)
);
}
);
};
color = 4;
layerId = m01;
shapes = (
{
closed = 1;
nodes = (
(363,357,l),
(368,379,l),
(289,379,ls),
(190,379,o),
(150,437,o),
(172,542,cs),
(193,643,o),
(254,692,o),
(355,692,cs),
(434,692,l),
(439,714,l),
(356,714,ls),
(244,714,o),
(173,656,o),
(150,546,cs),
(125,428,o),
(177,357,o),
(285,357,cs)
);
}
);
width = 420;
},
{
background = {
shapes = (
{
closed = 1;
nodes = (
(381,357,l),
(407,479,l),
(302,479,ls),
(263,479,o),
(242,492,o),
(242,520,cs),
(242,564,o),
(275,592,o),
(326,592,cs),
(431,592,l),
(456,714,l),
(344,714,ls),
(202,714,o),
(103,621,o),
(103,487,cs),
(103,405,o),
(159,357,o),
(269,357,cs)
);
}
);
};
color = 4;
layerId = "A1461942-0433-4891-A171-8512F51D8C86";
shapes = (
{
closed = 1;
nodes = (
(381,357,l),
(407,479,l),
(302,479,ls),
(261,479,o),
(238,505,o),
(246,545,cs),
(253,577,o),
(275,592,o),
(322,592,cs),
(431,592,l),
(457,714,l),
(345,714,ls),
(212,714,o),
(136,663,o),
(114,559,cs),
(89,442,o),
(155,357,o),
(269,357,cs)
);
}
);
width = 420;
},
{
background = {
shapes = (
{
closed = 1;
nodes = (
(264,357,l),
(269,379,l),
(248,379,ls),
(173,379,o),
(138,412,o),
(138,478,cs),
(138,605,o),
(210,692,o),
(314,692,cs),
(335,692,l),
(340,714,l),
(316,714,ls),
(199,714,o),
(115,614,o),
(115,475,cs),
(115,399,o),
(157,357,o),
(242,357,cs)
);
}
);
};
color = 4;
layerId = "341CD669-D84F-4333-8BC8-F9777E6D3814";
shapes = (
{
closed = 1;
nodes = (
(264,357,l),
(269,379,l),
(247,379,ls),
(157,379,o),
(125,436,o),
(147,542,cs),
(168,646,o),
(220,692,o),
(313,692,cs),
(335,692,l),
(340,714,l),
(315,714,ls),
(209,714,o),
(149,662,o),
(125,548,cs),
(99,422,o),
(145,357,o),
(241,357,cs)
);
}
);
width = 295;
},
{
background = {
shapes = (
{
closed = 1;
nodes = (
(279,357,l),
(302,469,l),
(260,469,ls),
(225,469,o),
(204,486,o),
(204,517,cs),
(204,566,o),
(240,602,o),
(289,602,cs),
(331,602,l),
(354,714,l),
(300,714,ls),
(178,714,o),
(83,614,o),
(83,487,cs),
(83,407,o),
(133,357,o),
(225,357,cs)
);
}
);
};
color = 4;
layerId = "4DD67900-F9B0-4F36-BC45-F4B21129580C";
shapes = (
{
closed = 1;
nodes = (
(279,357,l),
(303,469,l),
(271,469,ls),
(221,469,o),
(198,494,o),
(208,539,cs),
(217,582,o),
(243,602,o),
(287,602,cs),
(331,602,l),
(355,714,l),
(306,714,ls),
(191,714,o),
(115,659,o),
(94,559,cs),
(71,445,o),
(135,357,o),
(240,357,cs)
);
}
);
width = 293;
}
);
note = uni1466;
unicode = 5222;
},
{
color = 2;
glyphname = "ke-canadian";
lastChange = "2022-11-21 09:15:33 +0000";
layers = (
{
anchors = (
{
name = middle_center_can;
pos = (397,457);
},
{
name = top_center_can;
pos = (420,714);
},
{
name = top_left_can;
pos = (200,714);
},
{
name = top_right_can;
pos = (640,714);
}
);
background = {
anchors = (
{
name = middle_center_can;
pos = (397,457);
},
{
name = top_center_can;
pos = (420,714);
},
{
name = top_left_can;
pos = (200,714);
},
{
name = top_right_can;
pos = (640,714);
}
);
shapes = (
{
closed = 1;
nodes = (
(505,0,l),
(605,469,ls),
(638,623,o),
(571,726,o),
(427,726,cs),
(265,726,o),
(132,581,o),
(132,405,cs),
(132,292,o),
(202,221,o),
(319,221,cs),
(429,221,o),
(526,286,o),
(565,377,c),
(561,384,l),
(479,0,l)
);
},
{
closed = 1;
nodes = (
(220,246,o),
(159,308,o),
(159,409,cs),
(159,571,o),
(275,701,o),
(421,701,cs),
(527,701,o),
(587,641,o),
(587,540,cs),
(587,376,o),
(471,246,o),
(324,246,cs)
);
}
);
};
color = 4;
layerId = m01;
shapes = (
{
closed = 1;
nodes = (
(505,0,l),
(599,443,ls),
(635,613,o),
(550,726,o),
(400,726,cs),
(272,726,o),
(176,642,o),
(146,506,cs),
(111,343,o),
(197,221,o),
(350,221,cs),
(455,221,o),
(533,278,o),
(571,381,c),
(564,401,l),
(479,0,l)
);
},
{
closed = 1;
nodes = (
(213,246,o),
(142,349,o),
(173,502,cs),
(199,626,o),
(283,701,o),
(399,701,cs),
(536,701,o),
(608,600,o),
(576,445,cs),
(550,321,o),
(466,246,o),
(350,246,cs)
);
}
);
width = 646;
},
{
anchors = (
{
name = middle_center_can;
pos = (366,457);
},
{
name = top_center_can;
pos = (420,714);
},
{
name = top_left_can;
pos = (229,714);
},
{
name = top_right_can;
pos = (578,729);
}
);
background = {
anchors = (
{
name = middle_center_can;
pos = (369,457);
},
{
name = top_center_can;
pos = (423,714);
},
{
name = top_left_can;
pos = (232,714);
},
{
name = top_right_can;
pos = (613,714);
}
);
shapes = (
{
closed = 1;
nodes = (
(557,0,l),
(651,443,ls),
(688,618,o),
(604,729,o),
(430,729,cs),
(232,729,o),
(74,576,o),
(74,385,cs),
(74,263,o),
(155,185,o),
(283,185,cs),
(353,185,o),
(414,213,o),
(429,240,c),
(417,248,l),
(364,0,l)
);
},
{
closed = 1;
nodes = (
(277,346,o),
(259,413,o),
(271,467,cs),
(285,531,o),
(325,567,o),
(377,567,cs),
(445,567,o),
(478,522,o),
(462,446,cs),
(448,381,o),
(407,346,o),
(356,346,cs)
);
}
);
};
color = 4;
layerId = "A1461942-0433-4891-A171-8512F51D8C86";
shapes = (
{
closed = 1;
nodes = (
(557,0,l),
(643,403,ls),
(684,595,o),
(583,729,o),
(396,729,cs),
(237,729,o),
(122,638,o),
(89,487,cs),
(52,317,o),
(149,185,o),
(309,185,cs),
(368,185,o),
(420,203,o),
(437,229,c),
(415,240,l),
(364,0,l)
);
},
{
closed = 1;
nodes = (
(291,346,o),
(258,396,o),
(274,470,cs),
(287,532,o),
(325,567,o),
(379,567,cs),
(443,567,o),
(476,517,o),
(460,443,cs),
(447,381,o),
(409,346,o),
(355,346,cs)
);
}
);
width = 672;
},
{
anchors = (
{
name = middle_center_can;
pos = (298,457);
},
{
name = top_center_can;
pos = (330,714);
},
{
name = top_left_can;
pos = (178,714);
},
{
name = top_right_can;
pos = (483,714);
}
);
background = {
anchors = (
{
name = middle_center_can;
pos = (299,457);
},
{
name = top_center_can;
pos = (331,714);
},
{
name = top_left_can;
pos = (179,714);
},
{
name = top_right_can;
pos = (484,714);
}
);
shapes = (
{
closed = 1;
nodes = (
(345,0,l),
(445,469,ls),
(481,638,o),
(441,726,o),
(335,726,cs),
(208,726,o),
(103,564,o),
(103,372,cs),
(103,274,o),
(147,221,o),
(227,221,cs),
(304,221,o),
(370,275,o),
(400,356,c),
(402,385,l),
(320,0,l)
);
},
{
closed = 1;
nodes = (
(163,245,o),
(128,289,o),
(128,373,cs),
(128,552,o),
(219,702,o),
(330,702,cs),
(399,702,o),
(434,659,o),
(434,576,cs),
(434,396,o),
(342,245,o),
(233,245,cs)
);
}
);
};
color = 4;
layerId = "341CD669-D84F-4333-8BC8-F9777E6D3814";
shapes = (
{
closed = 1;
nodes = (
(345,0,l),
(442,457,ls),
(479,631,o),
(431,726,o),
(320,726,cs),
(219,726,o),
(151,649,o),
(119,493,cs),
(83,320,o),
(127,221,o),
(241,221,cs),
(319,221,o),
(373,266,o),
(407,361,c),
(397,361,l),
(320,0,l)
);
},
{
closed = 1;
nodes = (
(144,245,o),
(109,332,o),
(143,491,cs),
(175,634,o),
(231,702,o),
(319,702,cs),
(417,702,o),
(452,615,o),
(417,456,cs),
(386,313,o),
(330,245,o),
(242,245,cs)
);
}
);
width = 466;
},
{
anchors = (
{
name = middle_center_can;
pos = (294,457);
},
{
name = top_center_can;
pos = (349,714);
},
{
name = top_left_can;
pos = (216,714);
},
{
name = top_right_can;
pos = (483,714);
}
);
background = {
anchors = (
{
name = middle_center_can;
pos = (294,457);
},
{
name = top_center_can;
pos = (349,714);
},
{
name = top_left_can;
pos = (216,714);
},
{
name = top_right_can;
pos = (480,714);
}
);
shapes = (
{
closed = 1;
nodes = (
(419,0,l),
(515,454,ls),
(552,629,o),
(499,729,o),
(358,729,cs),
(193,729,o),
(61,567,o),
(61,365,cs),
(61,255,o),
(116,185,o),
(209,185,cs),
(253,185,o),
(288,210,o),
(301,230,c),
(290,254,l),
(236,0,l)
);
},
{
closed = 1;
nodes = (
(253,339,o),
(242,352,o),
(242,387,cs),
(242,474,o),
(283,575,o),
(319,575,cs),
(335,575,o),
(346,563,o),
(346,529,cs),
(346,444,o),
(304,339,o),
(269,339,cs)
);
}
);
};
color = 4;
layerId = "4DD67900-F9B0-4F36-BC45-F4B21129580C";
shapes = (
{
closed = 1;
nodes = (
(418,0,l),
(516,462,ls),
(551,627,o),
(477,729,o),
(332,729,cs),
(198,729,o),
(111,641,o),
(78,488,cs),
(42,316,o),
(100,185,o),
(212,185,cs),
(251,185,o),
(285,201,o),
(312,239,c),
(288,248,l),
(235,0,l)
);
},
{
closed = 1;
nodes = (
(243,339,o),
(235,381,o),
(251,465,cs),
(266,540,o),
(286,575,o),
(314,575,cs),
(345,575,o),
(353,533,o),
(337,449,cs),
(322,374,o),
(302,339,o),
(274,339,cs)
);
}
);
width = 513;
},
{
anchors = (
{
name = middle_center_can;
pos = (370,457);
},
{
name = top_center_can;
pos = (424,714);
},
{
name = top_left_can;
pos = (233,714);
},
{
name = top_right_can;
pos = (614,714);
}
);
associatedMasterId = "A1461942-0433-4891-A171-8512F51D8C86";
background = {
anchors = (
{
name = middle_center_can;
pos = (370,457);
},
{
name = top_center_can;
pos = (424,714);
},
{
name = top_left_can;
pos = (233,714);
},
{
name = top_right_can;
pos = (614,714);
}
);
shapes = (
{
closed = 1;
nodes = (
(558,0,l),
(652,443,ls),
(689,618,o),
(605,729,o),
(431,729,cs),
(233,729,o),
(75,576,o),
(75,385,cs),
(75,263,o),
(156,185,o),
(284,185,cs),
(354,185,o),
(415,213,o),
(430,240,c),
(418,248,l),
(365,0,l)
);
},
{
closed = 1;
nodes = (
(299,347,o),
(269,375,o),
(269,425,cs),
(269,505,o),
(323,567,o),
(393,567,cs),
(442,567,o),
(470,540,o),
(470,491,cs),
(470,411,o),
(415,347,o),
(346,347,cs)
);
}
);
};
layerId = "3E3D51D2-EAFE-480D-AAD6-0F865A194EAE";
name = "20 Oct 22, 17:30";
shapes = (
{
closed = 1;
nodes = (
(558,0,l),
(645,413,ls),
(687,613,o),
(578,729,o),
(395,729,cs),
(244,729,o),
(118,635,o),
(85,481,cs),
(47,300,o),
(160,187,o),
(294,187,cs),
(367,187,o),
(415,212,o),
(430,237,c),
(418,250,l),
(365,0,l)
);
},
{
closed = 1;
nodes = (
(278,346,o),
(260,413,o),
(272,467,cs),
(286,531,o),
(326,567,o),
(378,567,cs),
(459,567,o),
(476,503,o),
(463,446,cs),
(448,382,o),
(408,346,o),
(357,346,cs)
);
}
);
width = 668;
}
);
metricRight = "te-canadian";
note = uni146B;
unicode = 5227;
},
{
color = 2;
glyphname = "ki-canadian";
lastChange = "2022-11-20 11:21:22 +0000";
layers = (
{
anchors = (
{
name = middle_center_can;
pos = (401,457);
},
{
name = top_center_can;
pos = (414,714);
},
{
name = top_left_can;
pos = (204,714);
},
{
name = top_right_can;
pos = (644,714);
}
);
background = {
anchors = (
{
name = middle_center_can;
pos = (401,457);
},
{
name = top_center_can;
pos = (424,714);
},
{
name = top_left_can;
pos = (204,714);
},
{
name = top_right_can;
pos = (644,714);
}
);
shapes = (
{
closed = 1;
nodes = (
(65,0,l),
(146,384,l),
(139,377,l),
(141,286,o),
(209,221,o),
(319,221,cs),
(458,221,o),
(573,321,o),
(606,474,cs),
(638,625,o),
(567,726,o),
(426,726,cs),
(284,726,o),
(172,626,o),
(139,469,cs),
(39,0,l)
);
},
{
closed = 1;
nodes = (
(197,246,o),
(136,335,o),
(166,474,cs),
(195,614,o),
(293,701,o),
(421,701,cs),
(548,701,o),
(609,612,o),
(580,474,cs),
(550,334,o),
(449,246,o),
(324,246,cs)
);
}
);
};
color = 4;
layerId = m01;
shapes = (
{
closed = 1;
nodes = (
(65,0,l),
(152,412,l),
(146,429,l),
(130,315,o),
(224,221,o),
(356,221,cs),
(476,221,o),
(569,304,o),
(599,439,cs),
(634,602,o),
(544,726,o),
(391,726,cs),
(268,726,o),
(177,646,o),
(148,510,cs),
(39,0,l)
);
},
{
closed = 1;
nodes = (
(215,246,o),
(139,354,o),
(170,501,cs),
(197,628,o),
(278,701,o),
(392,701,cs),
(528,701,o),
(604,593,o),
(573,446,cs),
(546,319,o),
(465,246,o),
(351,246,cs)
);
}
);
width = 647;
},
{
anchors = (
{
name = middle_center_can;
pos = (388,457);
},
{
name = top_center_can;
pos = (443,714);
},
{
name = top_left_can;
pos = (253,714);
},
{
name = top_right_can;
pos = (635,714);
}
);
background = {
anchors = (
{
name = middle_center_can;
pos = (388,457);
},
{
name = top_center_can;
pos = (443,714);
},
{
name = top_left_can;
pos = (253,714);
},
{
name = top_right_can;
pos = (635,714);
}
);
shapes = (
{
closed = 1;
nodes = (
(198,0,l),
(251,248,l),
(235,240,l),
(239,213,o),
(288,185,o),
(358,185,cs),
(533,185,o),
(682,341,o),
(682,525,cs),
(682,652,o),
(592,729,o),
(450,729,cs),
(276,729,o),
(136,618,o),
(99,443,cs),
(5,0,l)
);
},
{
closed = 1;
nodes = (
(317,347,o),
(287,375,o),
(287,425,cs),
(287,505,o),
(342,567,o),
(412,567,cs),
(461,567,o),
(489,539,o),
(489,491,cs),
(489,411,o),
(434,347,o),
(365,347,cs)
);
}
);
};
color = 4;
layerId = "A1461942-0433-4891-A171-8512F51D8C86";
shapes = (
{
closed = 1;
nodes = (
(198,0,l),
(253,258,l),
(234,246,l),
(243,213,o),
(314,185,o),
(389,185,cs),
(524,185,o),
(635,280,o),
(666,424,cs),
(705,601,o),
(600,729,o),
(416,729,cs),
(257,729,o),
(140,633,o),
(106,473,cs),
(5,0,l)
);
},
{
closed = 1;
nodes = (
(313,346,o),
(280,396,o),
(296,470,cs),
(309,532,o),
(347,567,o),
(401,567,cs),
(465,567,o),
(498,517,o),
(482,443,cs),
(469,381,o),
(431,346,o),
(377,346,cs)
);
}
);
width = 671;
},
{
anchors = (
{
name = middle_center_can;
pos = (303,457);
},
{
name = top_center_can;
pos = (336,714);
},
{
name = top_left_can;
pos = (184,714);
},
{
name = top_right_can;
pos = (489,714);
}
);
background = {
anchors = (
{
name = middle_center_can;
pos = (303,457);
},
{
name = top_center_can;
pos = (336,714);
},
{
name = top_left_can;
pos = (184,714);
},
{
name = top_right_can;
pos = (489,714);
}
);
shapes = (
{
closed = 1;
nodes = (
(44,0,l),
(126,385,l),
(116,356,l),
(111,276,o),
(155,221,o),
(231,221,cs),
(357,221,o),
(463,382,o),
(463,576,cs),
(463,675,o),
(419,726,o),
(338,726,cs),
(232,726,o),
(155,638,o),
(119,469,cs),
(19,0,l)
);
},
{
closed = 1;
nodes = (
(168,245,o),
(133,288,o),
(133,373,cs),
(133,553,o),
(223,702,o),
(333,702,cs),
(402,702,o),
(438,659,o),
(438,574,cs),
(438,395,o),
(346,245,o),
(236,245,cs)
);
}
);
};
color = 4;
layerId = "341CD669-D84F-4333-8BC8-F9777E6D3814";
shapes = (
{
closed = 1;
nodes = (
(44,0,l),
(129,400,l),
(119,371,l),
(115,280,o),
(167,220,o),
(251,220,cs),
(347,220,o),
(412,299,o),
(446,455,cs),
(483,626,o),
(430,726,o),
(314,726,cs),
(212,726,o),
(158,649,o),
(123,486,cs),
(19,0,l)
);
},
{
closed = 1;
nodes = (
(149,245,o),
(114,332,o),
(148,491,cs),
(180,634,o),
(227,702,o),
(315,702,cs),
(413,702,o),
(457,615,o),
(422,456,cs),
(391,313,o),
(335,245,o),
(247,245,cs)
);
}
);
width = 466;
},
{
anchors = (
{
name = middle_center_can;
pos = (304,457);
},
{
name = top_center_can;
pos = (359,714);
},
{
name = top_left_can;
pos = (228,714);
},
{
name = top_right_can;
pos = (492,714);
}
);
background = {
anchors = (
{
name = middle_center_can;
pos = (304,457);
},
{
name = top_center_can;
pos = (359,714);
},
{
name = top_left_can;
pos = (228,714);
},
{
name = top_right_can;
pos = (492,714);
}
);
shapes = (
{
closed = 1;
nodes = (
(168,0,l),
(222,254,l),
(201,230,l),
(205,210,o),
(230,185,o),
(273,185,cs),
(412,185,o),
(535,353,o),
(535,541,cs),
(535,659,o),
(472,729,o),
(361,729,cs),
(215,729,o),
(117,619,o),
(82,454,cs),
(-15,0,l)
);
},
{
closed = 1;
nodes = (
(264,339,o),
(252,352,o),
(252,388,cs),
(252,473,o),
(293,575,o),
(329,575,cs),
(346,575,o),
(357,563,o),
(357,530,cs),
(357,443,o),
(314,339,o),
(279,339,cs)
);
}
);
};
color = 4;
layerId = "4DD67900-F9B0-4F36-BC45-F4B21129580C";
shapes = (
{
closed = 1;
nodes = (
(168,0,l),
(224,262,l),
(202,234,l),
(200,206,o),
(238,185,o),
(290,185,cs),
(400,185,o),
(489,280,o),
(520,429,cs),
(557,607,o),
(480,729,o),
(329,729,cs),
(200,729,o),
(123,649,o),
(87,479,cs),
(-15,0,l)
);
},
{
closed = 1;
nodes = (
(253,339,o),
(245,381,o),
(261,465,cs),
(276,540,o),
(296,575,o),
(324,575,cs),
(355,575,o),
(363,533,o),
(347,449,cs),
(332,374,o),
(312,339,o),
(284,339,cs)
);
}
);
width = 512;
}
);
metricLeft = "te-canadian";
metricRight = "==|ke-canadian";
note = uni146D;
unicode = 5229;
},
{
color = 2;
glyphname = "ko-canadian";
lastChange = "2022-11-20 11:21:22 +0000";
layers = (
{
anchors = (
{
name = middle_center_can;
pos = (401,457);
},
{
name = top_center_can;
pos = (423,714);
},
{
name = top_double;
pos = (643,714);
},
{
name = top_left_can;
pos = (203,714);
},
{
name = top_right_can;
pos = (643,714);
}
);
background = {
anchors = (
{
name = middle_center_can;
pos = (401,457);
},
{
name = top_center_can;
pos = (423,714);
},
{
name = top_double;
pos = (643,714);
},
{
name = top_left_can;
pos = (203,714);
},
{
name = top_right_can;
pos = (643,714);
}
);
shapes = (
{
closed = 1;
nodes = (
(411,-12,o),
(524,88,o),
(557,245,cs),
(656,714,l),
(630,714,l),
(549,330,l),
(556,337,l),
(556,428,o),
(486,493,o),
(377,493,cs),
(215,493,o),
(82,346,o),
(82,171,cs),
(82,59,o),
(151,-12,o),
(269,-12,cs)
);
},
{
closed = 1;
nodes = (
(169,13,o),
(109,75,o),
(109,176,cs),
(109,337,o),
(225,468,o),
(371,468,cs),
(477,468,o),
(537,406,o),
(537,305,cs),
(537,142,o),
(422,13,o),
(274,13,cs)
);
}
);
};
color = 4;
layerId = m01;
shapes = (
{
alignment = -1;
angle = 180;
pos = (696,714);
ref = "ki-canadian";
}
);
width = 646;
},
{
anchors = (
{
name = middle_center_can;
pos = (324,254);
},
{
name = top_center_can;
pos = (421,714);
},
{
name = top_double;
pos = (611,714);
},
{
name = top_left_can;
pos = (230,714);
},
{
name = top_right_can;
pos = (611,714);
}
);
background = {
anchors = (
{
name = middle_center_can;
pos = (324,254);
},
{
name = top_center_can;
pos = (421,714);
},
{
name = top_double;
pos = (611,714);
},
{
name = top_left_can;
pos = (230,714);
},
{
name = top_right_can;
pos = (611,714);
}
);
shapes = (
{
closed = 1;
nodes = (
(443,-15,o),
(576,96,o),
(613,271,cs),
(707,714,l),
(514,714,l),
(462,466,l),
(477,474,l),
(473,501,o),
(425,529,o),
(357,529,cs),
(180,529,o),
(30,371,o),
(30,186,cs),
(30,61,o),
(117,-15,o),
(264,-15,cs)
);
},
{
closed = 1;
nodes = (
(252,147,o),
(223,174,o),
(223,223,cs),
(223,303,o),
(278,367,o),
(348,367,cs),
(395,367,o),
(425,339,o),
(425,289,cs),
(425,209,o),
(370,147,o),
(301,147,cs)
);
}
);
};
color = 4;
layerId = "A1461942-0433-4891-A171-8512F51D8C86";
shapes = (
{
alignment = -1;
angle = 180;
pos = (713,714);
ref = "ki-canadian";
}
);
width = 671;
},
{
anchors = (
{
name = middle_center_can;
pos = (298,458);
},
{
name = top_center_can;
pos = (331,714);
},
{
name = top_double;
pos = (485,714);
},
{
name = top_left_can;
pos = (179,714);
},
{
name = top_right_can;
pos = (484,714);
}
);
background = {
anchors = (
{
name = middle_center_can;
pos = (298,458);
},
{
name = top_center_can;
pos = (331,714);
},
{
name = top_double;
pos = (485,714);
},
{
name = top_left_can;
pos = (179,714);
},
{
name = top_right_can;
pos = (484,714);
}
);
shapes = (
{
closed = 1;
nodes = (
(284,-12,o),
(361,76,o),
(397,245,cs),
(497,714,l),
(472,714,l),
(390,329,l),
(400,358,l),
(404,439,o),
(361,493,o),
(285,493,cs),
(158,493,o),
(53,331,o),
(53,138,cs),
(53,40,o),
(96,-12,o),
(177,-12,cs)
);
},
{
closed = 1;
nodes = (
(113,12,o),
(78,55,o),
(78,140,cs),
(78,318,o),
(169,469,o),
(280,469,cs),
(348,469,o),
(383,425,o),
(383,341,cs),
(383,162,o),
(293,12,o),
(182,12,cs)
);
}
);
};
color = 4;
layerId = "341CD669-D84F-4333-8BC8-F9777E6D3814";
shapes = (
{
alignment = -1;
angle = 180;
pos = (516,714);
ref = "ki-canadian";
}
);
width = 466;
},
{
anchors = (
{
name = middle_center_can;
pos = (251,266);
},
{
name = top_center_can;
pos = (348,714);
},
{
name = top_double;
pos = (478,714);
},
{
name = top_left_can;
pos = (215,714);
},
{
name = top_right_can;
pos = (479,714);
}
);
background = {
anchors = (
{
name = middle_center_can;
pos = (251,266);
},
{
name = top_center_can;
pos = (348,714);
},
{
name = top_double;
pos = (478,714);
},
{
name = top_left_can;
pos = (215,714);
},
{
name = top_right_can;
pos = (479,714);
}
);
shapes = (
{
closed = 1;
nodes = (
(336,-15,o),
(435,85,o),
(472,260,cs),
(569,714,l),
(386,714,l),
(332,460,l),
(353,484,l),
(349,504,o),
(323,529,o),
(280,529,cs),
(143,529,o),
(17,357,o),
(17,168,cs),
(17,55,o),
(78,-15,o),
(196,-15,cs)
);
},
{
closed = 1;
nodes = (
(208,139,o),
(197,151,o),
(197,184,cs),
(197,269,o),
(239,375,o),
(275,375,cs),
(290,375,o),
(301,362,o),
(301,326,cs),
(301,239,o),
(260,139,o),
(224,139,cs)
);
}
);
};
color = 4;
layerId = "4DD67900-F9B0-4F36-BC45-F4B21129580C";
shapes = (
{
alignment = -1;
angle = 180;
pos = (555,714);
ref = "ki-canadian";
}
);
width = 513;
}
);
metricLeft = "ke-canadian";
metricRight = "te-canadian";
note = uni146F;
unicode = 5231;
},
{
color = 2;
glyphname = "ka-canadian";
lastChange = "2022-11-20 11:21:22 +0000";
layers = (
{
anchors = (
{
name = middle_center_can;
pos = (401,457);
},
{
name = top_center_can;
pos = (424,714);
},
{
name = top_left_can;
pos = (204,714);
},
{
name = top_right_can;
pos = (644,714);
}
);
background = {
anchors = (
{
name = middle_center_can;
pos = (401,457);
},
{
name = top_center_can;
pos = (424,714);
},
{
name = top_left_can;
pos = (204,714);
},
{
name = top_right_can;
pos = (644,714);
}
);
shapes = (
{
closed = 1;
nodes = (
(431,-12,o),
(564,132,o),
(564,309,cs),
(564,422,o),
(493,493,o),
(377,493,cs),
(266,493,o),
(170,428,o),
(131,337,c),
(135,330,l),
(217,714,l),
(191,714,l),
(91,245,ls),
(58,91,o),
(124,-12,o),
(268,-12,cs)
);
},
{
closed = 1;
nodes = (
(169,13,o),
(108,73,o),
(108,174,cs),
(108,338,o),
(225,468,o),
(371,468,cs),
(476,468,o),
(537,406,o),
(537,305,cs),
(537,143,o),
(421,13,o),
(275,13,cs)
);
}
);
};
color = 4;
layerId = m01;
shapes = (
{
alignment = -1;
angle = 180;
pos = (696,714);
ref = "ke-canadian";
}
);
width = 647;
},
{
anchors = (
{
name = middle_center_can;
pos = (346,259);
},
{
name = top_center_can;
pos = (443,714);
},
{
name = top_left_can;
pos = (254,714);
},
{
name = top_right_can;
pos = (635,714);
}
);
background = {
anchors = (
{
name = middle_center_can;
pos = (346,259);
},
{
name = top_center_can;
pos = (443,714);
},
{
name = top_left_can;
pos = (254,714);
},
{
name = top_right_can;
pos = (635,714);
}
);
shapes = (
{
closed = 1;
nodes = (
(484,-15,o),
(640,136,o),
(640,328,cs),
(640,450,o),
(560,529,o),
(439,529,cs),
(366,529,o),
(306,501,o),
(285,474,c),
(297,466,l),
(350,714,l),
(157,714,l),
(63,271,ls),
(26,96,o),
(110,-15,o),
(288,-15,cs)
);
},
{
closed = 1;
nodes = (
(274,147,o),
(245,174,o),
(245,223,cs),
(245,303,o),
(300,367,o),
(369,367,cs),
(417,367,o),
(447,339,o),
(447,289,cs),
(447,209,o),
(392,147,o),
(323,147,cs)
);
}
);
};
color = 4;
layerId = "A1461942-0433-4891-A171-8512F51D8C86";
shapes = (
{
alignment = -1;
angle = 180;
pos = (714,714);
ref = "ke-canadian";
}
);
width = 671;
},
{
anchors = (
{
name = middle_center_can;
pos = (303,458);
},
{
name = top_center_can;
pos = (336,714);
},
{
name = top_left_can;
pos = (184,714);
},
{
name = top_right_can;
pos = (489,714);
}
);
background = {
anchors = (
{
name = middle_center_can;
pos = (303,458);
},
{
name = top_center_can;
pos = (336,714);
},
{
name = top_left_can;
pos = (184,714);
},
{
name = top_right_can;
pos = (489,714);
}
);
shapes = (
{
closed = 1;
nodes = (
(308,-12,o),
(413,149,o),
(413,342,cs),
(413,439,o),
(370,493,o),
(289,493,cs),
(213,493,o),
(146,439,o),
(116,358,c),
(114,329,l),
(196,714,l),
(171,714,l),
(71,245,ls),
(35,76,o),
(75,-12,o),
(181,-12,cs)
);
},
{
closed = 1;
nodes = (
(118,12,o),
(83,54,o),
(83,138,cs),
(83,317,o),
(174,469,o),
(284,469,cs),
(353,469,o),
(388,425,o),
(388,341,cs),
(388,161,o),
(297,12,o),
(186,12,cs)
);
}
);
};
color = 4;
layerId = "341CD669-D84F-4333-8BC8-F9777E6D3814";
shapes = (
{
alignment = -1;
angle = 180;
pos = (517,714);
ref = "ke-canadian";
}
);
width = 467;
},
{
anchors = (
{
name = middle_center_can;
pos = (264,271);
},
{
name = top_center_can;
pos = (360,714);
},
{
name = top_left_can;
pos = (228,714);
},
{
name = top_right_can;
pos = (492,714);
}
);
background = {
anchors = (
{
name = middle_center_can;
pos = (264,271);
},
{
name = top_center_can;
pos = (360,714);
},
{
name = top_left_can;
pos = (228,714);
},
{
name = top_right_can;
pos = (492,714);
}
);
shapes = (
{
closed = 1;
nodes = (
(362,-15,o),
(494,147,o),
(494,349,cs),
(494,459,o),
(439,529,o),
(346,529,cs),
(303,529,o),
(267,504,o),
(255,484,c),
(266,460,l),
(320,714,l),
(137,714,l),
(40,260,ls),
(3,85,o),
(55,-15,o),
(198,-15,cs)
);
},
{
closed = 1;
nodes = (
(220,139,o),
(209,151,o),
(209,185,cs),
(209,269,o),
(251,375,o),
(286,375,cs),
(302,375,o),
(313,362,o),
(313,327,cs),
(313,239,o),
(272,139,o),
(236,139,cs)
);
}
);
};
color = 4;
layerId = "4DD67900-F9B0-4F36-BC45-F4B21129580C";
shapes = (
{
alignment = -1;
angle = 180;
pos = (555,714);
ref = "ke-canadian";
}
);
width = 513;
}
);
metricLeft = "te-canadian";
metricRight = "==|ke-canadian";
note = uni1472;
unicode = 5234;
},
{
color = 2;
glyphname = "k-canadian";
kernLeft = mwestleft;
kernRight = mwestright;
lastChange = "2022-11-30 16:24:35 +0000";
layers = (
{
background = {
shapes = (
{
closed = 1;
nodes = (
(322,351,o),
(397,430,o),
(397,522,cs),
(397,582,o),
(357,622,o),
(295,622,cs),
(236,622,o),
(181,582,o),
(161,528,c),
(168,516,l),
(210,714,l),
(186,714,l),
(138,487,ls),
(120,403,o),
(163,351,o),
(236,351,cs)
);
},
{
closed = 1;
nodes = (
(187,373,o),
(157,403,o),
(157,453,cs),
(157,533,o),
(217,600,o),
(289,600,cs),
(341,600,o),
(373,568,o),
(373,517,cs),
(373,439,o),
(313,373,o),
(242,373,cs)
);
}
);
};
color = 4;
layerId = m01;
shapes = (
{
closed = 1;
nodes = (
(320,351,o),
(374,398,o),
(390,472,cs),
(410,560,o),
(360,622,o),
(284,622,cs),
(225,622,o),
(178,585,o),
(156,528,c),
(170,526,l),
(210,714,l),
(186,714,l),
(140,498,ls),
(122,415,o),
(169,351,o),
(250,351,cs)
);
},
{
closed = 1;
nodes = (
(185,373,o),
(146,421,o),
(162,495,cs),
(175,558,o),
(219,600,o),
(280,600,cs),
(345,600,o),
(384,552,o),
(368,478,cs),
(355,415,o),
(311,373,o),
(250,373,cs)
);
}
);
width = 415;
},
{
background = {
shapes = (
{
closed = 1;
nodes = (
(350,351,o),
(434,426,o),
(434,519,cs),
(434,582,o),
(389,622,o),
(325,622,cs),
(286,622,o),
(253,604,o),
(241,588,c),
(264,588,l),
(290,714,l),
(157,714,l),
(111,496,ls),
(93,410,o),
(142,351,o),
(246,351,cs)
);
},
{
closed = 1;
nodes = (
(241,444,o),
(229,456,o),
(229,475,cs),
(229,504,o),
(252,529,o),
(280,529,cs),
(300,529,o),
(314,517,o),
(314,497,cs),
(314,468,o),
(291,444,o),
(262,444,cs)
);
}
);
};
color = 4;
layerId = "A1461942-0433-4891-A171-8512F51D8C86";
shapes = (
{
closed = 1;
nodes = (
(346,351,o),
(411,398,o),
(427,474,cs),
(444,556,o),
(395,622,o),
(316,622,cs),
(285,622,o),
(257,612,o),
(241,595,c),
(263,588,l),
(290,714,l),
(157,714,l),
(116,521,ls),
(95,420,o),
(154,351,o),
(259,351,cs)
);
},
{
closed = 1;
nodes = (
(246,446,o),
(230,462,o),
(230,484,cs),
(230,511,o),
(250,531,o),
(275,531,cs),
(298,531,o),
(313,516,o),
(313,493,cs),
(313,466,o),
(293,446,o),
(268,446,cs)
);
}
);
width = 431;
},
{
background = {
shapes = (
{
closed = 1;
nodes = (
(241,351,o),
(300,440,o),
(300,538,cs),
(300,594,o),
(273,622,o),
(234,622,cs),
(191,622,o),
(150,587,o),
(135,528,c),
(144,528,l),
(183,714,l),
(161,714,l),
(113,487,ls),
(94,396,o),
(122,351,o),
(174,351,cs)
);
},
{
closed = 1;
nodes = (
(147,373,o),
(128,391,o),
(128,434,cs),
(128,523,o),
(174,600,o),
(228,600,cs),
(259,600,o),
(278,580,o),
(278,536,cs),
(278,449,o),
(232,373,o),
(180,373,cs)
);
}
);
};
color = 4;
layerId = "341CD669-D84F-4333-8BC8-F9777E6D3814";
shapes = (
{
closed = 1;
nodes = (
(137,373,o),
(119,415,o),
(135,492,cs),
(151,564,o),
(181,600,o),
(224,600,cs),
(270,600,o),
(287,558,o),
(271,481,cs),
(255,409,o),
(226,373,o),
(183,373,cs)
);
},
{
closed = 1;
nodes = (
(234,351,o),
(274,398,o),
(291,478,cs),
(310,565,o),
(285,622,o),
(227,622,cs),
(184,622,o),
(150,590,o),
(137,536,c),
(145,535,l),
(183,714,l),
(161,714,l),
(115,497,ls),
(97,410,o),
(124,351,o),
(182,351,cs)
);
}
);
width = 292;
},
{
background = {
shapes = (
{
closed = 1;
nodes = (
(273,351,o),
(343,433,o),
(343,536,cs),
(343,591,o),
(313,622,o),
(268,622,cs),
(236,622,o),
(207,603,o),
(195,574,c),
(220,574,l),
(250,714,l),
(132,714,l),
(83,485,ls),
(66,406,o),
(99,351,o),
(184,351,cs)
);
},
{
closed = 1;
nodes = (
(194,436,o),
(187,440,o),
(187,457,cs),
(187,495,o),
(206,537,o),
(222,537,cs),
(229,537,o),
(236,533,o),
(236,515,cs),
(236,477,o),
(218,436,o),
(201,436,cs)
);
}
);
};
color = 4;
layerId = "4DD67900-F9B0-4F36-BC45-F4B21129580C";
shapes = (
{
closed = 1;
nodes = (
(267,351,o),
(319,399,o),
(337,482,cs),
(355,568,o),
(322,622,o),
(262,622,cs),
(227,622,o),
(203,604,o),
(190,575,c),
(220,575,l),
(250,714,l),
(132,714,l),
(86,499,ls),
(67,410,o),
(110,351,o),
(193,351,cs)
);
},
{
closed = 1;
nodes = (
(189,436,o),
(186,452,o),
(193,486,cs),
(200,519,o),
(210,537,o),
(221,537,cs),
(234,537,o),
(237,521,o),
(230,487,cs),
(223,454,o),
(213,436,o),
(202,436,cs)
);
}
);
width = 313;
}
);
note = uni1483;
unicode = 5251;
},
{
color = 2;
glyphname = "kw-canadian";
kernLeft = mwestleft;
kernRight = mwestright;
lastChange = "2022-11-30 16:24:35 +0000";
layers = (
{
background = {
shapes = (
{
closed = 1;
nodes = (
(300,351,o),
(364,403,o),
(382,487,cs),
(430,714,l),
(406,714,l),
(364,516,l),
(376,528,l),
(379,582,o),
(341,622,o),
(282,622,cs),
(196,622,o),
(123,544,o),
(123,453,cs),
(123,392,o),
(163,351,o),
(226,351,cs)
);
},
{
closed = 1;
nodes = (
(178,373,o),
(146,405,o),
(146,457,cs),
(146,535,o),
(206,600,o),
(279,600,cs),
(329,600,o),
(362,568,o),
(362,517,cs),
(362,436,o),
(304,373,o),
(229,373,cs)
);
}
);
};
color = 4;
layerId = m01;
shapes = (
{
alignment = -1;
angle = 180;
pos = (540,1071);
ref = "kOjibway-canadian";
}
);
width = 416;
},
{
background = {
shapes = (
{
closed = 1;
nodes = (
(331,351,o),
(406,410,o),
(424,496,cs),
(470,714,l),
(337,714,l),
(311,588,l),
(334,588,l),
(328,604,o),
(303,622,o),
(264,622,cs),
(176,622,o),
(98,545,o),
(98,458,cs),
(98,391,o),
(152,351,o),
(227,351,cs)
);
},
{
closed = 1;
nodes = (
(231,444,o),
(217,456,o),
(217,475,cs),
(217,505,o),
(241,529,o),
(269,529,cs),
(289,529,o),
(302,517,o),
(302,497,cs),
(302,468,o),
(280,444,o),
(251,444,cs)
);
}
);
};
color = 4;
layerId = "A1461942-0433-4891-A171-8512F51D8C86";
shapes = (
{
alignment = -1;
angle = 180;
pos = (552,1071);
ref = "kOjibway-canadian";
}
);
width = 432;
},
{
background = {
shapes = (
{
closed = 1;
nodes = (
(215,351,o),
(264,396,o),
(283,487,cs),
(331,714,l),
(309,714,l),
(269,528,l),
(278,528,l),
(288,587,o),
(262,622,o),
(219,622,cs),
(154,622,o),
(96,535,o),
(96,437,cs),
(96,381,o),
(123,351,o),
(164,351,cs)
);
},
{
closed = 1;
nodes = (
(136,373,o),
(118,394,o),
(118,437,cs),
(118,525,o),
(163,600,o),
(216,600,cs),
(248,600,o),
(266,578,o),
(266,535,cs),
(266,446,o),
(222,373,o),
(167,373,cs)
);
}
);
};
color = 4;
layerId = "341CD669-D84F-4333-8BC8-F9777E6D3814";
shapes = (
{
alignment = -1;
angle = 180;
pos = (416,1070);
ref = "kOjibway-canadian";
}
);
width = 291;
},
{
background = {
shapes = (
{
closed = 1;
nodes = (
(251,351,o),
(307,406,o),
(324,485,cs),
(373,714,l),
(255,714,l),
(225,574,l),
(250,574,l),
(250,603,o),
(230,622,o),
(197,622,cs),
(127,622,o),
(68,542,o),
(68,449,cs),
(68,381,o),
(110,351,o),
(167,351,cs)
);
},
{
closed = 1;
nodes = (
(179,436,o),
(172,440,o),
(172,458,cs),
(172,496,o),
(190,537,o),
(207,537,cs),
(214,537,o),
(220,533,o),
(220,516,cs),
(220,477,o),
(202,436,o),
(186,436,cs)
);
}
);
};
color = 4;
layerId = "4DD67900-F9B0-4F36-BC45-F4B21129580C";
shapes = (
{
alignment = -1;
angle = 180;
pos = (431,1071);
ref = "kOjibway-canadian";
}
);
width = 312;
}
);
metricLeft = "=|k-canadian";
metricRight = "=|k-canadian";
note = uni1484;
unicode = 5252;
},
{
color = 2;
glyphname = "ce-canadian";
kernLeft = celeft;
lastChange = "2022-11-28 10:13:08 +0000";
layers = (
{
anchors = (
{
name = middle_center_can;
pos = (400,457);
},
{
name = top_center_can;
pos = (423,714);
},
{
name = top_left_can;
pos = (203,714);
},
{
name = top_right_can;
pos = (641,714);
}
);
background = {
anchors = (
{
name = middle_center_can;
pos = (400,457);
},
{
name = top_center_can;
pos = (423,714);
},
{
name = top_left_can;
pos = (203,714);
},
{
name = top_right_can;
pos = (641,714);
}
);
shapes = (
{
closed = 1;
nodes = (
(502,0,l),
(602,469,ls),
(636,628,o),
(566,726,o),
(426,726,cs),
(281,726,o),
(173,628,o),
(138,469,cs),
(125,410,l),
(151,410,l),
(164,469,ls),
(196,615,o),
(290,701,o),
(421,701,cs),
(548,701,o),
(606,615,o),
(576,472,cs),
(476,0,l)
);
}
);
};
color = 4;
layerId = m01;
shapes = (
{
closed = 1;
nodes = (
(502,0,l),
(600,458,ls),
(634,619,o),
(555,726,o),
(400,726,cs),
(260,726,o),
(177,644,o),
(138,469,cs),
(125,410,l),
(151,410,l),
(164,468,ls),
(200,626,o),
(273,701,o),
(401,701,cs),
(543,701,o),
(605,609,o),
(572,452,cs),
(476,0,l)
);
}
);
width = 644;
},
{
anchors = (
{
name = middle_center_can;
pos = (342,357);
},
{
name = top_center_can;
pos = (424,714);
},
{
name = top_left_can;
pos = (233,714);
},
{
name = top_right_can;
pos = (605,714);
}
);
background = {
anchors = (
{
name = middle_center_can;
pos = (342,357);
},
{
name = top_center_can;
pos = (424,714);
},
{
name = top_left_can;
pos = (233,714);
},
{
name = top_right_can;
pos = (605,714);
}
);
shapes = (
{
closed = 1;
nodes = (
(549,0,l),
(643,443,ls),
(683,631,o),
(597,729,o),
(427,729,cs),
(249,729,o),
(118,621,o),
(79,441,cs),
(68,390,l),
(259,390,l),
(272,451,ls),
(288,525,o),
(328,563,o),
(387,563,cs),
(444,563,o),
(468,526,o),
(452,450,cs),
(356,0,l)
);
}
);
};
color = 4;
layerId = "A1461942-0433-4891-A171-8512F51D8C86";
shapes = (
{
closed = 1;
nodes = (
(549,0,l),
(640,428,ls),
(677,603,o),
(573,729,o),
(390,729,cs),
(227,729,o),
(121,635,o),
(85,468,cs),
(68,390,l),
(259,390,l),
(272,453,ls),
(287,528,o),
(321,563,o),
(376,563,cs),
(438,563,o),
(466,519,o),
(450,444,cs),
(356,0,l)
);
}
);
width = 664;
},
{
anchors = (
{
name = middle_center_can;
pos = (297,458);
},
{
name = top_center_can;
pos = (332,714);
},
{
name = top_left_can;
pos = (179,714);
},
{
name = top_right_can;
pos = (483,714);
}
);
background = {
anchors = (
{
name = middle_center_can;
pos = (297,458);
},
{
name = top_center_can;
pos = (332,714);
},
{
name = top_left_can;
pos = (179,714);
},
{
name = top_right_can;
pos = (483,714);
}
);
shapes = (
{
closed = 1;
nodes = (
(343,0,l),
(448,494,ls),
(479,638,o),
(438,726,o),
(334,726,cs),
(225,726,o),
(149,636,o),
(121,504,cs),
(101,410,l),
(126,410,l),
(146,504,ls),
(172,627,o),
(235,702,o),
(329,702,cs),
(420,702,o),
(450,626,o),
(423,497,cs),
(318,0,l)
);
}
);
};
color = 4;
layerId = "341CD669-D84F-4333-8BC8-F9777E6D3814";
shapes = (
{
closed = 1;
nodes = (
(343,0,l),
(450,503,ls),
(479,641,o),
(424,726,o),
(316,726,cs),
(212,726,o),
(152,658,o),
(121,507,cs),
(101,410,l),
(126,410,l),
(147,508,ls),
(176,644,o),
(227,702,o),
(312,702,cs),
(408,702,o),
(453,633,o),
(425,503,cs),
(318,0,l)
);
}
);
width = 464;
},
{
anchors = (
{
name = middle_center_can;
pos = (265,363);
},
{
name = top_center_can;
pos = (342,714);
},
{
name = top_left_can;
pos = (213,714);
},
{
name = top_right_can;
pos = (468,714);
}
);
background = {
anchors = (
{
name = middle_center_can;
pos = (265,363);
},
{
name = top_center_can;
pos = (342,714);
},
{
name = top_left_can;
pos = (213,714);
},
{
name = top_right_can;
pos = (468,714);
}
);
shapes = (
{
closed = 1;
nodes = (
(407,0,l),
(506,464,ls),
(541,629,o),
(488,729,o),
(346,729,cs),
(209,729,o),
(107,641,o),
(69,463,cs),
(53,390,l),
(234,390,l),
(258,501,ls),
(268,548,o),
(286,570,o),
(309,570,cs),
(331,570,o),
(341,551,o),
(330,500,cs),
(224,0,l)
);
}
);
};
color = 4;
layerId = "4DD67900-F9B0-4F36-BC45-F4B21129580C";
shapes = (
{
closed = 1;
nodes = (
(407,0,l),
(507,471,ls),
(541,633,o),
(472,729,o),
(320,729,cs),
(187,729,o),
(109,653,o),
(74,488,cs),
(53,390,l),
(234,390,l),
(261,515,ls),
(270,556,o),
(281,570,o),
(304,570,cs),
(331,570,o),
(341,551,o),
(333,513,cs),
(224,0,l)
);
}
);
width = 502;
}
);
metricRight = "te-canadian";
note = uni1489;
unicode = 5257;
},
{
color = 2;
glyphname = "ci-canadian";
kernRight = ciright;
lastChange = "2022-11-28 10:13:08 +0000";
layers = (
{
anchors = (
{
name = middle_center_can;
pos = (401,457);
},
{
name = top_center_can;
pos = (424,714);
},
{
name = top_left_can;
pos = (204,714);
},
{
name = top_right_can;
pos = (644,714);
}
);
background = {
anchors = (
{
name = middle_center_can;
pos = (401,457);
},
{
name = top_center_can;
pos = (424,714);
},
{
name = top_left_can;
pos = (204,714);
},
{
name = top_right_can;
pos = (644,714);
}
);
shapes = (
{
closed = 1;
nodes = (
(65,0,l),
(165,472,ls),
(195,615,o),
(292,701,o),
(422,701,cs),
(552,701,o),
(608,615,o),
(577,469,cs),
(564,410,l),
(590,410,l),
(603,469,ls),
(637,627,o),
(570,726,o),
(427,726,cs),
(283,726,o),
(173,628,o),
(139,469,cs),
(39,0,l)
);
}
);
};
color = 4;
layerId = m01;
shapes = (
{
closed = 1;
nodes = (
(65,0,l),
(167,478,ls),
(199,628,o),
(275,701,o),
(398,701,cs),
(536,701,o),
(605,609,o),
(575,467,cs),
(563,410,l),
(590,410,l),
(601,464,ls),
(633,619,o),
(550,726,o),
(398,726,cs),
(263,726,o),
(176,643,o),
(142,483,cs),
(39,0,l)
);
}
);
width = 644;
},
{
anchors = (
{
name = middle_center_can;
pos = (342,357);
},
{
name = top_center_can;
pos = (446,714);
},
{
name = top_left_can;
pos = (253,714);
},
{
name = top_right_can;
pos = (625,714);
}
);
background = {
anchors = (
{
name = middle_center_can;
pos = (342,357);
},
{
name = top_center_can;
pos = (446,714);
},
{
name = top_left_can;
pos = (253,714);
},
{
name = top_right_can;
pos = (625,714);
}
);
shapes = (
{
closed = 1;
nodes = (
(197,0,l),
(293,450,ls),
(309,525,o),
(352,563,o),
(410,563,cs),
(463,563,o),
(490,530,o),
(474,454,cs),
(460,390,l),
(651,390,l),
(662,441,ls),
(700,617,o),
(626,729,o),
(449,729,cs),
(267,729,o),
(137,622,o),
(98,441,cs),
(4,0,l)
);
}
);
};
color = 4;
layerId = "A1461942-0433-4891-A171-8512F51D8C86";
shapes = (
{
closed = 1;
nodes = (
(652,390,l),
(656,410,ls),
(695,604,o),
(601,729,o),
(416,729,cs),
(252,729,o),
(140,636,o),
(105,470,cs),
(5,0,l),
(198,0,l),
(295,458,ls),
(309,526,o),
(347,563,o),
(404,563,cs),
(465,563,o),
(488,522,o),
(472,443,cs),
(461,390,l)
);
}
);
width = 664;
},
{
anchors = (
{
name = middle_center_can;
pos = (303,458);
},
{
name = top_center_can;
pos = (338,714);
},
{
name = top_left_can;
pos = (185,714);
},
{
name = top_right_can;
pos = (490,714);
}
);
background = {
anchors = (
{
name = middle_center_can;
pos = (303,458);
},
{
name = top_center_can;
pos = (338,714);
},
{
name = top_left_can;
pos = (185,714);
},
{
name = top_right_can;
pos = (490,714);
}
);
shapes = (
{
closed = 1;
nodes = (
(45,0,l),
(151,497,ls),
(178,624,o),
(240,702,o),
(332,702,cs),
(427,702,o),
(457,627,o),
(431,504,cs),
(411,410,l),
(436,410,l),
(456,504,ls),
(485,642,o),
(443,726,o),
(337,726,cs),
(232,726,o),
(156,638,o),
(125,494,cs),
(20,0,l)
);
}
);
};
color = 4;
layerId = "341CD669-D84F-4333-8BC8-F9777E6D3814";
shapes = (
{
closed = 1;
nodes = (
(436,410,l),
(456,504,ls),
(485,639,o),
(434,726,o),
(325,726,cs),
(222,726,o),
(159,660,o),
(127,507,cs),
(20,0,l),
(45,0,l),
(153,508,ls),
(181,642,o),
(237,702,o),
(322,702,cs),
(418,702,o),
(458,632,o),
(431,504,cs),
(411,410,l)
);
}
);
width = 464;
},
{
anchors = (
{
name = middle_center_can;
pos = (282,363);
},
{
name = top_center_can;
pos = (357,714);
},
{
name = top_left_can;
pos = (229,714);
},
{
name = top_right_can;
pos = (487,714);
}
);
background = {
anchors = (
{
name = middle_center_can;
pos = (282,363);
},
{
name = top_center_can;
pos = (357,714);
},
{
name = top_left_can;
pos = (229,714);
},
{
name = top_right_can;
pos = (484,714);
}
);
shapes = (
{
closed = 1;
nodes = (
(168,0,l),
(274,500,ls),
(285,551,o),
(303,570,o),
(325,570,cs),
(349,570,o),
(357,548,o),
(347,501,cs),
(324,390,l),
(505,390,l),
(520,463,ls),
(557,641,o),
(492,729,o),
(360,729,cs),
(213,729,o),
(119,629,o),
(84,464,cs),
(-15,0,l)
);
}
);
};
color = 4;
layerId = "4DD67900-F9B0-4F36-BC45-F4B21129580C";
shapes = (
{
closed = 1;
nodes = (
(168,0,l),
(275,505,ls),
(286,556,o),
(298,570,o),
(321,570,cs),
(348,570,o),
(358,551,o),
(350,513,cs),
(324,390,l),
(505,390,l),
(520,460,ls),
(556,626,o),
(482,729,o),
(328,729,cs),
(200,729,o),
(126,659,o),
(93,506,cs),
(-15,0,l)
);
}
);
width = 502;
}
);
metricLeft = "te-canadian";
metricRight = "=|ce-canadian";
note = uni148B;
unicode = 5259;
},
{
color = 2;
glyphname = "co-canadian";
kernLeft = coleft;
lastChange = "2022-11-28 10:45:24 +0000";
layers = (
{
anchors = (
{
name = middle_center_can;
pos = (399,457);
},
{
name = top_center_can;
pos = (421,714);
},
{
name = top_double;
pos = (640,714);
},
{
name = top_left_can;
pos = (202,714);
},
{
name = top_right_can;
pos = (640,714);
}
);
background = {
anchors = (
{
name = middle_center_can;
pos = (399,457);
},
{
name = top_center_can;
pos = (421,714);
},
{
name = top_double;
pos = (640,714);
},
{
name = top_left_can;
pos = (202,714);
},
{
name = top_right_can;
pos = (640,714);
}
);
shapes = (
{
closed = 1;
nodes = (
(410,-12,o),
(519,81,o),
(554,247,cs),
(653,714,l),
(627,714,l),
(527,244,ls),
(495,95,o),
(401,13,o),
(274,13,cs),
(140,13,o),
(84,97,o),
(116,247,cs),
(128,304,l),
(102,304,l),
(89,243,ls),
(55,82,o),
(124,-12,o),
(269,-12,cs)
);
}
);
};
color = 4;
layerId = m01;
shapes = (
{
alignment = -1;
angle = 180;
pos = (692,714);
ref = "ci-canadian";
}
);
width = 642;
},
{
anchors = (
{
name = middle_center_can;
pos = (342,357);
},
{
name = top_center_can;
pos = (424,714);
},
{
name = top_double;
pos = (605,714);
},
{
name = top_left_can;
pos = (233,714);
},
{
name = top_right_can;
pos = (605,714);
}
);
background = {
anchors = (
{
name = middle_center_can;
pos = (342,357);
},
{
name = top_center_can;
pos = (424,714);
},
{
name = top_double;
pos = (605,714);
},
{
name = top_left_can;
pos = (233,714);
},
{
name = top_right_can;
pos = (605,714);
}
);
shapes = (
{
closed = 1;
nodes = (
(437,-15,o),
(567,83,o),
(607,271,cs),
(701,714,l),
(508,714,l),
(411,260,ls),
(395,186,o),
(357,151,o),
(299,151,cs),
(238,151,o),
(216,189,o),
(234,273,cs),
(245,324,l),
(54,324,l),
(43,273,ls),
(5,97,o),
(79,-15,o),
(268,-15,cs)
);
}
);
};
color = 4;
layerId = "A1461942-0433-4891-A171-8512F51D8C86";
shapes = (
{
alignment = -1;
angle = 180;
pos = (706,714);
ref = "ci-canadian";
}
);
width = 664;
},
{
anchors = (
{
name = middle_center_can;
pos = (299,458);
},
{
name = top_center_can;
pos = (332,714);
},
{
name = top_double;
pos = (484,714);
},
{
name = top_left_can;
pos = (180,714);
},
{
name = top_right_can;
pos = (484,714);
}
);
background = {
anchors = (
{
name = middle_center_can;
pos = (299,458);
},
{
name = top_center_can;
pos = (332,714);
},
{
name = top_double;
pos = (484,714);
},
{
name = top_left_can;
pos = (180,714);
},
{
name = top_right_can;
pos = (484,714);
}
);
shapes = (
{
closed = 1;
nodes = (
(284,-12,o),
(360,76,o),
(391,220,cs),
(496,714,l),
(471,714,l),
(365,217,ls),
(338,88,o),
(274,12,o),
(184,12,cs),
(88,12,o),
(59,87,o),
(85,210,cs),
(105,304,l),
(80,304,l),
(60,210,ls),
(32,79,o),
(69,-12,o),
(179,-12,cs)
);
}
);
};
color = 4;
layerId = "341CD669-D84F-4333-8BC8-F9777E6D3814";
shapes = (
{
alignment = -1;
angle = 180;
pos = (515,714);
ref = "ci-canadian";
}
);
width = 465;
},
{
anchors = (
{
name = middle_center_can;
pos = (266,363);
},
{
name = top_center_can;
pos = (341,714);
},
{
name = top_double;
pos = (468,714);
},
{
name = top_left_can;
pos = (213,714);
},
{
name = top_right_can;
pos = (468,714);
}
);
background = {
anchors = (
{
name = middle_center_can;
pos = (266,363);
},
{
name = top_center_can;
pos = (341,714);
},
{
name = top_double;
pos = (468,714);
},
{
name = top_left_can;
pos = (213,714);
},
{
name = top_right_can;
pos = (468,714);
}
);
shapes = (
{
closed = 1;
nodes = (
(330,-15,o),
(426,85,o),
(461,250,cs),
(559,714,l),
(376,714,l),
(270,214,ls),
(259,163,o),
(241,144,o),
(219,144,cs),
(195,144,o),
(187,166,o),
(197,213,cs),
(221,324,l),
(40,324,l),
(24,251,ls),
(-14,73,o),
(51,-15,o),
(191,-15,cs)
);
}
);
};
color = 4;
layerId = "4DD67900-F9B0-4F36-BC45-F4B21129580C";
shapes = (
{
alignment = -1;
angle = 180;
pos = (545,714);
ref = "ci-canadian";
}
);
width = 502;
}
);
metricLeft = "ce-canadian";
metricRight = "te-canadian";
note = uni148D;
unicode = 5261;
},
{
color = 2;
glyphname = "ca-canadian";
kernRight = caright;
lastChange = "2022-11-28 10:13:08 +0000";
layers = (
{
anchors = (
{
name = middle_center_can;
pos = (401,457);
},
{
name = top_center_can;
pos = (424,714);
},
{
name = top_left_can;
pos = (204,714);
},
{
name = top_right_can;
pos = (644,714);
}
);
background = {
anchors = (
{
name = middle_center_can;
pos = (401,457);
},
{
name = top_center_can;
pos = (424,714);
},
{
name = top_left_can;
pos = (204,714);
},
{
name = top_right_can;
pos = (644,714);
}
);
shapes = (
{
closed = 1;
nodes = (
(415,-12,o),
(520,83,o),
(555,245,cs),
(568,304,l),
(542,304,l),
(530,247,ls),
(498,95,o),
(407,13,o),
(276,13,cs),
(142,13,o),
(85,97,o),
(116,242,cs),
(217,714,l),
(191,714,l),
(91,245,ls),
(56,81,o),
(126,-12,o),
(270,-12,cs)
);
}
);
};
color = 3;
layerId = m01;
shapes = (
{
alignment = -1;
angle = 180;
pos = (693,714);
ref = "ce-canadian";
}
);
width = 644;
},
{
anchors = (
{
name = middle_center_can;
pos = (343,357);
},
{
name = top_center_can;
pos = (447,714);
},
{
name = top_left_can;
pos = (254,714);
},
{
name = top_right_can;
pos = (626,714);
}
);
background = {
anchors = (
{
name = middle_center_can;
pos = (343,357);
},
{
name = top_center_can;
pos = (447,714);
},
{
name = top_left_can;
pos = (254,714);
},
{
name = top_right_can;
pos = (626,714);
}
);
shapes = (
{
closed = 1;
nodes = (
(461,-15,o),
(589,93,o),
(627,273,cs),
(638,324,l),
(447,324,l),
(435,268,ls),
(417,184,o),
(377,151,o),
(322,151,cs),
(262,151,o),
(239,190,o),
(256,271,cs),
(350,714,l),
(157,714,l),
(63,271,ls),
(24,88,o),
(102,-15,o),
(287,-15,cs)
);
}
);
};
color = 4;
layerId = "A1461942-0433-4891-A171-8512F51D8C86";
shapes = (
{
alignment = -1;
angle = 180;
pos = (706,714);
ref = "ce-canadian";
}
);
width = 664;
},
{
anchors = (
{
name = middle_center_can;
pos = (303,458);
},
{
name = top_center_can;
pos = (337,714);
},
{
name = top_left_can;
pos = (184,714);
},
{
name = top_right_can;
pos = (488,714);
}
);
background = {
anchors = (
{
name = middle_center_can;
pos = (303,458);
},
{
name = top_center_can;
pos = (337,714);
},
{
name = top_left_can;
pos = (184,714);
},
{
name = top_right_can;
pos = (488,714);
}
);
shapes = (
{
closed = 1;
nodes = (
(289,-12,o),
(365,78,o),
(393,210,cs),
(413,304,l),
(388,304,l),
(368,210,ls),
(342,87,o),
(279,12,o),
(185,12,cs),
(92,12,o),
(63,91,o),
(90,217,cs),
(196,714,l),
(171,714,l),
(66,220,ls),
(35,76,o),
(76,-12,o),
(180,-12,cs)
);
}
);
};
color = 4;
layerId = "341CD669-D84F-4333-8BC8-F9777E6D3814";
shapes = (
{
alignment = -1;
angle = 180;
pos = (514,714);
ref = "ce-canadian";
}
);
width = 465;
},
{
anchors = (
{
name = middle_center_can;
pos = (282,363);
},
{
name = top_center_can;
pos = (357,714);
},
{
name = top_left_can;
pos = (229,714);
},
{
name = top_right_can;
pos = (484,714);
}
);
background = {
anchors = (
{
name = middle_center_can;
pos = (282,363);
},
{
name = top_center_can;
pos = (357,714);
},
{
name = top_left_can;
pos = (229,714);
},
{
name = top_right_can;
pos = (484,714);
}
);
shapes = (
{
closed = 1;
nodes = (
(334,-15,o),
(437,73,o),
(475,251,cs),
(491,324,l),
(310,324,l),
(286,213,ls),
(276,166,o),
(258,144,o),
(234,144,cs),
(213,144,o),
(202,163,o),
(213,214,cs),
(320,714,l),
(137,714,l),
(38,250,ls),
(3,85,o),
(55,-15,o),
(198,-15,cs)
);
}
);
};
color = 4;
layerId = "4DD67900-F9B0-4F36-BC45-F4B21129580C";
shapes = (
{
alignment = -1;
angle = 180;
pos = (544,714);
ref = "ce-canadian";
}
);
width = 502;
}
);
metricLeft = "te-canadian";
metricRight = "=|ce-canadian";
note = uni1490;
unicode = 5264;
},
{
color = 2;
glyphname = "c-canadian";
kernLeft = mwestleft;
kernRight = mwestright;
lastChange = "2022-11-30 16:24:35 +0000";
layers = (
{
background = {
shapes = (
{
closed = 1;
nodes = (
(311,351,o),
(374,399,o),
(392,483,cs),
(396,500,l),
(373,500,l),
(368,479,ls),
(353,409,o),
(304,373,o),
(241,373,cs),
(178,373,o),
(146,410,o),
(163,489,cs),
(210,714,l),
(186,714,l),
(139,491,ls),
(120,399,o),
(160,351,o),
(237,351,cs)
);
}
);
};
color = 4;
layerId = m01;
shapes = (
{
closed = 1;
nodes = (
(319,351,o),
(372,398,o),
(392,483,cs),
(396,500,l),
(373,500,l),
(368,479,ls),
(352,410,o),
(308,373,o),
(244,373,cs),
(175,373,o),
(146,415,o),
(162,489,cs),
(210,714,l),
(186,714,l),
(139,491,ls),
(121,407,o),
(164,351,o),
(245,351,cs)
);
}
);
width = 405;
},
{
background = {
shapes = (
{
closed = 1;
nodes = (
(344,351,o),
(418,405,o),
(436,491,cs),
(440,510,l),
(315,510,l),
(311,490,ls),
(306,467,o),
(290,452,o),
(268,452,cs),
(247,452,o),
(239,467,o),
(244,490,cs),
(291,714,l),
(158,714,l),
(114,506,ls),
(92,404,o),
(137,351,o),
(247,351,cs)
);
}
);
};
color = 4;
layerId = "A1461942-0433-4891-A171-8512F51D8C86";
shapes = (
{
closed = 1;
nodes = (
(351,351,o),
(418,402,o),
(435,486,cs),
(440,510,l),
(314,510,l),
(309,486,ls),
(304,464,o),
(293,452,o),
(272,452,cs),
(249,452,o),
(238,466,o),
(244,493,cs),
(291,714,l),
(158,714,l),
(115,514,ls),
(94,417,o),
(151,351,o),
(257,351,cs)
);
}
);
width = 420;
},
{
background = {
shapes = (
{
closed = 1;
nodes = (
(226,351,o),
(275,394,o),
(291,471,cs),
(297,500,l),
(276,500,l),
(269,469,ls),
(255,406,o),
(223,373,o),
(181,373,cs),
(132,373,o),
(118,408,o),
(133,478,cs),
(183,714,l),
(161,714,l),
(111,478,ls),
(93,393,o),
(120,351,o),
(175,351,cs)
);
}
);
};
color = 4;
layerId = "341CD669-D84F-4333-8BC8-F9777E6D3814";
shapes = (
{
closed = 1;
nodes = (
(237,351,o),
(275,392,o),
(291,471,cs),
(297,500,l),
(276,500,l),
(269,469,ls),
(254,403,o),
(226,373,o),
(183,373,cs),
(135,373,o),
(117,406,o),
(131,470,cs),
(183,714,l),
(161,714,l),
(109,470,ls),
(94,398,o),
(122,351,o),
(180,351,cs)
);
}
);
width = 282;
},
{
background = {
shapes = (
{
closed = 1;
nodes = (
(262,351,o),
(320,399,o),
(338,485,cs),
(343,509,l),
(235,509,l),
(225,463,ls),
(223,453,o),
(216,442,o),
(205,442,cs),
(196,442,o),
(193,448,o),
(196,463,cs),
(250,714,l),
(132,714,l),
(83,485,ls),
(65,399,o),
(98,351,o),
(184,351,cs)
);
}
);
};
color = 4;
layerId = "4DD67900-F9B0-4F36-BC45-F4B21129580C";
shapes = (
{
closed = 1;
nodes = (
(272,351,o),
(319,393,o),
(336,475,cs),
(343,509,l),
(235,509,l),
(225,463,ls),
(222,449,o),
(216,442,o),
(207,442,cs),
(197,442,o),
(193,450,o),
(196,462,cs),
(250,714,l),
(132,714,l),
(86,500,ls),
(66,407,o),
(110,351,o),
(197,351,cs)
);
}
);
width = 305;
}
);
note = uni14A1;
unicode = 5281;
},
{
color = 2;
glyphname = "thSayisi-canadian";
lastChange = "2022-11-20 11:21:22 +0000";
layers = (
{
background = {
shapes = (
{
closed = 1;
nodes = (
(290,351,o),
(353,399,o),
(372,491,cs),
(419,714,l),
(395,714,l),
(347,489,ls),
(330,410,o),
(283,373,o),
(220,373,cs),
(156,373,o),
(122,409,o),
(137,479,cs),
(142,500,l),
(119,500,l),
(115,483,ls),
(96,397,o),
(142,351,o),
(214,351,cs)
);
}
);
};
color = 4;
layerId = m01;
shapes = (
{
alignment = -1;
angle = 180;
pos = (529,1071);
ref = "cOjibway-canadian";
}
);
width = 403;
},
{
background = {
shapes = (
{
closed = 1;
nodes = (
(324,351,o),
(391,404,o),
(413,506,cs),
(457,714,l),
(324,714,l),
(277,490,ls),
(272,467,o),
(258,452,o),
(237,452,cs),
(216,452,o),
(205,466,o),
(210,490,cs),
(214,510,l),
(89,510,l),
(85,491,ls),
(67,405,o),
(117,351,o),
(214,351,cs)
);
}
);
};
color = 4;
layerId = "A1461942-0433-4891-A171-8512F51D8C86";
shapes = (
{
alignment = -1;
angle = 180;
pos = (538,1071);
ref = "cOjibway-canadian";
}
);
width = 420;
},
{
background = {
shapes = (
{
closed = 1;
nodes = (
(206,351,o),
(252,393,o),
(270,478,cs),
(320,714,l),
(298,714,l),
(248,478,ls),
(232,403,o),
(201,373,o),
(155,373,cs),
(113,373,o),
(95,406,o),
(108,469,cs),
(114,500,l),
(93,500,l),
(87,471,ls),
(71,394,o),
(100,351,o),
(151,351,cs)
);
}
);
};
color = 4;
layerId = "341CD669-D84F-4333-8BC8-F9777E6D3814";
shapes = (
{
alignment = -1;
angle = 180;
pos = (406,1071);
ref = "cOjibway-canadian";
}
);
width = 280;
},
{
background = {
shapes = (
{
closed = 1;
nodes = (
(246,351,o),
(301,399,o),
(319,485,cs),
(368,714,l),
(250,714,l),
(196,463,ls),
(193,450,o),
(189,442,o),
(179,442,cs),
(170,442,o),
(164,450,o),
(167,463,cs),
(177,509,l),
(69,509,l),
(64,485,ls),
(46,399,o),
(83,351,o),
(169,351,cs)
);
}
);
};
color = 4;
layerId = "4DD67900-F9B0-4F36-BC45-F4B21129580C";
shapes = (
{
alignment = -1;
angle = 180;
pos = (425,1071);
ref = "cOjibway-canadian";
}
);
width = 306;
}
);
metricLeft = "=|c-canadian";
metricRight = "=|c-canadian";
note = uni14A2;
unicode = 5282;
},
{
color = 2;
glyphname = "me-canadian";
kernLeft = meleft;
lastChange = "2022-11-20 11:21:22 +0000";
layers = (
{
anchors = (
{
name = middle_center_can;
pos = (266,357);
},
{
name = top_center_can;
pos = (355,714);
},
{
name = top_left_can;
pos = (163,714);
},
{
name = top_right_can;
pos = (547,714);
}
);
background = {
anchors = (
{
name = middle_center_can;
pos = (266,357);
},
{
name = top_center_can;
pos = (355,714);
},
{
name = top_left_can;
pos = (163,714);
},
{
name = top_right_can;
pos = (547,714);
}
);
shapes = (
{
closed = 1;
nodes = (
(409,0,l),
(560,714,l),
(150,714,l),
(145,689,l),
(529,689,l),
(383,0,l)
);
}
);
};
color = 4;
layerId = m01;
shapes = (
{
closed = 1;
nodes = (
(409,0,l),
(561,714,l),
(151,714,l),
(146,689,l),
(530,689,l),
(383,0,l)
);
}
);
width = 560;
},
{
anchors = (
{
name = middle_center_can;
pos = (227,357);
},
{
name = top_center_can;
pos = (404,714);
},
{
name = top_left_can;
pos = (232,714);
},
{
name = top_right_can;
pos = (566,714);
}
);
background = {
anchors = (
{
name = middle_center_can;
pos = (226,357);
},
{
name = top_center_can;
pos = (403,714);
},
{
name = top_left_can;
pos = (231,714);
},
{
name = top_right_can;
pos = (565,714);
}
);
shapes = (
{
closed = 1;
nodes = (
(510,0,l),
(661,714,l),
(135,714,l),
(99,543,l),
(432,543,l),
(317,0,l)
);
}
);
};
color = 4;
layerId = "A1461942-0433-4891-A171-8512F51D8C86";
shapes = (
{
closed = 1;
nodes = (
(510,0,l),
(662,714,l),
(136,714,l),
(100,543,l),
(432,543,l),
(317,0,l)
);
}
);
width = 635;
},
{
anchors = (
{
name = middle_center_can;
pos = (196,357);
},
{
name = top_center_can;
pos = (285,714);
},
{
name = top_left_can;
pos = (151,714);
},
{
name = top_right_can;
pos = (418,714);
}
);
background = {
anchors = (
{
name = middle_center_can;
pos = (196,357);
},
{
name = top_center_can;
pos = (285,714);
},
{
name = top_left_can;
pos = (151,714);
},
{
name = top_right_can;
pos = (418,714);
}
);
shapes = (
{
closed = 1;
nodes = (
(279,0,l),
(431,714,l),
(139,714,l),
(134,690,l),
(401,690,l),
(254,0,l)
);
}
);
};
color = 4;
layerId = "341CD669-D84F-4333-8BC8-F9777E6D3814";
shapes = (
{
closed = 1;
nodes = (
(279,0,l),
(431,714,l),
(139,714,l),
(134,690,l),
(401,690,l),
(254,0,l)
);
}
);
width = 405;
},
{
anchors = (
{
name = middle_center_can;
pos = (162,357);
},
{
name = top_center_can;
pos = (333,714);
},
{
name = top_left_can;
pos = (214,714);
},
{
name = top_right_can;
pos = (441,714);
}
);
background = {
anchors = (
{
name = middle_center_can;
pos = (162,357);
},
{
name = top_center_can;
pos = (333,714);
},
{
name = top_left_can;
pos = (214,714);
},
{
name = top_right_can;
pos = (441,714);
}
);
shapes = (
{
closed = 1;
nodes = (
(381,0,l),
(532,714,l),
(123,714,l),
(88,547,l),
(314,547,l),
(198,0,l)
);
}
);
};
color = 4;
layerId = "4DD67900-F9B0-4F36-BC45-F4B21129580C";
shapes = (
{
closed = 1;
nodes = (
(380,0,l),
(532,714,l),
(123,714,l),
(88,547,l),
(313,547,l),
(197,0,l)
);
}
);
width = 475;
}
);
metricRight = "nunavuth-canadian";
note = uni14A3;
unicode = 5283;
},
{
color = 2;
glyphname = "mi-canadian";
kernRight = miright;
lastChange = "2022-11-20 11:21:22 +0000";
layers = (
{
anchors = (
{
name = middle_center_can;
pos = (343,357);
},
{
name = top_center_can;
pos = (406,714);
},
{
name = top_left_can;
pos = (214,714);
},
{
name = top_right_can;
pos = (598,714);
}
);
background = {
anchors = (
{
name = middle_center_can;
pos = (343,357);
},
{
name = top_center_can;
pos = (406,714);
},
{
name = top_left_can;
pos = (214,714);
},
{
name = top_right_can;
pos = (598,714);
}
);
shapes = (
{
closed = 1;
nodes = (
(75,0,l),
(221,689,l),
(605,689,l),
(611,714,l),
(201,714,l),
(49,0,l)
);
}
);
};
color = 4;
layerId = m01;
shapes = (
{
closed = 1;
nodes = (
(75,0,l),
(221,689,l),
(605,689,l),
(610,714,l),
(201,714,l),
(49,0,l)
);
}
);
width = 560;
},
{
anchors = (
{
name = middle_center_can;
pos = (451,357);
},
{
name = top_center_can;
pos = (430,714);
},
{
name = top_left_can;
pos = (264,714);
},
{
name = top_right_can;
pos = (597,714);
}
);
background = {
anchors = (
{
name = middle_center_can;
pos = (451,357);
},
{
name = top_center_can;
pos = (430,714);
},
{
name = top_left_can;
pos = (264,714);
},
{
name = top_right_can;
pos = (597,714);
}
);
shapes = (
{
closed = 1;
nodes = (
(208,0,l),
(323,543,l),
(656,543,l),
(693,714,l),
(167,714,l),
(15,0,l)
);
}
);
};
color = 4;
layerId = "A1461942-0433-4891-A171-8512F51D8C86";
shapes = (
{
closed = 1;
nodes = (
(208,0,l),
(324,543,l),
(657,543,l),
(693,714,l),
(167,714,l),
(15,0,l)
);
}
);
width = 635;
},
{
anchors = (
{
name = middle_center_can;
pos = (259,357);
},
{
name = top_center_can;
pos = (322,714);
},
{
name = top_left_can;
pos = (189,714);
},
{
name = top_right_can;
pos = (455,714);
}
);
background = {
anchors = (
{
name = middle_center_can;
pos = (259,357);
},
{
name = top_center_can;
pos = (322,714);
},
{
name = top_left_can;
pos = (189,714);
},
{
name = top_right_can;
pos = (455,714);
}
);
shapes = (
{
closed = 1;
nodes = (
(49,0,l),
(196,690,l),
(463,690,l),
(468,714,l),
(176,714,l),
(24,0,l)
);
}
);
};
color = 4;
layerId = "341CD669-D84F-4333-8BC8-F9777E6D3814";
shapes = (
{
closed = 1;
nodes = (
(49,0,l),
(196,690,l),
(463,690,l),
(468,714,l),
(176,714,l),
(24,0,l)
);
}
);
width = 405;
},
{
anchors = (
{
name = middle_center_can;
pos = (358,357);
},
{
name = top_center_can;
pos = (342,714);
},
{
name = top_left_can;
pos = (229,714);
},
{
name = top_right_can;
pos = (455,714);
}
);
background = {
anchors = (
{
name = middle_center_can;
pos = (358,357);
},
{
name = top_center_can;
pos = (342,714);
},
{
name = top_left_can;
pos = (229,714);
},
{
name = top_right_can;
pos = (455,714);
}
);
shapes = (
{
closed = 1;
nodes = (
(168,0,l),
(284,547,l),
(510,547,l),
(546,714,l),
(137,714,l),
(-15,0,l)
);
}
);
};
color = 4;
layerId = "4DD67900-F9B0-4F36-BC45-F4B21129580C";
shapes = (
{
closed = 1;
nodes = (
(168,0,l),
(284,547,l),
(510,547,l),
(546,714,l),
(137,714,l),
(-15,0,l)
);
}
);
width = 475;
}
);
metricLeft = "nunavuth-canadian";
metricRight = "=|me-canadian";
note = uni14A5;
unicode = 5285;
},
{
color = 2;
glyphname = "mo-canadian";
kernLeft = moleft;
lastChange = "2022-11-20 11:21:22 +0000";
layers = (
{
anchors = (
{
name = middle_center_can;
pos = (267,357);
},
{
name = top_center_can;
pos = (356,714);
},
{
name = top_double;
pos = (548,714);
},
{
name = top_left_can;
pos = (164,714);
},
{
name = top_right_can;
pos = (548,714);
}
);
background = {
anchors = (
{
name = middle_center_can;
pos = (267,357);
},
{
name = top_center_can;
pos = (356,714);
},
{
name = top_double;
pos = (548,714);
},
{
name = top_left_can;
pos = (164,714);
},
{
name = top_right_can;
pos = (548,714);
}
);
shapes = (
{
closed = 1;
nodes = (
(409,0,l),
(561,714,l),
(535,714,l),
(388,25,l),
(4,25,l),
(-1,0,l)
);
}
);
};
color = 4;
layerId = m01;
shapes = (
{
closed = 1;
nodes = (
(408,0,l),
(560,714,l),
(534,714,l),
(388,25,l),
(4,25,l),
(-1,0,l)
);
}
);
width = 559;
},
{
anchors = (
{
name = middle_center_can;
pos = (228,357);
},
{
name = top_center_can;
pos = (405,714);
},
{
name = top_double;
pos = (567,714);
},
{
name = top_left_can;
pos = (233,714);
},
{
name = top_right_can;
pos = (567,714);
}
);
background = {
anchors = (
{
name = middle_center_can;
pos = (228,357);
},
{
name = top_center_can;
pos = (405,714);
},
{
name = top_double;
pos = (567,714);
},
{
name = top_left_can;
pos = (233,714);
},
{
name = top_right_can;
pos = (567,714);
}
);
shapes = (
{
closed = 1;
nodes = (
(511,0,l),
(663,714,l),
(470,714,l),
(354,171,l),
(21,171,l),
(-15,0,l)
);
}
);
};
color = 4;
layerId = "A1461942-0433-4891-A171-8512F51D8C86";
shapes = (
{
closed = 1;
nodes = (
(511,0,l),
(663,714,l),
(470,714,l),
(354,171,l),
(21,171,l),
(-15,0,l)
);
}
);
width = 636;
},
{
anchors = (
{
name = middle_center_can;
pos = (196,357);
},
{
name = top_center_can;
pos = (285,714);
},
{
name = top_double;
pos = (419,714);
},
{
name = top_left_can;
pos = (151,714);
},
{
name = top_right_can;
pos = (418,714);
}
);
background = {
anchors = (
{
name = middle_center_can;
pos = (196,357);
},
{
name = top_center_can;
pos = (285,714);
},
{
name = top_double;
pos = (419,714);
},
{
name = top_left_can;
pos = (151,714);
},
{
name = top_right_can;
pos = (418,714);
}
);
shapes = (
{
closed = 1;
nodes = (
(279,0,l),
(431,714,l),
(406,714,l),
(259,24,l),
(-8,24,l),
(-13,0,l)
);
}
);
};
color = 4;
layerId = "341CD669-D84F-4333-8BC8-F9777E6D3814";
shapes = (
{
closed = 1;
nodes = (
(279,0,l),
(431,714,l),
(406,714,l),
(259,24,l),
(-8,24,l),
(-13,0,l)
);
}
);
width = 405;
},
{
anchors = (
{
name = middle_center_can;
pos = (162,357);
},
{
name = top_center_can;
pos = (334,714);
},
{
name = top_double;
pos = (442,714);
},
{
name = top_left_can;
pos = (215,714);
},
{
name = top_right_can;
pos = (442,714);
}
);
background = {
anchors = (
{
name = middle_center_can;
pos = (162,357);
},
{
name = top_center_can;
pos = (334,714);
},
{
name = top_double;
pos = (442,714);
},
{
name = top_left_can;
pos = (215,714);
},
{
name = top_right_can;
pos = (442,714);
}
);
shapes = (
{
closed = 1;
nodes = (
(381,0,l),
(533,714,l),
(350,714,l),
(233,167,l),
(7,167,l),
(-28,0,l)
);
}
);
};
color = 4;
layerId = "4DD67900-F9B0-4F36-BC45-F4B21129580C";
shapes = (
{
closed = 1;
nodes = (
(381,1,l),
(533,715,l),
(350,715,l),
(234,168,l),
(8,168,l),
(-28,1,l)
);
}
);
width = 476;
}
);
metricLeft = "me-canadian";
metricRight = "nunavuth-canadian";
note = uni14A7;
unicode = 5287;
},
{
color = 2;
glyphname = "ma-canadian";
kernRight = maright;
lastChange = "2022-11-20 11:21:22 +0000";
layers = (
{
anchors = (
{
name = middle_center_can;
pos = (342,357);
},
{
name = top_center_can;
pos = (405,714);
},
{
name = top_left_can;
pos = (213,714);
},
{
name = top_right_can;
pos = (597,714);
}
);
background = {
anchors = (
{
name = middle_center_can;
pos = (342,357);
},
{
name = top_center_can;
pos = (405,714);
},
{
name = top_left_can;
pos = (213,714);
},
{
name = top_right_can;
pos = (597,714);
}
);
shapes = (
{
closed = 1;
nodes = (
(458,0,l),
(463,25,l),
(79,25,l),
(226,714,l),
(200,714,l),
(48,0,l)
);
}
);
};
color = 4;
layerId = m01;
shapes = (
{
closed = 1;
nodes = (
(459,0,l),
(464,25,l),
(80,25,l),
(227,714,l),
(201,714,l),
(49,0,l)
);
}
);
width = 560;
},
{
anchors = (
{
name = middle_center_can;
pos = (451,357);
},
{
name = top_center_can;
pos = (430,714);
},
{
name = top_left_can;
pos = (264,714);
},
{
name = top_right_can;
pos = (596,714);
}
);
background = {
anchors = (
{
name = middle_center_can;
pos = (451,357);
},
{
name = top_center_can;
pos = (430,714);
},
{
name = top_left_can;
pos = (264,714);
},
{
name = top_right_can;
pos = (596,714);
}
);
shapes = (
{
closed = 1;
nodes = (
(541,0,l),
(577,171,l),
(244,171,l),
(360,714,l),
(167,714,l),
(15,0,l)
);
}
);
};
color = 4;
layerId = "A1461942-0433-4891-A171-8512F51D8C86";
shapes = (
{
closed = 1;
nodes = (
(541,0,l),
(577,171,l),
(244,171,l),
(360,714,l),
(167,714,l),
(15,0,l)
);
}
);
width = 635;
},
{
anchors = (
{
name = middle_center_can;
pos = (259,357);
},
{
name = top_center_can;
pos = (322,714);
},
{
name = top_left_can;
pos = (189,714);
},
{
name = top_right_can;
pos = (455,714);
}
);
background = {
anchors = (
{
name = middle_center_can;
pos = (259,357);
},
{
name = top_center_can;
pos = (322,714);
},
{
name = top_left_can;
pos = (189,714);
},
{
name = top_right_can;
pos = (455,714);
}
);
shapes = (
{
closed = 1;
nodes = (
(316,0,l),
(321,24,l),
(54,24,l),
(201,714,l),
(176,714,l),
(24,0,l)
);
}
);
};
color = 4;
layerId = "341CD669-D84F-4333-8BC8-F9777E6D3814";
shapes = (
{
closed = 1;
nodes = (
(316,0,l),
(321,24,l),
(54,24,l),
(201,714,l),
(176,714,l),
(24,0,l)
);
}
);
width = 405;
},
{
anchors = (
{
name = middle_center_can;
pos = (357,357);
},
{
name = top_center_can;
pos = (341,714);
},
{
name = top_left_can;
pos = (228,714);
},
{
name = top_right_can;
pos = (453,714);
}
);
background = {
anchors = (
{
name = middle_center_can;
pos = (357,357);
},
{
name = top_center_can;
pos = (341,714);
},
{
name = top_left_can;
pos = (228,714);
},
{
name = top_right_can;
pos = (453,714);
}
);
shapes = (
{
closed = 1;
nodes = (
(393,0,l),
(428,167,l),
(202,167,l),
(319,714,l),
(136,714,l),
(-16,0,l)
);
}
);
};
color = 4;
layerId = "4DD67900-F9B0-4F36-BC45-F4B21129580C";
shapes = (
{
closed = 1;
nodes = (
(394,0,l),
(429,167,l),
(204,167,l),
(320,714,l),
(137,714,l),
(-15,0,l)
);
}
);
width = 475;
}
);
metricLeft = "nunavuth-canadian";
metricRight = "=|me-canadian";
note = uni14AA;
unicode = 5290;
},
{
color = 2;
glyphname = "m-canadian";
kernLeft = mwestleft;
kernRight = mwestright;
lastChange = "2022-11-20 11:21:22 +0000";
layers = (
{
background = {
shapes = (
{
closed = 1;
nodes = (
(342,379,l),
(139,379,l),
(210,714,l),
(186,714,l),
(110,357,l),
(337,357,l)
);
}
);
};
color = 4;
layerId = m01;
shapes = (
{
closed = 1;
nodes = (
(336,357,l),
(341,379,l),
(139,379,l),
(210,714,l),
(186,714,l),
(110,357,l)
);
}
);
width = 377;
},
{
background = {
shapes = (
{
closed = 1;
nodes = (
(389,479,l),
(240,479,l),
(290,714,l),
(157,714,l),
(81,357,l),
(363,357,l)
);
}
);
};
color = 4;
layerId = "A1461942-0433-4891-A171-8512F51D8C86";
shapes = (
{
closed = 1;
nodes = (
(363,357,l),
(389,479,l),
(240,479,l),
(290,714,l),
(157,714,l),
(81,357,l)
);
}
);
width = 392;
},
{
background = {
shapes = (
{
closed = 1;
nodes = (
(251,379,l),
(112,379,l),
(183,714,l),
(161,714,l),
(85,357,l),
(246,357,l)
);
}
);
};
color = 4;
layerId = "341CD669-D84F-4333-8BC8-F9777E6D3814";
shapes = (
{
closed = 1;
nodes = (
(245,357,l),
(250,379,l),
(112,379,l),
(183,714,l),
(161,714,l),
(85,357,l)
);
}
);
width = 256;
},
{
background = {
shapes = (
{
closed = 1;
nodes = (
(306,469,l),
(198,469,l),
(250,714,l),
(132,714,l),
(56,357,l),
(282,357,l)
);
}
);
};
color = 4;
layerId = "4DD67900-F9B0-4F36-BC45-F4B21129580C";
shapes = (
{
closed = 1;
nodes = (
(282,357,l),
(306,469,l),
(198,469,l),
(250,714,l),
(132,714,l),
(56,357,l)
);
}
);
width = 281;
}
);
metricLeft = "pWestCree-canadian";
note = uni14BB;
unicode = 5307;
},
{
color = 2;
glyphname = "mh-canadian";
kernLeft = mwestleft;
kernRight = mwestright;
lastChange = "2022-11-20 11:21:22 +0000";
layers = (
{
background = {
shapes = (
{
closed = 1;
nodes = (
(317,357,l),
(393,714,l),
(369,714,l),
(298,379,l),
(95,379,l),
(90,357,l)
);
}
);
};
color = 4;
layerId = m01;
shapes = (
{
closed = 1;
nodes = (
(317,357,l),
(393,714,l),
(369,714,l),
(298,379,l),
(95,379,l),
(90,357,l)
);
}
);
width = 377;
},
{
background = {
shapes = (
{
closed = 1;
nodes = (
(353,357,l),
(429,714,l),
(296,714,l),
(246,479,l),
(97,479,l),
(71,357,l)
);
}
);
};
color = 4;
layerId = "A1461942-0433-4891-A171-8512F51D8C86";
shapes = (
{
closed = 1;
nodes = (
(353,357,l),
(429,714,l),
(296,714,l),
(246,479,l),
(97,479,l),
(71,357,l)
);
}
);
width = 392;
},
{
background = {
shapes = (
{
closed = 1;
nodes = (
(222,357,l),
(298,714,l),
(277,714,l),
(206,379,l),
(66,379,l),
(61,357,l)
);
}
);
};
color = 4;
layerId = "341CD669-D84F-4333-8BC8-F9777E6D3814";
shapes = (
{
closed = 1;
nodes = (
(222,357,l),
(298,714,l),
(277,714,l),
(206,379,l),
(66,379,l),
(61,357,l)
);
}
);
width = 257;
},
{
background = {
shapes = (
{
closed = 1;
nodes = (
(267,357,l),
(343,714,l),
(225,714,l),
(173,469,l),
(65,469,l),
(41,357,l)
);
}
);
};
color = 4;
layerId = "4DD67900-F9B0-4F36-BC45-F4B21129580C";
shapes = (
{
closed = 1;
nodes = (
(267,357,l),
(343,714,l),
(225,714,l),
(173,469,l),
(65,469,l),
(41,357,l)
);
}
);
width = 281;
}
);
metricLeft = "=|m-canadian";
metricRight = "=|m-canadian";
note = uni14BD;
unicode = 5309;
},
{
color = 2;
glyphname = "mAthapascan-canadian";
lastChange = "2022-11-24 15:50:57 +0000";
layers = (
{
background = {
shapes = (
{
closed = 1;
nodes = (
(355,357,l),
(360,379,l),
(147,379,l),
(143,364,l),
(310,502,ls),
(352,537,o),
(387,587,o),
(387,642,cs),
(387,689,o),
(351,720,o),
(292,720,cs),
(218,720,o),
(163,672,o),
(146,593,c),
(169,593,l),
(184,662,o),
(227,698,o),
(289,698,cs),
(337,698,o),
(364,677,o),
(364,639,cs),
(364,582,o),
(323,537,o),
(286,507,cs),
(115,366,l),
(113,357,l)
);
}
);
};
color = 4;
layerId = m01;
shapes = (
{
closed = 1;
nodes = (
(355,357,l),
(360,379,l),
(146,379,l),
(144,361,l),
(314,496,ls),
(357,530,o),
(378,558,o),
(386,595,cs),
(401,668,o),
(356,720,o),
(280,720,cs),
(210,720,o),
(163,676,o),
(146,593,c),
(169,593,l),
(183,663,o),
(221,698,o),
(280,698,cs),
(342,698,o),
(376,659,o),
(363,600,cs),
(356,566,o),
(336,539,o),
(290,503,cs),
(115,366,l),
(113,357,l)
);
}
);
width = 399;
},
{
background = {
shapes = (
{
closed = 1;
nodes = (
(374,357,l),
(395,457,l),
(232,457,l),
(222,408,l),
(340,495,ls),
(382,526,o),
(422,571,o),
(422,631,cs),
(422,688,o),
(378,720,o),
(300,720,cs),
(206,720,o),
(138,669,o),
(115,587,c),
(232,587,l),
(237,611,o),
(254,626,o),
(277,626,cs),
(295,626,o),
(303,618,o),
(303,606,cs),
(303,586,o),
(288,566,o),
(256,543,cs),
(93,425,l),
(79,357,l)
);
}
);
};
color = 4;
layerId = "A1461942-0433-4891-A171-8512F51D8C86";
shapes = (
{
closed = 1;
nodes = (
(374,357,l),
(395,457,l),
(229,457,l),
(224,403,l),
(332,484,ls),
(382,522,o),
(405,551,o),
(413,585,cs),
(430,657,o),
(368,720,o),
(279,720,cs),
(198,720,o),
(137,671,o),
(115,587,c),
(232,587,l),
(236,613,o),
(249,626,o),
(270,626,cs),
(290,626,o),
(303,612,o),
(299,594,cs),
(296,579,o),
(283,565,o),
(253,542,cs),
(94,425,l),
(79,357,l)
);
}
);
width = 398;
},
{
background = {
shapes = (
{
closed = 1;
nodes = (
(263,357,l),
(268,379,l),
(121,379,l),
(117,364,l),
(239,501,ls),
(283,551,o),
(305,602,o),
(305,650,cs),
(305,694,o),
(281,720,o),
(242,720,cs),
(189,720,o),
(148,679,o),
(132,601,c),
(154,601,l),
(169,673,o),
(197,699,o),
(238,699,cs),
(268,699,o),
(283,681,o),
(283,649,cs),
(283,602,o),
(263,558,o),
(220,509,cs),
(94,366,l),
(92,357,l)
);
}
);
};
color = 4;
layerId = "341CD669-D84F-4333-8BC8-F9777E6D3814";
shapes = (
{
closed = 1;
nodes = (
(263,357,l),
(268,379,l),
(120,379,l),
(119,362,l),
(234,497,ls),
(271,540,o),
(289,570,o),
(297,607,cs),
(311,674,o),
(284,720,o),
(233,720,cs),
(184,720,o),
(148,679,o),
(132,601,c),
(154,601,l),
(168,667,o),
(193,699,o),
(232,699,cs),
(271,699,o),
(288,667,o),
(276,614,cs),
(268,575,o),
(250,548,o),
(215,507,cs),
(94,366,l),
(92,357,l)
);
}
);
width = 284;
},
{
background = {
shapes = (
{
closed = 1;
nodes = (
(285,357,l),
(306,457,l),
(190,457,l),
(182,410,l),
(266,487,ls),
(312,529,o),
(342,592,o),
(342,640,cs),
(342,683,o),
(319,720,o),
(249,720,cs),
(166,720,o),
(111,664,o),
(95,587,c),
(199,587,l),
(208,631,o),
(217,638,o),
(227,638,cs),
(233,638,o),
(237,634,o),
(237,625,cs),
(237,593,o),
(220,559,o),
(178,520,cs),
(72,421,l),
(58,357,l)
);
}
);
};
color = 4;
layerId = "4DD67900-F9B0-4F36-BC45-F4B21129580C";
shapes = (
{
closed = 1;
nodes = (
(285,357,l),
(306,457,l),
(190,457,l),
(185,409,l),
(247,467,ls),
(296,513,o),
(327,557,o),
(336,598,cs),
(352,667,o),
(306,720,o),
(228,720,cs),
(157,720,o),
(113,676,o),
(95,587,c),
(199,587,l),
(206,623,o),
(214,638,o),
(225,638,cs),
(235,638,o),
(239,629,o),
(235,612,cs),
(229,584,o),
(206,552,o),
(159,507,cs),
(72,422,l),
(58,357,l)
);
}
);
width = 294;
}
);
note = uni14BE;
unicode = 5310;
},
{
color = 2;
glyphname = "mSayisi-canadian";
lastChange = "2022-11-24 15:29:53 +0000";
layers = (
{
background = {
shapes = (
{
closed = 1;
nodes = (
(520,25,l),
(93,25,l),
(91,14,l),
(422,274,ls),
(567,388,o),
(622,471,o),
(622,573,cs),
(622,656,o),
(566,726,o),
(440,726,cs),
(279,726,o),
(172,625,o),
(139,472,c),
(165,472,l),
(195,612,o),
(289,701,o),
(435,701,cs),
(549,701,o),
(596,641,o),
(596,570,cs),
(596,477,o),
(544,397,o),
(406,289,cs),
(65,21,l),
(61,0,l),
(515,0,l)
);
}
);
};
color = 4;
layerId = m01;
shapes = (
{
alignment = -1;
ref = two.canadian;
}
);
width = 646;
},
{
background = {
shapes = (
{
closed = 1;
nodes = (
(608,171,l),
(279,171,l),
(267,113,l),
(496,275,ls),
(598,347,o),
(669,437,o),
(669,549,cs),
(669,660,o),
(582,729,o),
(441,729,cs),
(261,729,o),
(121,619,o),
(83,462,c),
(274,462,l),
(287,521,o),
(335,557,o),
(397,557,cs),
(443,557,o),
(469,537,o),
(469,503,cs),
(469,456,o),
(436,408,o),
(365,358,cs),
(39,128,l),
(12,0,l),
(572,0,l)
);
}
);
};
color = 4;
layerId = "A1461942-0433-4891-A171-8512F51D8C86";
shapes = (
{
alignment = -1;
ref = two.canadian;
}
);
width = 666;
},
{
background = {
shapes = (
{
closed = 1;
nodes = (
(347,24,l),
(50,24,l),
(48,13,l),
(325,312,ls),
(407,400,o),
(457,510,o),
(457,600,cs),
(457,682,o),
(410,726,o),
(329,726,cs),
(216,726,o),
(140,640,o),
(104,472,c),
(129,472,l),
(162,626,o),
(224,702,o),
(323,702,cs),
(393,702,o),
(432,667,o),
(432,597,cs),
(432,508,o),
(382,405,o),
(303,320,cs),
(24,20,l),
(20,0,l),
(342,0,l)
);
}
);
};
color = 4;
layerId = "341CD669-D84F-4333-8BC8-F9777E6D3814";
shapes = (
{
alignment = -1;
ref = two.canadian;
}
);
width = 448;
},
{
background = {
shapes = (
{
closed = 1;
nodes = (
(461,167,l),
(237,167,l),
(229,107,l),
(394,283,ls),
(468,362,o),
(533,463,o),
(533,568,cs),
(533,670,o),
(464,729,o),
(359,729,cs),
(211,729,o),
(108,629,o),
(72,463,c),
(253,463,l),
(270,542,o),
(292,570,o),
(320,570,cs),
(337,570,o),
(346,558,o),
(346,535,cs),
(346,472,o),
(284,396,o),
(248,358,cs),
(20,116,l),
(-5,0,l),
(426,0,l)
);
}
);
};
color = 4;
layerId = "4DD67900-F9B0-4F36-BC45-F4B21129580C";
shapes = (
{
alignment = -1;
pos = (-3,0);
ref = two.canadian;
}
);
width = 509;
}
);
note = uni14BF;
unicode = 5311;
},
{
color = 2;
glyphname = "ne-canadian";
kernLeft = neleft;
lastChange = "2022-11-28 18:02:27 +0000";
layers = (
{
anchors = (
{
name = middle_center_can;
pos = (583,254);
},
{
name = top_center_can;
pos = (629,499);
},
{
name = top_left_can;
pos = (148,499);
},
{
name = top_right_can;
pos = (863,499);
}
);
background = {
anchors = (
{
name = middle_center_can;
pos = (583,254);
},
{
name = top_center_can;
pos = (629,499);
},
{
name = top_left_can;
pos = (148,499);
},
{
name = top_right_can;
pos = (863,499);
}
);
shapes = (
{
closed = 1;
nodes = (
(693,-12,o),
(827,126,o),
(827,298,cs),
(827,409,o),
(755,481,o),
(625,481,cs),
(131,481,l),
(126,456,l),
(543,456,l),
(546,466,l),
(421,433,o),
(331,308,o),
(331,171,cs),
(331,58,o),
(404,-12,o),
(527,-12,cs)
);
},
{
closed = 1;
nodes = (
(420,13,o),
(357,74,o),
(357,174,cs),
(357,333,o),
(474,456,o),
(623,456,cs),
(737,456,o),
(801,395,o),
(801,295,cs),
(801,137,o),
(683,13,o),
(532,13,cs)
);
}
);
};
color = 4;
layerId = m01;
shapes = (
{
closed = 1;
nodes = (
(681,-12,o),
(786,77,o),
(814,209,cs),
(846,362,o),
(752,481,o),
(598,481,cs),
(131,481,l),
(126,456,l),
(544,456,l),
(557,472,l),
(441,455,o),
(365,384,o),
(341,268,cs),
(307,111,o),
(400,-12,o),
(552,-12,cs)
);
},
{
closed = 1;
nodes = (
(416,13,o),
(336,123,o),
(366,264,cs),
(391,384,o),
(480,456,o),
(598,456,cs),
(738,456,o),
(818,351,o),
(789,214,cs),
(763,92,o),
(669,13,o),
(551,13,cs)
);
}
);
width = 911;
},
{
anchors = (
{
name = middle_center_can;
pos = (571,254);
},
{
name = top_center_can;
pos = (611,534);
},
{
name = top_left_can;
pos = (195,534);
},
{
name = top_right_can;
pos = (828,534);
}
);
background = {
anchors = (
{
name = middle_center_can;
pos = (571,254);
},
{
name = top_center_can;
pos = (611,534);
},
{
name = top_left_can;
pos = (195,534);
},
{
name = top_right_can;
pos = (828,534);
}
);
shapes = (
{
closed = 1;
nodes = (
(710,-15,o),
(869,133,o),
(869,315,cs),
(869,442,o),
(774,514,o),
(607,514,cs),
(95,514,l),
(59,345,l),
(380,345,l),
(351,384,l),
(304,335,o),
(271,249,o),
(271,181,cs),
(271,62,o),
(360,-15,o),
(513,-15,cs)
);
},
{
closed = 1;
nodes = (
(491,147,o),
(466,182,o),
(466,224,cs),
(466,293,o),
(523,352,o),
(591,352,cs),
(649,352,o),
(675,315,o),
(675,273,cs),
(675,205,o),
(617,147,o),
(548,147,cs)
);
}
);
};
color = 4;
layerId = "A1461942-0433-4891-A171-8512F51D8C86";
shapes = (
{
closed = 1;
nodes = (
(709,-15,o),
(828,77,o),
(858,218,cs),
(895,387,o),
(779,514,o),
(597,514,cs),
(95,514,l),
(59,345,l),
(386,345,l),
(358,418,l),
(322,378,o),
(297,328,o),
(286,277,cs),
(251,111,o),
(367,-15,o),
(553,-15,cs)
);
},
{
closed = 1;
nodes = (
(506,147,o),
(469,184,o),
(469,239,cs),
(469,303,o),
(519,352,o),
(583,352,cs),
(640,352,o),
(677,315,o),
(677,260,cs),
(677,196,o),
(627,147,o),
(563,147,cs)
);
}
);
width = 906;
},
{
anchors = (
{
name = middle_center_can;
pos = (414,254);
},
{
name = top_center_can;
pos = (462,499);
},
{
name = top_left_can;
pos = (128,499);
},
{
name = top_right_can;
pos = (625,499);
}
);
background = {
anchors = (
{
name = middle_center_can;
pos = (414,254);
},
{
name = top_center_can;
pos = (462,499);
},
{
name = top_left_can;
pos = (128,499);
},
{
name = top_right_can;
pos = (625,499);
}
);
shapes = (
{
closed = 1;
nodes = (
(486,-12,o),
(592,142,o),
(592,330,cs),
(592,428,o),
(546,481,o),
(461,481,cs),
(111,481,l),
(106,457,l),
(395,457,l),
(397,466,l),
(307,431,o),
(230,286,o),
(230,140,cs),
(230,41,o),
(275,-12,o),
(358,-12,cs)
);
},
{
closed = 1;
nodes = (
(291,12,o),
(254,55,o),
(254,139,cs),
(254,312,o),
(347,457,o),
(458,457,cs),
(530,457,o),
(567,414,o),
(567,329,cs),
(567,153,o),
(476,12,o),
(363,12,cs)
);
}
);
};
color = 4;
layerId = "341CD669-D84F-4333-8BC8-F9777E6D3814";
shapes = (
{
closed = 1;
nodes = (
(477,-12,o),
(544,64,o),
(574,209,cs),
(612,383,o),
(560,481,o),
(431,481,cs),
(111,481,l),
(106,457,l),
(394,457,l),
(397,472,l),
(317,451,o),
(267,380,o),
(241,252,cs),
(207,88,o),
(258,-12,o),
(379,-12,cs)
);
},
{
closed = 1;
nodes = (
(273,12,o),
(234,97,o),
(266,252,cs),
(295,392,o),
(351,457,o),
(441,457,cs),
(544,457,o),
(583,372,o),
(551,217,cs),
(522,77,o),
(466,12,o),
(376,12,cs)
);
}
);
width = 646;
},
{
anchors = (
{
name = middle_center_can;
pos = (422,254);
},
{
name = top_center_can;
pos = (461,534);
},
{
name = top_left_can;
pos = (179,534);
},
{
name = top_right_can;
pos = (616,534);
}
);
background = {
anchors = (
{
name = middle_center_can;
pos = (422,254);
},
{
name = top_center_can;
pos = (461,534);
},
{
name = top_left_can;
pos = (179,534);
},
{
name = top_right_can;
pos = (616,534);
}
);
shapes = (
{
closed = 1;
nodes = (
(529,-15,o),
(655,139,o),
(655,336,cs),
(655,456,o),
(583,514,o),
(449,514,cs),
(84,514,l),
(49,349,l),
(255,349,l),
(254,391,l),
(215,328,o),
(185,226,o),
(185,158,cs),
(185,43,o),
(253,-15,o),
(365,-15,cs)
);
},
{
closed = 1;
nodes = (
(380,139,o),
(368,151,o),
(368,186,cs),
(368,271,o),
(408,363,o),
(445,363,cs),
(463,363,o),
(475,350,o),
(475,316,cs),
(475,230,o),
(434,139,o),
(397,139,cs)
);
}
);
};
color = 4;
layerId = "4DD67900-F9B0-4F36-BC45-F4B21129580C";
shapes = (
{
closed = 1;
nodes = (
(517,-15,o),
(608,75,o),
(641,223,cs),
(678,394,o),
(600,514,o),
(444,514,cs),
(84,514,l),
(49,349,l),
(261,349,l),
(261,409,l),
(235,377,o),
(214,329,o),
(203,276,cs),
(166,105,o),
(247,-15,o),
(392,-15,cs)
);
},
{
closed = 1;
nodes = (
(370,139,o),
(362,179,o),
(378,258,cs),
(393,330,o),
(413,363,o),
(442,363,cs),
(474,363,o),
(482,323,o),
(466,244,cs),
(451,172,o),
(431,139,o),
(402,139,cs)
);
}
);
width = 677;
}
);
metricRight = "=|ke-canadian";
note = uni14C0;
unicode = 5312;
},
{
color = 2;
glyphname = "ni-canadian";
kernRight = niright;
lastChange = "2022-11-28 18:02:27 +0000";
layers = (
{
anchors = (
{
name = middle_center_can;
pos = (328,254);
},
{
name = top_center_can;
pos = (385,499);
},
{
name = top_left_can;
pos = (152,499);
},
{
name = top_right_can;
pos = (867,499);
}
);
background = {
anchors = (
{
name = middle_center_can;
pos = (328,254);
},
{
name = top_center_can;
pos = (385,499);
},
{
name = top_left_can;
pos = (152,499);
},
{
name = top_right_can;
pos = (867,499);
}
);
shapes = (
{
closed = 1;
nodes = (
(437,-12,o),
(572,126,o),
(572,297,cs),
(572,378,o),
(533,442,o),
(453,466,c),
(454,456,l),
(871,456,l),
(877,481,l),
(382,481,ls),
(210,481,o),
(76,345,o),
(76,170,cs),
(76,59,o),
(148,-12,o),
(272,-12,cs)
);
},
{
closed = 1;
nodes = (
(165,13,o),
(102,75,o),
(102,175,cs),
(102,334,o),
(220,456,o),
(374,456,cs),
(483,456,o),
(546,396,o),
(546,296,cs),
(546,137,o),
(429,13,o),
(277,13,cs)
);
}
);
};
color = 4;
layerId = m01;
shapes = (
{
closed = 1;
nodes = (
(436,-12,o),
(541,77,o),
(569,209,cs),
(594,326,o),
(543,422,o),
(461,457,c),
(458,456,l),
(871,456,l),
(876,481,l),
(367,481,ls),
(205,481,o),
(120,384,o),
(96,268,cs),
(63,111,o),
(155,-12,o),
(307,-12,cs)
);
},
{
closed = 1;
nodes = (
(171,13,o),
(91,123,o),
(121,264,cs),
(146,384,o),
(235,456,o),
(353,456,cs),
(493,456,o),
(573,351,o),
(544,214,cs),
(518,92,o),
(424,13,o),
(306,13,cs)
);
}
);
width = 905;
},
{
anchors = (
{
name = middle_center_can;
pos = (332,254);
},
{
name = top_center_can;
pos = (416,534);
},
{
name = top_left_can;
pos = (195,534);
},
{
name = top_right_can;
pos = (827,534);
}
);
background = {
anchors = (
{
name = middle_center_can;
pos = (332,254);
},
{
name = top_center_can;
pos = (416,534);
},
{
name = top_left_can;
pos = (195,534);
},
{
name = top_right_can;
pos = (827,534);
}
);
shapes = (
{
closed = 1;
nodes = (
(474,-15,o),
(626,123,o),
(626,302,cs),
(626,335,o),
(620,364,o),
(608,388,c),
(561,345,l),
(882,345,l),
(918,514,l),
(411,514,ls),
(197,514,o),
(32,372,o),
(32,189,cs),
(32,68,o),
(123,-15,o),
(275,-15,cs)
);
},
{
closed = 1;
nodes = (
(252,147,o),
(225,183,o),
(225,225,cs),
(225,293,o),
(284,352,o),
(353,352,cs),
(410,352,o),
(435,316,o),
(435,274,cs),
(435,205,o),
(378,147,o),
(309,147,cs)
);
}
);
};
color = 4;
layerId = "A1461942-0433-4891-A171-8512F51D8C86";
shapes = (
{
closed = 1;
nodes = (
(467,-15,o),
(586,77,o),
(616,218,cs),
(627,271,o),
(625,325,o),
(606,366,c),
(556,345,l),
(882,345,l),
(918,514,l),
(350,514,ls),
(194,514,o),
(75,422,o),
(45,281,cs),
(8,111,o),
(125,-15,o),
(311,-15,cs)
);
},
{
closed = 1;
nodes = (
(264,147,o),
(227,184,o),
(227,239,cs),
(227,303,o),
(277,352,o),
(341,352,cs),
(398,352,o),
(435,315,o),
(435,260,cs),
(435,196,o),
(385,147,o),
(321,147,cs)
);
}
);
width = 903;
},
{
anchors = (
{
name = middle_center_can;
pos = (237,254);
},
{
name = top_center_can;
pos = (293,499);
},
{
name = top_left_can;
pos = (131,499);
},
{
name = top_right_can;
pos = (628,499);
}
);
background = {
anchors = (
{
name = middle_center_can;
pos = (237,254);
},
{
name = top_center_can;
pos = (293,499);
},
{
name = top_left_can;
pos = (131,499);
},
{
name = top_right_can;
pos = (628,499);
}
);
shapes = (
{
closed = 1;
nodes = (
(309,-12,o),
(414,140,o),
(414,322,cs),
(414,390,o),
(393,444,o),
(346,466,c),
(344,457,l),
(633,457,l),
(639,481,l),
(289,481,ls),
(158,481,o),
(53,328,o),
(53,140,cs),
(53,42,o),
(98,-12,o),
(182,-12,cs)
);
},
{
closed = 1;
nodes = (
(114,12,o),
(78,55,o),
(78,139,cs),
(78,316,o),
(169,457,o),
(281,457,cs),
(354,457,o),
(390,407,o),
(390,324,cs),
(390,151,o),
(299,12,o),
(187,12,cs)
);
}
);
};
color = 4;
layerId = "341CD669-D84F-4333-8BC8-F9777E6D3814";
shapes = (
{
closed = 1;
nodes = (
(303,-12,o),
(370,64,o),
(400,209,cs),
(427,336,o),
(408,420,o),
(344,460,c),
(342,457,l),
(632,457,l),
(637,481,l),
(281,481,ls),
(167,481,o),
(99,408,o),
(67,252,cs),
(33,87,o),
(85,-12,o),
(205,-12,cs)
);
},
{
closed = 1;
nodes = (
(99,12,o),
(60,97,o),
(92,252,cs),
(121,392,o),
(177,457,o),
(267,457,cs),
(370,457,o),
(409,372,o),
(377,217,cs),
(348,77,o),
(292,12,o),
(202,12,cs)
);
}
);
width = 646;
},
{
anchors = (
{
name = middle_center_can;
pos = (252,254);
},
{
name = top_center_can;
pos = (337,534);
},
{
name = top_left_can;
pos = (178,534);
},
{
name = top_right_can;
pos = (614,534);
}
);
background = {
anchors = (
{
name = middle_center_can;
pos = (255,254);
},
{
name = top_center_can;
pos = (337,534);
},
{
name = top_left_can;
pos = (178,534);
},
{
name = top_right_can;
pos = (614,534);
}
);
shapes = (
{
closed = 1;
nodes = (
(364,-15,o),
(483,130,o),
(483,334,cs),
(483,349,o),
(482,375,o),
(479,391,c),
(460,349,l),
(666,349,l),
(701,514,l),
(336,514,ls),
(148,514,o),
(17,370,o),
(17,162,cs),
(17,43,o),
(87,-15,o),
(195,-15,cs)
);
},
{
closed = 1;
nodes = (
(210,139,o),
(198,152,o),
(198,186,cs),
(198,272,o),
(239,363,o),
(276,363,cs),
(293,363,o),
(305,350,o),
(305,316,cs),
(305,232,o),
(265,139,o),
(228,139,cs)
);
}
);
};
color = 4;
layerId = "4DD67900-F9B0-4F36-BC45-F4B21129580C";
shapes = (
{
closed = 1;
nodes = (
(345,-15,o),
(438,74,o),
(471,223,cs),
(484,278,o),
(483,336,o),
(470,377,c),
(455,349,l),
(666,349,l),
(701,514,l),
(305,514,ls),
(158,514,o),
(67,434,o),
(33,276,cs),
(-4,107,o),
(75,-15,o),
(222,-15,cs)
);
},
{
closed = 1;
nodes = (
(200,139,o),
(192,179,o),
(208,258,cs),
(223,330,o),
(243,363,o),
(272,363,cs),
(304,363,o),
(312,323,o),
(296,244,cs),
(281,172,o),
(261,139,o),
(232,139,cs)
);
}
);
width = 675;
}
);
metricLeft = "ke-canadian";
metricRight = "=|ne-canadian";
note = uni14C2;
unicode = 5314;
},
{
color = 2;
glyphname = "no-canadian";
kernLeft = noleft;
lastChange = "2022-11-28 18:02:27 +0000";
layers = (
{
anchors = (
{
name = middle_center_can;
pos = (584,254);
},
{
name = top_center_can;
pos = (630,499);
},
{
name = top_double;
pos = (636,499);
},
{
name = top_left_can;
pos = (149,499);
},
{
name = top_right_can;
pos = (864,499);
}
);
background = {
anchors = (
{
name = middle_center_can;
pos = (584,254);
},
{
name = top_center_can;
pos = (630,499);
},
{
name = top_double;
pos = (636,499);
},
{
name = top_left_can;
pos = (149,499);
},
{
name = top_right_can;
pos = (864,499);
}
);
shapes = (
{
closed = 1;
nodes = (
(526,0,ls),
(678,0,o),
(792,100,o),
(823,246,cs),
(855,395,o),
(780,493,o),
(634,493,cs),
(489,493,o),
(373,395,o),
(341,246,cs),
(318,137,o),
(351,45,o),
(449,15,c),
(452,25,l),
(35,25,l),
(30,0,l)
);
},
{
closed = 1;
nodes = (
(402,25,o),
(338,110,o),
(367,246,cs),
(396,382,o),
(496,468,o),
(629,468,cs),
(762,468,o),
(826,381,o),
(797,246,cs),
(768,111,o),
(668,25,o),
(532,25,cs)
);
}
);
};
color = 4;
layerId = m01;
shapes = (
{
alignment = -1;
angle = 180;
pos = (911,481);
ref = "ni-canadian";
}
);
width = 911;
},
{
anchors = (
{
name = middle_center_can;
pos = (570,254);
},
{
name = top_center_can;
pos = (630,534);
},
{
name = top_double;
pos = (630,534);
},
{
name = top_left_can;
pos = (195,534);
},
{
name = top_right_can;
pos = (828,534);
}
);
background = {
anchors = (
{
name = middle_center_can;
pos = (570,254);
},
{
name = top_center_can;
pos = (630,534);
},
{
name = top_double;
pos = (630,534);
},
{
name = top_left_can;
pos = (195,534);
},
{
name = top_right_can;
pos = (828,534);
}
);
shapes = (
{
closed = 1;
nodes = (
(507,0,ls),
(715,0,o),
(871,139,o),
(871,324,cs),
(871,446,o),
(781,529,o),
(628,529,cs),
(434,529,o),
(278,390,o),
(278,218,cs),
(278,187,o),
(284,155,o),
(299,130,c),
(342,169,l),
(21,169,l),
(-15,0,l)
);
},
{
closed = 1;
nodes = (
(494,162,o),
(469,198,o),
(469,240,cs),
(469,309,o),
(525,367,o),
(594,367,cs),
(651,367,o),
(678,331,o),
(678,289,cs),
(678,220,o),
(619,162,o),
(550,162,cs)
);
}
);
};
color = 4;
layerId = "A1461942-0433-4891-A171-8512F51D8C86";
shapes = (
{
alignment = -1;
angle = 180;
pos = (903,514);
ref = "ni-canadian";
}
);
width = 903;
},
{
anchors = (
{
name = middle_center_can;
pos = (413,254);
},
{
name = top_center_can;
pos = (461,499);
},
{
name = top_double;
pos = (466,499);
},
{
name = top_left_can;
pos = (126,499);
},
{
name = top_right_can;
pos = (624,499);
}
);
background = {
anchors = (
{
name = middle_center_can;
pos = (413,254);
},
{
name = top_center_can;
pos = (461,499);
},
{
name = top_double;
pos = (466,499);
},
{
name = top_left_can;
pos = (126,499);
},
{
name = top_right_can;
pos = (624,499);
}
);
shapes = (
{
closed = 1;
nodes = (
(358,0,ls),
(488,0,o),
(594,152,o),
(594,341,cs),
(594,440,o),
(548,493,o),
(465,493,cs),
(338,493,o),
(232,342,o),
(232,159,cs),
(232,93,o),
(252,38,o),
(300,15,c),
(302,24,l),
(13,24,l),
(8,0,l)
);
},
{
closed = 1;
nodes = (
(292,24,o),
(257,74,o),
(257,157,cs),
(257,329,o),
(347,469,o),
(460,469,cs),
(532,469,o),
(569,426,o),
(569,342,cs),
(569,166,o),
(478,24,o),
(365,24,cs)
);
}
);
};
color = 4;
layerId = "341CD669-D84F-4333-8BC8-F9777E6D3814";
shapes = (
{
alignment = -1;
angle = 180;
pos = (646,481);
ref = "ni-canadian";
}
);
width = 646;
},
{
anchors = (
{
name = middle_center_can;
pos = (418,254);
},
{
name = top_center_can;
pos = (480,534);
},
{
name = top_double;
pos = (481,534);
},
{
name = top_left_can;
pos = (179,534);
},
{
name = top_right_can;
pos = (616,534);
}
);
background = {
anchors = (
{
name = middle_center_can;
pos = (418,254);
},
{
name = top_center_can;
pos = (480,534);
},
{
name = top_double;
pos = (481,534);
},
{
name = top_left_can;
pos = (179,534);
},
{
name = top_right_can;
pos = (616,534);
}
);
shapes = (
{
closed = 1;
nodes = (
(339,0,ls),
(529,0,o),
(657,141,o),
(657,350,cs),
(657,471,o),
(587,529,o),
(479,529,cs),
(311,529,o),
(191,385,o),
(191,180,cs),
(191,159,o),
(193,139,o),
(196,123,c),
(215,165,l),
(9,165,l),
(-26,0,l)
);
},
{
closed = 1;
nodes = (
(381,151,o),
(370,164,o),
(370,198,cs),
(370,283,o),
(410,375,o),
(447,375,cs),
(464,375,o),
(476,363,o),
(476,328,cs),
(476,243,o),
(436,151,o),
(399,151,cs)
);
}
);
};
color = 3;
layerId = "4DD67900-F9B0-4F36-BC45-F4B21129580C";
shapes = (
{
alignment = -1;
angle = 180;
pos = (675,514);
ref = "ni-canadian";
}
);
width = 675;
}
);
metricLeft = "ne-canadian";
metricRight = "=|ke-canadian";
note = uni14C4;
unicode = 5316;
},
